<svg id="Capa_1" enable-background="new 0 0 512 512" height="512" viewBox="0 0 512 512" width="512" xmlns="http://www.w3.org/2000/svg"><g><g><path d="m360.522 255.067c-8.095-8.095-8.095-21.22 0-29.315l106.058-106.059c8.095-8.095 21.22-8.095 29.315 0 8.095 8.095 8.095 21.22 0 29.315l-106.059 106.059c-8.094 8.095-21.219 8.095-29.314 0z" fill="#ffe266"/><path d="m125.134 379.558c-22.528-22.528-22.529-59.054 0-81.582l263.72-263.722c22.528-22.528 59.054-22.529 81.582 0 22.529 22.528 22.529 59.054 0 81.583l-263.72 263.722c-22.527 22.527-59.053 22.527-81.582-.001z" fill="#8bb6ef"/><path d="m470.437 34.253c-21.403-21.403-55.431-22.456-78.096-3.192 10.45.159 20.852 4.215 28.825 12.188l4.24 4.239c16.272 16.272 16.272 42.654 0 58.926l-228.109 228.112c-16.272 16.272-42.654 16.272-58.926 0l-4.24-4.24c-7.974-7.974-12.03-18.376-12.189-28.826-19.264 22.665-18.211 56.693 3.192 78.096 22.529 22.528 59.054 22.528 81.583 0l263.72-263.721c22.528-22.528 22.528-59.054 0-81.582z" fill="#8388ef"/><path d="m348.047 138.448c-2.483 0-4.969-.914-6.912-2.757-4.027-3.819-4.196-10.179-.377-14.205 6.714-7.08 27.949-27.465 31.429-30.883 3.96-3.89 10.32-3.833 14.21.127 3.889 3.959 3.832 10.321-.127 14.21-3.562 3.499-24.541 23.638-30.93 30.375-1.976 2.082-4.632 3.133-7.293 3.133z" fill="#fff"/><path d="m398.965 88.432c-2.601 0-5.201-1.004-7.168-3.006-3.89-3.958-3.834-10.321.125-14.21l4.048-3.977c3.957-3.89 10.318-3.836 14.21.121 3.891 3.957 3.837 10.318-.121 14.21l-4.052 3.981c-1.957 1.922-4.5 2.881-7.042 2.881z" fill="#fff"/><g fill="#ffe266"><path d="m42.666 372.913-32.617 121.73 121.73-32.617-10.656-78.457z"/><path d="m142.062 428.084-65.455-65.454c-8.574-8.573-8.574-22.474 0-31.047 8.574-8.574 22.474-8.574 31.047 0l65.455 65.454c8.573 8.574 8.574 22.474 0 31.047-8.573 8.574-22.474 8.574-31.047 0z"/></g></g><g fill="#440a29"><path d="m503.001 112.588c-3.582-3.583-7.894-6.168-12.599-7.629 12.43-25.3 8.156-56.796-12.86-77.811-12.794-12.793-29.804-19.84-47.897-19.84s-35.103 7.047-47.896 19.84l-263.72 263.722c-7.384 7.385-12.844 16.178-16.149 25.769-11.045-3.513-23.633-.906-32.379 7.84-11.291 11.291-12.362 28.991-3.216 41.501l-22.267-3.024c-5.012-.677-9.75 2.47-11.058 7.357l-32.617 121.73c-.929 3.467.062 7.167 2.6 9.706 1.91 1.909 4.476 2.943 7.107 2.943.866 0 1.74-.112 2.599-.343l121.73-32.617c4.886-1.309 8.038-6.046 7.357-11.058l-3.024-22.267c5.598 4.093 12.236 6.14 18.873 6.14 8.196 0 16.39-3.118 22.63-9.358 8.757-8.758 11.359-21.368 7.823-32.424 9.426-3.235 18.276-8.595 25.785-16.103l133.387-133.386c1.505 3.267 3.588 6.277 6.207 8.896 6.001 6 13.881 8.999 21.762 8.999 7.882 0 15.762-3 21.763-8.999l106.059-106.059c11.999-12 11.999-31.525 0-43.525zm-467.096 364.725 28.625-28.625c5.288 2.022 11.499.913 15.761-3.349 5.782-5.782 5.782-15.156 0-20.938s-15.156-5.782-20.937 0c-4.262 4.262-5.371 10.473-3.35 15.761l-28.624 28.624 22.702-84.725 39.049 5.303 26.197 26.198 5.304 39.049zm130.098-56.334c-4.641 4.641-12.194 4.642-16.836 0l-65.454-65.454c-4.643-4.642-4.643-12.194-.001-16.836 2.321-2.322 5.37-3.482 8.419-3.482 3.048 0 6.097 1.16 8.418 3.481l65.454 65.455c4.643 4.641 4.643 12.194 0 16.836zm33.609-48.527c-6.804 6.804-15.173 11.1-23.958 12.919l-56.363-56.363c1.864-9.002 6.299-17.275 12.95-23.926l263.719-263.723c8.997-8.998 20.96-13.954 33.685-13.954s24.688 4.955 33.686 13.954c18.575 18.575 18.576 48.798.001 67.372zm289.177-230.55-106.059 106.059c-4.165 4.165-10.94 4.165-15.103 0-2.018-2.017-3.128-4.699-3.128-7.552s1.111-5.534 3.128-7.551l38.711-38.712 67.358-67.358c2.016-2.01 4.694-3.118 7.541-3.118 2.853 0 5.535 1.111 7.552 3.128 4.165 4.165 4.165 10.941 0 15.104z"/><path d="m219.105 290.991c-2.492-2.206-6.303-1.975-8.511.519l-7.622 8.613c-2.207 2.493-1.974 6.304.519 8.511 1.147 1.016 2.573 1.514 3.994 1.514 1.666 0 3.326-.687 4.517-2.033l7.622-8.613c2.207-2.494 1.974-6.304-.519-8.511z"/><path d="m261.272 281.298c-2.492-2.206-6.304-1.975-8.511.519l-7.623 8.613c-2.207 2.493-1.974 6.304.519 8.511 1.147 1.016 2.573 1.514 3.994 1.514 1.666 0 3.326-.687 4.517-2.033l7.623-8.613c2.207-2.494 1.975-6.304-.519-8.511z"/></g><g><ellipse cx="272.767" cy="43.718" fill="#8bb6ef" rx="18.637" ry="18.637" transform="matrix(.383 -.924 .924 .383 127.993 278.991)"/><ellipse cx="75.565" cy="123.902" fill="#8bb6ef" rx="7.892" ry="7.892" transform="matrix(.924 -.383 .383 .924 -41.663 38.349)"/><g fill="#b2e7f1"><path d="m144.251 40.388 6.331 17.802c.271.762.807 1.366 1.485 1.671l15.817 7.126c2.234 1.007 2.234 4.567 0 5.574l-15.817 7.126c-.677.305-1.214.909-1.485 1.671l-6.331 17.802c-.895 2.515-4.058 2.515-4.952 0l-6.331-17.802c-.271-.762-.808-1.366-1.485-1.671l-15.816-7.126c-2.234-1.007-2.234-4.567 0-5.574l15.816-7.126c.677-.305 1.214-.909 1.485-1.671l6.331-17.802c.894-2.515 4.057-2.515 4.952 0z"/><path d="m62.021 194.997 8.7 23.999c.372 1.027 1.11 1.842 2.04 2.253l21.733 9.607c3.07 1.357 3.07 6.157 0 7.514l-21.733 9.607c-.93.411-1.668 1.226-2.04 2.253l-8.7 23.999c-1.229 3.391-5.575 3.391-6.805 0l-8.699-23.999c-.373-1.027-1.11-1.842-2.04-2.253l-21.733-9.607c-3.07-1.357-3.07-6.157 0-7.514l21.733-9.607c.931-.411 1.668-1.226 2.04-2.253l8.699-23.999c1.23-3.391 5.576-3.391 6.805 0z"/></g></g></g></svg>