<svg height="512pt" viewBox="-16 0 512 512" width="512pt" xmlns="http://www.w3.org/2000/svg"><g fill-rule="evenodd"><path d="m7.5 80.210938 220.292969 36.367187 244.707031-36.367187v-52.585938c0-11.054688-9.074219-20.125-20.164062-20.125h-424.699219c-11.089844 0-20.136719 9.042969-20.136719 20.125zm0 0" fill="#e6e6e6"/><path d="m184.203125 504.5h268.132813c11.089843 0 20.164062-9.070312 20.164062-20.152344v-404.136718h-465v404.136718c0 11.082032 9.074219 20.152344 20.136719 20.152344zm0 0" fill="#87b6e2"/><path d="m43.996094 484.347656v-404.136718h-36.496094v404.136718c0 11.082032 9.074219 20.152344 20.136719 20.152344h36.523437c-11.085937 0-20.164062-9.070312-20.164062-20.152344zm0 0" fill="#6e90cc"/><path d="m43.996094 80.210938v-52.585938c0-11.082031 9.078125-20.125 20.164062-20.125h-36.523437c-11.089844 0-20.136719 9.042969-20.136719 20.125v52.585938zm0 0" fill="#c5c3d2"/><path d="m351.578125 337.113281h-225.933594c-5.558593 0-10.125 4.535157-10.125 10.089844v17.890625c0 5.554688 4.566407 10.089844 10.125 10.089844h225.933594c5.558594 0 10.125-4.535156 10.125-10.089844v-17.890625c0-5.554687-4.566406-10.089844-10.125-10.089844zm0 0" fill="#e6e6e6"/><path d="m348.144531 412.996094h-225.960937c-5.558594 0-10.097656 4.535156-10.097656 10.09375v17.886718c0 5.554688 4.539062 10.089844 10.097656 10.089844h225.960937c5.558594 0 10.125-4.535156 10.125-10.089844v-17.886718c0-5.558594-4.566406-10.09375-10.125-10.09375zm0 0" fill="#e6e6e6"/><path d="m138.6875 365.09375v-17.890625c0-5.554687 4.539062-10.089844 10.097656-10.089844h-23.140625c-5.558593 0-10.125 4.535157-10.125 10.089844v17.890625c0 5.554688 4.566407 10.089844 10.125 10.089844h23.140625c-5.558594 0-10.097656-4.535156-10.097656-10.089844zm0 0" fill="#c5c3d2"/><path d="m145.351562 412.996094h-23.167968c-5.558594 0-10.097656 4.535156-10.097656 10.09375v17.886718c0 5.554688 4.539062 10.089844 10.097656 10.089844h23.167968c-5.558593 0-10.09375-4.535156-10.09375-10.089844v-17.886718c0-5.558594 4.535157-10.09375 10.09375-10.09375zm0 0" fill="#c5c3d2"/><path d="m170.195312 156.519531c27.988282-39.007812 82.324219-47.933593 121.347657-19.957031 39.019531 27.976562 47.953125 82.289062 19.964843 121.292969-27.992187 39.007812-82.296874 47.9375-121.347656 19.957031-39.023437-27.976562-47.957031-82.289062-19.964844-121.292969zm0 0" fill="#e6e6e6"/><path d="m240.210938 233.734375c-3.316407 0-6.632813-.566406-9.8125-1.589844-23.027344 2.976563-44.011719 15.140625-48.664063 38.808594 2.636719 2.410156 5.445313 4.734375 8.421875 6.859375 33.777344 24.207031 79.007812 20.777344 108.699219-5.839844-4.675781-23.667968-25.492188-36.878906-48.492188-39.855468-3.289062 1.078124-6.71875 1.644531-10.152343 1.617187zm0 0" fill="#ff4d48"/><path d="m259.15625 227.867188c8.195312-5.472657 14.09375-14.257813 14.035156-24.039063l-.113281-16.867187h-26.144531c-12.988282 0-16.675782-3.03125-20.050782-10.65625-3.230468 16.101562-19.652343 10.65625-19.652343 10.65625v16.867187c0 13.097656 10.492187 24.292969 23.171875 28.316406 3.175781 1.023438 6.492187 1.589844 9.8125 1.589844 3.429687.027344 6.859375-.539063 10.148437-1.617187 3.09375-.992188 6.070313-2.4375 8.792969-4.25zm0 0" fill="#fcc392"/><path d="m247.046875 191.355469h26.144531l-.113281-4.394531c-1.132813-46.175782-65.847656-39.796876-65.847656-.820313v5.242187s16.535156 5.441407 19.765625-10.65625c3.375 7.625 7.0625 10.628907 20.050781 10.628907zm0 0" fill="#a39b9b"/><path d="m193.476562 248.671875c-16.617187-28.65625-16.019531-65.621094 4.566407-94.308594 12.617187-17.601562 30.601562-29.054687 50.140625-33.789062-29.496094-2.464844-59.5 10.175781-77.988282 35.941406-25.835937 36.03125-20.191406 85.097656 11.542969 114.4375 1.785157-9.070313 5.953125-16.46875 11.738281-22.28125zm0 0" fill="#c5c3d2"/><path d="m193.476562 248.671875c-5.785156 5.8125-9.953124 13.210937-11.738281 22.28125 2.636719 2.410156 5.445313 4.734375 8.421875 6.859375 21.4375 15.363281 47.472656 19.585938 71.207032 13.832031-15.113282-1.246093-30.113282-6.488281-43.359376-15.988281-10.320312-7.394531-18.546874-16.664062-24.53125-26.984375zm0 0" fill="#bb1c4f"/></g><path d="m452.335938 0h-424.699219c-15.238281 0-27.636719 12.394531-27.636719 27.625v456.722656c0 15.246094 12.398438 27.652344 27.636719 27.652344h424.699219c15.253906 0 27.664062-12.40625 27.664062-27.652344v-456.722656c0-15.230469-12.410156-27.625-27.664062-27.625zm0 497h-424.699219c-6.96875 0-12.636719-5.675781-12.636719-12.652344v-396.636718h120.738281c4.144531 0 7.5-3.359376 7.5-7.5 0-4.144532-3.355469-7.5-7.5-7.5h-120.738281v-45.085938c0-6.960938 5.667969-12.625 12.636719-12.625h424.699219c6.984374 0 12.664062 5.664062 12.664062 12.625v45.085938h-294.097656c-4.140625 0-7.5 3.355468-7.5 7.5 0 4.140624 3.359375 7.5 7.5 7.5h294.097656v396.636718c0 6.976563-5.679688 12.652344-12.664062 12.652344zm0 0"/><path d="m176.285156 276.09375c.246094.261719.515625.511719.800782.734375 2.746093 2.507813 5.636718 4.882813 8.703124 7.082031 16.167969 11.582032 35.1875 17.703125 55.003907 17.703125 23.167969 0 45.351562-8.5625 62.433593-23.550781.410157-.292969.78125-.625 1.121094-.988281 4.886719-4.429688 9.339844-9.394531 13.253906-14.84375 14.707032-20.496094 20.546876-45.488281 16.453126-70.375s-17.640626-46.691407-38.140626-61.390625c-16.15625-11.582032-35.171874-17.703125-54.992187-17.703125-30.40625 0-59.125 14.722656-76.820313 39.382812-14.707031 20.492188-20.550781 45.484375-16.453124 70.375 3.421874 20.800781 13.464843 39.429688 28.636718 53.574219zm18.246094-4.375c-1.515625-1.085938-2.964844-2.234375-4.386719-3.410156 6.515625-20.847656 28.519531-26.808594 39.617188-28.496094 3.34375.902344 6.828125 1.402344 10.386719 1.421875h.308593c3.480469 0 7.011719-.5 10.472657-1.457031 20.164062 3.039062 34.5625 13.855468 39.492187 29.457031-13.9375 11.101563-31.421875 17.378906-49.628906 17.378906-16.664063 0-32.664063-5.152343-46.261719-14.894531zm33.480469-77.398438c4.46875 3.230469 10.449219 4.535157 19.035156 4.535157h18.644531v4.972656c0 6.675781-4 13.328125-10.6875 17.792969-4.539062 3.019531-9.777344 4.65625-14.75 4.613281-2.539062-.011719-5.046875-.433594-7.445312-1.183594-.136719-.046875-.273438-.097656-.414063-.136719-9.8125-3.234374-17.664062-11.980468-17.664062-21.085937v-4.117187c5.328125-.277344 9.867187-2.152344 13.28125-5.390626zm-13.242188-9.632812c.773438-14.75 13.328125-22.457031 25.730469-22.457031 7.015625 0 13.335938 2.492187 17.789062 7.015625 3.59375 3.648437 5.929688 8.621094 6.898438 14.609375h-18.140625c-10.460937 0-11.207031-1.679688-13.191406-6.164063-1.320313-2.988281-4.425781-4.777344-7.675781-4.421875s-5.894532 2.773438-6.535157 5.980469c-.707031 3.527344-2.039062 5.085938-4.875 5.4375zm-38.480469-23.796875c14.886719-20.742187 39.046876-33.128906 64.632813-33.128906 16.667969 0 32.660156 5.152343 46.25 14.894531 17.242187 12.363281 28.636719 30.703125 32.082031 51.636719 3.445313 20.933593-1.46875 41.953125-13.839844 59.191406-1.085937 1.511719-2.222656 2.972656-3.402343 4.394531-6.230469-12.964844-17.671875-23.019531-32.597657-28.714844 7.160157-6.972656 11.28125-16.03125 11.28125-25.335937v-12.472656c0-.011719 0-.019531 0-.03125.171876-13.375-3.878906-24.644531-11.71875-32.605469-7.292968-7.40625-17.40625-11.484375-28.472656-11.484375-19.765625 0-40.769531 13.632813-40.769531 38.90625v17.6875c0 9.535156 4.382813 18.519531 11.320313 25.300781-14.941407 5.488282-26.183594 15.046875-32.359376 27.554688-8.386718-10.488282-14.003906-22.988282-16.246093-36.601563-3.445313-20.933593 1.46875-41.953125 13.839843-59.191406zm0 0"/><path d="m59.285156 34.101562h-.226562c-4.144532 0-7.5 3.359376-7.5 7.5 0 4.140626 3.355468 7.5 7.5 7.5h.226562c4.140625 0 7.5-3.359374 7.5-7.5 0-4.140624-3.359375-7.5-7.5-7.5zm0 0"/><path d="m95.527344 34.101562h-.199219c-4.140625 0-7.5 3.359376-7.5 7.5 0 4.140626 3.359375 7.5 7.5 7.5h.199219c4.140625 0 7.5-3.359374 7.5-7.5 0-4.140624-3.359375-7.5-7.5-7.5zm0 0"/><path d="m131.796875 34.269531h-.226563c-4.144531 0-7.5 3.359375-7.5 7.5 0 4.144531 3.355469 7.5 7.5 7.5h.226563c4.140625 0 7.5-3.355469 7.5-7.5 0-4.140625-3.359375-7.5-7.5-7.5zm0 0"/><path d="m198.667969 51.339844h141.167969c4.144531 0 7.5-3.355469 7.5-7.5 0-4.140625-3.355469-7.5-7.5-7.5h-141.167969c-4.144531 0-7.5 3.359375-7.5 7.5 0 4.144531 3.355469 7.5 7.5 7.5zm0 0"/><path d="m351.578125 329.613281h-225.933594c-9.71875 0-17.625 7.890625-17.625 17.589844v17.890625c0 9.699219 7.90625 17.589844 17.625 17.589844h225.933594c9.71875 0 17.625-7.890625 17.625-17.589844v-17.890625c0-9.699219-7.90625-17.589844-17.625-17.589844zm2.625 35.480469c0 1.402344-1.203125 2.589844-2.625 2.589844h-225.933594c-1.421875 0-2.625-1.1875-2.625-2.589844v-17.890625c0-1.402344 1.203125-2.589844 2.625-2.589844h225.933594c1.421875 0 2.625 1.1875 2.625 2.589844zm0 0"/><path d="m348.144531 405.496094h-225.960937c-9.703125 0-17.597656 7.894531-17.597656 17.59375v17.886718c0 9.699219 7.894531 17.589844 17.597656 17.589844h225.960937c9.71875 0 17.625-7.890625 17.625-17.589844v-17.886718c0-9.699219-7.90625-17.59375-17.625-17.59375zm2.625 35.480468c0 1.40625-1.203125 2.589844-2.625 2.589844h-225.960937c-1.40625 0-2.597656-1.183594-2.597656-2.589844v-17.886718c0-1.40625 1.191406-2.59375 2.597656-2.59375h225.960937c1.421875 0 2.625 1.1875 2.625 2.59375zm0 0"/></svg>