<svg id="Capa_1" enable-background="new 0 0 512 512" height="512" viewBox="0 0 512 512" width="512" xmlns="http://www.w3.org/2000/svg"><g><g><path d="m422.408 502.322h-327.294c-17.897 0-31.399-16.248-28.123-33.843l50.249-223.141c2.522-13.546 14.344-23.369 28.123-23.369h327.294c17.897 0 31.399 16.248 28.122 33.843l-50.249 223.141c-2.522 13.545-14.343 23.369-28.122 23.369z" fill="#bdf4e3"/><path d="m422.408 502.322h-327.294c-17.897 0-31.399-16.248-28.123-33.843l50.249-223.141c2.522-13.546 14.344-23.369 28.123-23.369h327.294c17.897 0 31.399 16.248 28.122 33.843l-50.249 223.141c-2.522 13.545-14.343 23.369-28.122 23.369z" fill="#b1b7e3"/><path d="m406.412 500.855h-327.322c-11.796 0-20.771-10.589-18.837-22.226l41.374-270.287c1.531-9.212 9.499-15.965 18.837-15.965h327.322c11.796 0 20.771 10.589 18.837 22.226l-41.374 270.287c-1.531 9.211-9.499 15.965-18.837 15.965z" fill="#fff"/><path d="m406.412 500.855h-327.322c-11.796 0-20.771-10.589-18.837-22.226l41.374-270.287c1.531-9.212 9.499-15.965 18.837-15.965h327.322c11.796 0 20.771 10.589 18.837 22.226l-41.374 270.287c-1.531 9.211-9.499 15.965-18.837 15.965z" fill="#ffbffc"/><path d="m381.047 500.855h-342.89c-8.347 0-14.728-7.442-13.455-15.691l34.937-298.499c1.025-6.639 6.738-11.538 13.455-11.538h342.889c8.347 0 14.729 7.442 13.455 15.691l-34.937 298.499c-1.024 6.639-6.737 11.538-13.454 11.538z" fill="#fff"/><path d="m365.45 500.855h-324.344c-16.885 0-30.573-13.688-30.573-30.573v-228.778c0-16.885 13.688-30.573 30.573-30.573h324.344c16.885 0 30.573 13.688 30.573 30.573v228.778c0 16.885-13.688 30.573-30.573 30.573z" fill="#bdf4e3"/><path d="m365.45 210.931h-49.096c14.549 0 26.344 11.794 26.344 26.344v197.13c0 14.549-11.795 26.344-26.344 26.344h-279.477c-14.549 0-26.344-11.795-26.344-26.344v35.877c0 16.885 13.688 30.573 30.573 30.573h324.344c16.885 0 30.573-13.688 30.573-30.573v-228.778c0-16.885-13.689-30.573-30.573-30.573z" fill="#b1b7e3"/></g><g><g fill="#440a29"><path d="m502.425 225.839c-7.318-8.807-18.055-13.88-29.494-13.961.102-6.056-1.978-11.977-5.955-16.669-4.788-5.651-11.784-8.891-19.19-8.891h-8.221c-.488-4.758-2.402-9.305-5.582-13.013-4.51-5.26-11.072-8.276-18-8.276h-342.889c-11.782 0-21.638 8.451-23.434 20.095-.019.122-.035.244-.05.366l-1.796 15.343h-6.708c-22.426 0-40.67 18.245-40.67 40.67v228.778c0 22.426 18.245 40.67 40.67 40.67h381.302c18.569 0 34.523-11.736 38.012-29.954l50.211-222.969c.028-.123.053-.246.076-.369 2.112-11.346-.906-22.943-8.282-31.82zm-44.692-22.796c2.481 2.928 3.544 6.779 2.902 10.643l-41.362 270.21c-.574 3.45-2.454 6.376-5.079 8.328h-9.966c.096-.451.182-.906.253-1.367.019-.122.035-.244.05-.366l34.182-292.056h9.073c3.839 0 7.465 1.68 9.947 4.608zm-71.808 134.363-113.515-116.378h93.04c11.29 0 20.476 9.185 20.476 20.476v95.902zm-316.286-149.326c.316-1.663 1.749-2.857 3.455-2.857h342.89c1.407 0 2.276.769 2.669 1.228.393.458 1.021 1.436.807 2.826-.019.122-.035.244-.05.366l-13.29 113.546v-61.685c0-22.426-18.244-40.67-40.67-40.67h-297.304zm-28.533 32.948h90.081l-110.556 115.624v-95.148c0-11.291 9.185-20.476 20.475-20.476zm0 269.73c-11.29 0-20.476-9.185-20.476-20.476v-104.408l137.316-143.61c.372-.389.695-.806.993-1.235h85.47c.316.455.664.897 1.064 1.307l139.47 142.984c.311.319.642.604.982.872v104.09c0 11.29-9.185 20.476-20.476 20.476zm449.777-236.962-50.203 222.938c-.028.123-.053.246-.076.37-1.143 6.139-5.247 11.088-10.664 13.507.574-1.531 1.021-3.133 1.299-4.805l38.84-253.74h2.578c5.52 0 10.709 2.435 14.236 6.68 3.491 4.201 4.941 9.677 3.99 15.05z"/><path d="m243.613 393.203c-3.346 0-6.058 2.713-6.058 6.058v12.892c0 3.346 2.713 6.058 6.058 6.058 3.346 0 6.058-2.713 6.058-6.058v-12.892c0-3.346-2.713-6.058-6.058-6.058z"/><path d="m336.806 385.202c-3.346 0-6.058 2.713-6.058 6.058v12.892c0 3.346 2.713 6.058 6.058 6.058 3.346 0 6.058-2.713 6.058-6.058v-12.892c.001-3.345-2.712-6.058-6.058-6.058z"/><path d="m279.058 414.766c-3.346 0-6.058 2.713-6.058 6.058v12.892c0 3.346 2.713 6.058 6.058 6.058s6.058-2.713 6.058-6.058v-12.892c.001-3.345-2.712-6.058-6.058-6.058z"/></g><path d="m66.499 381.582c-2.494 0-4.993-.918-6.945-2.769-4.047-3.837-4.217-10.228-.381-14.275 4.415-4.657 9.066-9.012 13.564-13.224 5.295-4.957 10.296-9.64 14.882-14.721 3.737-4.139 10.121-4.466 14.261-.73 4.14 3.737 4.466 10.121.73 14.261-5.156 5.712-10.704 10.907-16.07 15.932-4.479 4.194-8.71 8.155-12.711 12.376-1.986 2.094-4.656 3.15-7.33 3.15z" fill="#fff"/><path d="m127.967 320.9c-2.606 0-5.211-1.002-7.187-3.004-3.918-3.968-3.876-10.362.093-14.279l3.676-3.629c3.968-3.918 10.361-3.878 14.279.09 3.919 3.968 3.878 10.361-.09 14.279l-3.678 3.632c-1.967 1.941-4.531 2.911-7.093 2.911z" fill="#fff"/></g><g><ellipse cx="297.785" cy="39.432" fill="#78eac4" rx="18.727" ry="18.727" transform="matrix(.23 -.973 .973 .23 190.991 320.191)"/><ellipse cx="423.338" cy="93.706" fill="#78eac4" rx="7.931" ry="7.931" transform="matrix(.924 -.383 .383 .924 -3.635 169.138)"/><g fill="#bdf4e3"><path d="m148.622 67.465 6.362 17.889c.272.766.812 1.373 1.492 1.679l15.894 7.161c2.245 1.012 2.245 4.589 0 5.601l-15.894 7.161c-.68.306-1.22.913-1.492 1.679l-6.362 17.889c-.899 2.527-4.077 2.527-4.976 0l-6.362-17.889c-.272-.766-.811-1.373-1.492-1.679l-15.894-7.161c-2.245-1.012-2.245-4.589 0-5.601l15.894-7.161c.681-.307 1.22-.914 1.492-1.679l6.362-17.889c.899-2.527 4.078-2.527 4.976 0z"/><path d="m486.569 98.89 6.362 17.889c.272.766.811 1.373 1.492 1.679l15.894 7.161c2.245 1.012 2.245 4.589 0 5.601l-15.894 7.161c-.681.307-1.22.913-1.492 1.679l-6.362 17.889c-.899 2.527-4.077 2.527-4.976 0l-6.362-17.889c-.272-.766-.812-1.373-1.492-1.679l-15.893-7.161c-2.245-1.012-2.245-4.589 0-5.601l15.893-7.161c.681-.307 1.22-.914 1.492-1.679l6.362-17.889c.898-2.528 4.077-2.528 4.976 0z"/><path d="m41.783 3.603 8.742 24.116c.374 1.032 1.115 1.851 2.05 2.264l21.839 9.653c3.085 1.364 3.085 6.187 0 7.55l-21.839 9.654c-.935.413-1.676 1.232-2.05 2.264l-8.742 24.116c-1.235 3.407-5.603 3.407-6.838 0l-8.742-24.116c-.374-1.032-1.115-1.851-2.05-2.264l-21.839-9.653c-3.086-1.364-3.086-6.187 0-7.55l21.839-9.653c.935-.413 1.676-1.232 2.05-2.264l8.742-24.116c1.235-3.408 5.603-3.408 6.838-.001z"/></g></g></g></svg>