<svg id="Capa_1" enable-background="new 0 0 512 512" height="512" viewBox="0 0 512 512" width="512" xmlns="http://www.w3.org/2000/svg"><g><g><path d="m396.266 501.588h-279.595c-14.133 0-25.59-11.457-25.59-25.59v-386.694c0-14.133 11.457-25.59 25.59-25.59h279.595c14.133 0 25.59 11.457 25.59 25.59v386.694c0 14.133-11.457 25.59-25.59 25.59z" fill="#fff"/><path d="m396.266 63.714h-41.648c12.204 0 22.098 9.894 22.098 22.098v333.923c0 12.205-9.894 22.098-22.098 22.098h-241.44c-12.204 0-22.098-9.893-22.098-22.098v56.263c0 14.133 11.457 25.59 25.59 25.59h279.595c14.133 0 25.59-11.457 25.59-25.59v-386.694c.001-14.133-11.456-25.59-25.589-25.59z" fill="#ffbffc"/></g><g fill="#440a29"><path d="m396.266 53.696h-279.595c-19.634 0-35.608 15.974-35.608 35.609v386.693c0 19.635 15.974 35.609 35.608 35.609h279.595c19.634 0 35.608-15.974 35.608-35.609v-386.693c0-19.635-15.974-35.609-35.608-35.609zm15.571 422.302c0 8.587-6.985 15.572-15.571 15.572h-279.595c-8.586 0-15.571-6.985-15.571-15.572v-386.693c0-8.587 6.985-15.572 15.571-15.572h279.595c8.586 0 15.571 6.985 15.571 15.572z"/><path d="m339.041 128.244c2.578.017 5.174.025 7.782.025 5.425 0 10.898-.037 16.348-.111 3.319-.044 5.974-2.772 5.929-6.091-.044-3.32-2.724-5.973-6.091-5.929-7.989.108-16.027.134-23.887.083-.014 0-.027 0-.041 0-3.301 0-5.988 2.665-6.01 5.971-.022 3.321 2.651 6.029 5.97 6.052z"/><path d="m219.171 128.282c7.311.007 14.275.011 20.952.011 19.792 0 37.044-.032 53.202-.098 3.32-.014 6-2.716 5.987-6.035-.014-3.312-2.702-5.987-6.01-5.987-.009 0-.018 0-.025 0-21.587.088-45.128.114-74.093.087-.002 0-.004 0-.006 0-3.317 0-6.008 2.688-6.011 6.005-.004 3.32 2.685 6.014 6.004 6.017z"/><path d="m149.37 128.16c14.602.043 29.205.073 43.806.092h.008c3.317 0 6.007-2.687 6.011-6.003.004-3.32-2.684-6.015-6.003-6.019-14.596-.019-29.191-.049-43.787-.092-.006 0-.012 0-.018 0-3.312 0-6.001 2.68-6.011 5.993-.009 3.32 2.674 6.019 5.994 6.029z"/><path d="m363.09 212.323h-162.206c-3.32 0-6.011 2.691-6.011 6.011s2.691 6.011 6.011 6.011h162.206c3.319 0 6.011-2.691 6.011-6.011 0-3.319-2.691-6.011-6.011-6.011z"/><path d="m363.09 167.357h-221.205c-3.32 0-6.011 2.691-6.011 6.011 0 3.319 2.691 6.011 6.011 6.011h221.205c3.319 0 6.011-2.692 6.011-6.011s-2.691-6.011-6.011-6.011z"/><path d="m149.53 237.77h11.561c7.529 0 13.656-6.126 13.656-13.656v-11.561c0-7.529-6.126-13.656-13.656-13.656h-11.561c-7.53 0-13.657 6.126-13.657 13.656v11.561c.001 7.53 6.127 13.656 13.657 13.656zm-1.634-25.217c0-.901.734-1.634 1.635-1.634h11.561c.901 0 1.634.733 1.634 1.634v11.561c0 .901-.733 1.634-1.634 1.634h-11.562c-.901 0-1.635-.733-1.635-1.634v-11.561z"/><path d="m363.09 254.447h-162.206c-3.32 0-6.011 2.691-6.011 6.011s2.691 6.011 6.011 6.011h162.206c3.319 0 6.011-2.691 6.011-6.011s-2.691-6.011-6.011-6.011z"/><path d="m149.53 279.894h11.561c7.529 0 13.656-6.126 13.656-13.656v-11.561c0-7.529-6.126-13.656-13.656-13.656h-11.561c-7.53 0-13.657 6.126-13.657 13.656v11.561c.001 7.529 6.127 13.656 13.657 13.656zm-1.634-25.217c0-.901.734-1.634 1.635-1.634h11.561c.901 0 1.634.733 1.634 1.634v11.561c0 .901-.733 1.634-1.634 1.634h-11.562c-.901 0-1.635-.733-1.635-1.634v-11.561z"/><path d="m363.09 351.067h-162.206c-3.32 0-6.011 2.691-6.011 6.011s2.691 6.011 6.011 6.011h162.206c3.319 0 6.011-2.691 6.011-6.011s-2.691-6.011-6.011-6.011z"/><path d="m363.09 306.102h-221.205c-3.32 0-6.011 2.691-6.011 6.011s2.691 6.011 6.011 6.011h221.205c3.319 0 6.011-2.691 6.011-6.011s-2.691-6.011-6.011-6.011z"/><path d="m161.092 337.642h-11.562c-7.53 0-13.657 6.126-13.657 13.656v11.561c0 7.529 6.126 13.656 13.657 13.656h11.561c7.529 0 13.656-6.126 13.656-13.656v-11.561c0-7.53-6.126-13.656-13.655-13.656zm1.633 25.217c0 .901-.733 1.634-1.634 1.634h-11.561c-.901 0-1.635-.733-1.635-1.634v-11.561c0-.901.734-1.634 1.635-1.634h11.561c.901 0 1.634.733 1.634 1.634z"/><path d="m363.09 393.19h-162.206c-3.32 0-6.011 2.691-6.011 6.011 0 3.319 2.691 6.011 6.011 6.011h162.206c3.319 0 6.011-2.691 6.011-6.011 0-3.319-2.691-6.011-6.011-6.011z"/><path d="m161.092 379.765h-11.562c-7.53 0-13.657 6.126-13.657 13.656v11.561c0 7.529 6.126 13.656 13.657 13.656h11.561c7.529 0 13.656-6.126 13.656-13.656v-11.561c0-7.529-6.126-13.656-13.655-13.656zm1.633 25.217c0 .901-.733 1.634-1.634 1.634h-11.561c-.901 0-1.635-.733-1.635-1.634v-11.561c0-.901.734-1.634 1.635-1.634h11.561c.901 0 1.634.733 1.634 1.634z"/><path d="m363.09 435.315h-162.206c-3.32 0-6.011 2.691-6.011 6.011s2.691 6.011 6.011 6.011h162.206c3.319 0 6.011-2.691 6.011-6.011 0-3.319-2.691-6.011-6.011-6.011z"/><path d="m161.092 421.889h-11.562c-7.53 0-13.657 6.126-13.657 13.656v11.561c0 7.529 6.126 13.656 13.657 13.656h11.561c7.529 0 13.656-6.126 13.656-13.656v-11.561c0-7.529-6.126-13.656-13.655-13.656zm1.633 25.217c0 .901-.733 1.634-1.634 1.634h-11.561c-.901 0-1.635-.733-1.635-1.634v-11.561c0-.901.734-1.634 1.635-1.634h11.561c.901 0 1.634.733 1.634 1.634z"/></g><g><ellipse cx="91.081" cy="8.262" fill="#a183e2" rx="7.869" ry="7.869" transform="matrix(.924 -.383 .383 .924 3.771 35.484)"/><g fill="#cab4ef"><path d="m30.17 39.245 6.312 17.749c.27.76.805 1.362 1.48 1.666l15.769 7.105c2.228 1.004 2.228 4.553 0 5.557l-15.769 7.104c-.675.304-1.21.906-1.48 1.666l-6.312 17.749c-.892 2.507-4.045 2.507-4.937 0l-6.313-17.749c-.27-.76-.805-1.362-1.48-1.666l-15.769-7.105c-2.228-1.004-2.228-4.553 0-5.557l15.769-7.104c.675-.304 1.21-.906 1.48-1.666l6.312-17.749c.892-2.508 4.046-2.508 4.938 0z"/><path d="m477.328 2.928 8.673 23.927c.371 1.024 1.107 1.836 2.034 2.246l21.668 9.578c3.061 1.353 3.061 6.138 0 7.491l-21.668 9.578c-.928.41-1.663 1.222-2.034 2.246l-8.673 23.927c-1.225 3.381-5.559 3.381-6.784 0l-8.673-23.927c-.371-1.024-1.107-1.836-2.034-2.246l-21.668-9.578c-3.061-1.353-3.061-6.138 0-7.491l21.668-9.578c.928-.41 1.663-1.222 2.034-2.246l8.673-23.927c1.225-3.38 5.559-3.38 6.784 0z"/></g></g></g></svg>