<?xml version="1.0" encoding="UTF-8"?>
<svg version="1.1" xmlns="http://www.w3.org/2000/svg" width="178" height="88">
<path d="M0 0 C58.74 0 117.48 0 178 0 C178 29.04 178 58.08 178 88 C119.26 88 60.52 88 0 88 C0 58.96 0 29.92 0 0 Z " fill="#FBFCFC" transform="translate(0,0)"/>
<path d="M0 0 C15.84 0 31.68 0 48 0 C46.15639224 3.68721552 44.32294209 7.28880599 42.3125 10.875 C41.87550781 11.65617187 41.43851563 12.43734375 40.98828125 13.2421875 C40.66214844 13.82226562 40.33601563 14.40234375 40 15 C42.97 15 45.94 15 49 15 C49 16.32 49 17.64 49 19 C48.01 19 47.02 19 46 19 C45.98582031 19.70125 45.97164062 20.4025 45.95703125 21.125 C45.61699148 27.88903424 44.47817185 32.78244152 40 38 C37.35541621 39.32229189 35.32238699 39.09677194 32.375 39.0625 C31.37210938 39.05347656 30.36921875 39.04445312 29.3359375 39.03515625 C28.56507812 39.02355469 27.79421875 39.01195312 27 39 C27.30292969 39.46897705 27.60585938 39.9379541 27.91796875 40.42114258 C29.28568922 42.54715884 30.64291721 44.67967934 32 46.8125 C32.47695313 47.55048828 32.95390625 48.28847656 33.4453125 49.04882812 C33.89648438 49.76103516 34.34765625 50.47324219 34.8125 51.20703125 C35.23144531 51.8616333 35.65039062 52.51623535 36.08203125 53.19067383 C37 55 37 55 37 58 C19.18 58 1.36 58 -17 58 C-16.00067598 54.00270391 -14.74114021 51.70426254 -12.5625 48.25 C-12.21340576 47.6928833 -11.86431152 47.1357666 -11.50463867 46.56176758 C-10.74553075 45.35115431 -9.98412313 44.14198071 -9.22070312 42.93408203 C-7.94774117 40.91720111 -6.68375452 38.89492525 -5.421875 36.87109375 C-3.74841432 34.1873414 -2.07312735 31.50476225 -0.39453125 28.82421875 C-0.0070874 28.20216553 0.38035645 27.5801123 0.77954102 26.93920898 C1.64333672 25.56670863 2.52016273 24.20236898 3.40600586 22.84399414 C3.86241455 22.13750732 4.31882324 21.43102051 4.7890625 20.703125 C5.20752441 20.06407227 5.62598633 19.42501953 6.05712891 18.76660156 C7.20973178 16.90027238 7.20973178 16.90027238 7.1875 14.0625 C5.7206852 10.27966182 3.64760227 7.23244738 1.27734375 3.953125 C0 2 0 2 0 0 Z " fill="#0691D5" transform="translate(23,17)"/>
<path d="M0 0 C3.1875 2 3.1875 2 5 5 C5.69858341 9.89008387 5.58895954 11.90621799 3.25 16.25 C1.27596558 18.66270874 -0.71692698 20.88000362 -3 23 C-0.36 23.66 2.28 24.32 5 25 C5 25.99 5 26.98 5 28 C-1.18635438 29.48472505 -1.18635438 29.48472505 -4.9375 27.25 C-5.948125 26.5075 -6.95875 25.765 -8 25 C-10.03417613 24.1731307 -12.07566301 23.47301431 -14.16796875 22.80859375 C-16.40283138 21.82220449 -17.53903145 20.96855581 -19 19 C-19.81419771 14.67796714 -20.02636987 9.99768541 -17.98046875 6.015625 C-12.8156492 -0.28826351 -7.73246272 -1.07238534 0 0 Z " fill="#353132" transform="translate(134,33)"/>
<path d="M0 0 C3.3 0.33 6.6 0.66 10 1 C10 2.32 10 3.64 10 5 C9.01 5 8.02 5 7 5 C6.97873047 6.051875 6.97873047 6.051875 6.95703125 7.125 C6.61699148 13.88903424 5.47817185 18.78244152 1 24 C-1.70183055 25.35091528 -4.11808206 25.33858058 -7.125 25.5625 C-8.22070312 25.64628906 -9.31640625 25.73007812 -10.4453125 25.81640625 C-11.28835937 25.87699219 -12.13140625 25.93757813 -13 26 C-14.96618087 21.1595929 -15.08876022 17.49115579 -14.625 12.3125 C-14.51414063 11.00925781 -14.40328125 9.70601562 -14.2890625 8.36328125 C-14.19367187 7.25339844 -14.09828125 6.14351562 -14 5 C-14 4.01 -14 3.02 -14 2 C-10.37 2 -6.74 2 -3 2 C-3.33 2.99 -3.66 3.98 -4 5 C-4.66 5 -5.32 5 -6 5 C-6 6.65 -6 8.3 -6 10 C-4.02 6.7 -2.04 3.4 0 0 Z " fill="#EEF3F6" transform="translate(62,31)"/>
<path d="M0 0 C3.125 -0.625 3.125 -0.625 7 0 C9.53781424 3.05912596 11.25839211 6.44129658 13 10 C13.66 11.32 14.32 12.64 15 14 C15.66 10.37 16.32 6.74 17 3 C16.34 3 15.68 3 15 3 C15 2.01 15 1.02 15 0 C17.97 0 20.94 0 24 0 C24 0.99 24 1.98 24 3 C23.34 3 22.68 3 22 3 C21.91435791 3.57032959 21.82871582 4.14065918 21.74047852 4.72827148 C21.352072 7.29867816 20.95737171 9.86807894 20.5625 12.4375 C20.42779297 13.33533203 20.29308594 14.23316406 20.15429688 15.15820312 C20.02216797 16.01220703 19.89003906 16.86621094 19.75390625 17.74609375 C19.63345947 18.53685303 19.5130127 19.3276123 19.38891602 20.14233398 C19 22 19 22 18 23 C15.67578125 23.4296875 15.67578125 23.4296875 13 23 C10.98046875 20.4453125 10.98046875 20.4453125 9.1875 17.125 C8.58292969 16.03445312 7.97835937 14.94390625 7.35546875 13.8203125 C6 11 6 11 6 9 C5.34 9 4.68 9 4 9 C3.67 12.63 3.34 16.26 3 20 C3.66 20 4.32 20 5 20 C5 20.99 5 21.98 5 23 C2.03 23 -0.94 23 -4 23 C-4 22.01 -4 21.02 -4 20 C-3.34 19.67 -2.68 19.34 -2 19 C-1.52079879 16.35551925 -1.15784457 13.79115787 -0.875 11.125 C-0.78863281 10.39152344 -0.70226562 9.65804687 -0.61328125 8.90234375 C-0.27092114 5.91891996 0 3.00506794 0 0 Z " fill="#332F30" transform="translate(75,33)"/>
<path d="M0 0 C1.4540625 0.0309375 1.4540625 0.0309375 2.9375 0.0625 C4.25722267 5.48233195 5.20694416 10.74249588 5.59375 16.3125 C5.76390625 17.17875 5.76390625 17.17875 5.9375 18.0625 C6.5975 18.3925 7.2575 18.7225 7.9375 19.0625 C7.9375 20.3825 7.9375 21.7025 7.9375 23.0625 C4.3075 23.0625 0.6775 23.0625 -3.0625 23.0625 C-3.0625 22.0725 -3.0625 21.0825 -3.0625 20.0625 C-2.4025 20.0625 -1.7425 20.0625 -1.0625 20.0625 C-1.0625 19.0725 -1.0625 18.0825 -1.0625 17.0625 C-3.7025 17.0625 -6.3425 17.0625 -9.0625 17.0625 C-8.7325 19.0425 -8.4025 21.0225 -8.0625 23.0625 C-11.0325 23.0625 -14.0025 23.0625 -17.0625 23.0625 C-17.0625 18.82899639 -15.01426744 18.01426744 -12.0625 15.0625 C-10.48683279 12.72986831 -9.14819206 10.28866759 -7.8125 7.8125 C-3.55078027 0.0724649 -3.55078027 0.0724649 0 0 Z " fill="#EEF6FB" transform="translate(36.0625,32.9375)"/>
<path d="M0 0 C0.88300781 0.17144531 1.76601562 0.34289063 2.67578125 0.51953125 C2.79171631 1.07415039 2.90765137 1.62876953 3.02709961 2.20019531 C3.55502559 4.7234757 4.08414152 7.24650513 4.61328125 9.76953125 C4.79568359 10.64222656 4.97808594 11.51492187 5.16601562 12.4140625 C5.34326172 13.25839844 5.52050781 14.10273437 5.703125 14.97265625 C5.94663696 16.13522949 5.94663696 16.13522949 6.19506836 17.32128906 C6.64886964 19.39646768 7.16058272 21.45873714 7.67578125 23.51953125 C4.37578125 23.51953125 1.07578125 23.51953125 -2.32421875 23.51953125 C-2.32421875 22.52953125 -2.32421875 21.53953125 -2.32421875 20.51953125 C-1.66421875 20.51953125 -1.00421875 20.51953125 -0.32421875 20.51953125 C-0.32421875 19.52953125 -0.32421875 18.53953125 -0.32421875 17.51953125 C-1.62359375 17.64328125 -2.92296875 17.76703125 -4.26171875 17.89453125 C-5.35806641 17.99894531 -5.35806641 17.99894531 -6.4765625 18.10546875 C-7.08628906 18.24210937 -7.69601563 18.37875 -8.32421875 18.51953125 C-8.65421875 19.17953125 -8.98421875 19.83953125 -9.32421875 20.51953125 C-8.66421875 20.51953125 -8.00421875 20.51953125 -7.32421875 20.51953125 C-7.32421875 21.50953125 -7.32421875 22.49953125 -7.32421875 23.51953125 C-10.29421875 23.51953125 -13.26421875 23.51953125 -16.32421875 23.51953125 C-16.32421875 20.51953125 -16.32421875 20.51953125 -14.96606445 19.08276367 C-14.42425537 18.56689697 -13.88244629 18.05103027 -13.32421875 17.51953125 C-12.52229508 16.20902137 -11.76791612 14.86862941 -11.0546875 13.5078125 C-10.64025391 12.75048828 -10.22582031 11.99316406 -9.79882812 11.21289062 C-8.9384699 9.62142374 -8.0921263 8.02230291 -7.25976562 6.41601562 C-4.04907613 0.63281683 -4.04907613 0.63281683 0 0 Z " fill="#322E2F" transform="translate(155.32421875,32.48046875)"/>
<path d="M0 0 C3.25 0.375 3.25 0.375 6.125 2.375 C8.36721947 5.54048632 8.93147792 7.50743498 8.67578125 11.38671875 C7.59571641 16.4303243 3.91123426 19.97528247 0.25 23.375 C2.89 24.035 5.53 24.695 8.25 25.375 C8.25 26.365 8.25 27.355 8.25 28.375 C3.93607641 29.41034166 1.90995117 29.70497558 -2.125 27.6875 C-4.65932858 25.4548772 -5.51491164 24.66623697 -5.75 21.375 C-5.13125 21.00375 -4.5125 20.6325 -3.875 20.25 C-0.6697003 17.42179438 -0.0136914 14.48453119 0.5078125 10.3125 C0.69487848 7.90298693 0.69487848 7.90298693 0.25 4.375 C-1.59188612 2.32229537 -1.59188612 2.32229537 -3.75 1.375 C-2.75 0.375 -2.75 0.375 0 0 Z " fill="#2F2C2D" transform="translate(130.75,32.625)"/>
<path d="M0 0 C3.3 0 6.6 0 10 0 C10 0.99 10 1.98 10 3 C9.01 3 8.02 3 7 3 C6.97873047 4.051875 6.97873047 4.051875 6.95703125 5.125 C6.61699148 11.88903424 5.47817185 16.78244152 1 22 C-1.47775095 23.23887548 -3.23653707 23.16741669 -6 23.1875 C-7.3303125 23.20876953 -7.3303125 23.20876953 -8.6875 23.23046875 C-11 23 -11 23 -13 21 C-12.74739753 17.21096292 -10.72150557 15.45813407 -8 13 C-7.67 14.65 -7.34 16.3 -7 18 C-4.58380177 18.25030977 -4.58380177 18.25030977 -2 18 C0.18742014 14.7188698 0.54442806 12.66915644 1.125 8.8125 C1.29257812 7.72582031 1.46015625 6.63914062 1.6328125 5.51953125 C1.75398438 4.68808594 1.87515625 3.85664062 2 3 C1.34 3 0.68 3 0 3 C0 2.01 0 1.02 0 0 Z " fill="#3A3738" transform="translate(62,33)"/>
<path d="M0 0 C2.875 0.3125 2.875 0.3125 3.875 1.3125 C4.28716748 7.28892849 3.59323151 10.98476623 0.875 16.3125 C-0.125 17.3125 -0.125 17.3125 -2.625 17.4375 C-5.125 17.3125 -5.125 17.3125 -6.125 16.3125 C-6.27709159 14.37918191 -6.34686331 12.43908716 -6.375 10.5 C-6.40078125 9.44167969 -6.4265625 8.38335937 -6.453125 7.29296875 C-5.94326149 2.66170855 -4.74756022 0.47475602 0 0 Z " fill="#F3F3F3" transform="translate(128.125,35.6875)"/>
<path d="M0 0 C3.19496867 0.38035341 4.42972747 0.96042229 6.625 3.3125 C7.375 6.5 7.375 6.5 7.625 9.3125 C6.635 9.3125 5.645 9.3125 4.625 9.3125 C4.295 8.3225 3.965 7.3325 3.625 6.3125 C3.295 7.6325 2.965 8.9525 2.625 10.3125 C-3.25 9.4375 -3.25 9.4375 -4.375 8.3125 C-4.5625 5.375 -4.5625 5.375 -4.375 2.3125 C-2.375 0.3125 -2.375 0.3125 0 0 Z " fill="#C2C3C4" transform="translate(128.375,62.6875)"/>
<path d="M0 0 C0.66 0.33 1.32 0.66 2 1 C1.47731534 3.76276177 0.89130413 6.3260876 0 9 C-2.97 9 -5.94 9 -9 9 C-9.33 8.34 -9.66 7.68 -10 7 C-9.0625 4.875 -9.0625 4.875 -8 3 C-5.36 3 -2.72 3 0 3 C0 2.01 0 1.02 0 0 Z " fill="#D7D7D8" transform="translate(102,63)"/>
<path d="M0 0 C1.65 0.33 3.3 0.66 5 1 C5.33 3.64 5.66 6.28 6 9 C4.02 9 2.04 9 0 9 C-0.33 8.01 -0.66 7.02 -1 6 C-1.99 6.495 -1.99 6.495 -3 7 C-1.125 2.25 -1.125 2.25 0 0 Z " fill="#D5E9F6" transform="translate(29,39)"/>
<path d="M0 0 C0.66 0.99 1.32 1.98 2 3 C0.43402785 5.80174788 -1.15562929 8.58932982 -2.75 11.375 C-3.1934375 12.1690625 -3.636875 12.963125 -4.09375 13.78125 C-4.53203125 14.54179688 -4.9703125 15.30234375 -5.421875 16.0859375 C-5.81987305 16.7876709 -6.21787109 17.4894043 -6.62792969 18.21240234 C-8.20771939 20.27062658 -9.62316147 21.02364068 -12 22 C-10.43225369 17.49380023 -8.06224207 13.81418636 -5.4375 9.875 C-2.26507011 5.17686034 -2.26507011 5.17686034 0 0 Z " fill="#43A7DD" transform="translate(31,31)"/>
<path d="M0 0 C2.97 0.495 2.97 0.495 6 1 C5.67 3.64 5.34 6.28 5 9 C3.02 9 1.04 9 -1 9 C-0.67 6.03 -0.34 3.06 0 0 Z " fill="#D0D0D2" transform="translate(147,63)"/>
<path d="M0 0 C0.33 0 0.66 0 1 0 C1 2.31 1 4.62 1 7 C2.98 7 4.96 7 7 7 C6.67 7.66 6.34 8.32 6 9 C3.03 9 0.06 9 -3 9 C-3.33 7.68 -3.66 6.36 -4 5 C-2.125 2.25 -2.125 2.25 0 0 Z " fill="#343031" transform="translate(53,46)"/>
<path d="M0 0 C3.3 0 6.6 0 10 0 C10 1.32 10 2.64 10 4 C6.37 4 2.74 4 -1 4 C-0.67 2.68 -0.34 1.36 0 0 Z " fill="#625F60" transform="translate(101,45)"/>
<path d="M0 0 C1.4540625 0.0309375 1.4540625 0.0309375 2.9375 0.0625 C2.9375 2.0425 2.9375 4.0225 2.9375 6.0625 C-0.17507569 6.0625 -2.17015685 5.88888376 -5.0625 5.0625 C-3.9375 0.08035714 -3.9375 0.08035714 0 0 Z " fill="#CACBCC" transform="translate(88.0625,65.9375)"/>
<path d="M0 0 C0.66 0.66 1.32 1.32 2 2 C2.66 1.34 3.32 0.68 4 0 C4.99 0 5.98 0 7 0 C7 1.98 7 3.96 7 6 C4.36 6 1.72 6 -1 6 C-1.33 5.34 -1.66 4.68 -2 4 C-1.0625 1.875 -1.0625 1.875 0 0 Z " fill="#C5C5C7" transform="translate(138,66)"/>
<path d="M0 0 C2.00720923 0.28674418 4.0085944 0.61866701 6 1 C6 1.99 6 2.98 6 4 C6.66 4 7.32 4 8 4 C8.33 3.01 8.66 2.02 9 1 C8.45276317 4.37462715 7.9451 6.08235 6 9 C5.34 8.67 4.68 8.34 4 8 C4.33 6.02 4.66 4.04 5 2 C3.68 2 2.36 2 1 2 C1 3.32 1 4.64 1 6 C1.66 6.33 2.32 6.66 3 7 C1.68 6.67 0.36 6.34 -1 6 C-1.042721 4.33388095 -1.04063832 2.66617115 -1 1 C-0.67 0.67 -0.34 0.34 0 0 Z " fill="#BFBFC1" transform="translate(154,65)"/>
<path d="M0 0 C0.66 0 1.32 0 2 0 C2.66 2.64 3.32 5.28 4 8 C3.01 8 2.02 8 1 8 C1 7.01 1 6.02 1 5 C0.01 5 -0.98 5 -2 5 C-2 5.99 -2 6.98 -2 8 C-2.66 8 -3.32 8 -4 8 C-2.87548273 5.0280615 -1.77706209 2.66559313 0 0 Z " fill="#BEBEC0" transform="translate(69,64)"/>
<path d="M0 0 C0.99 0 1.98 0 3 0 C3 1.98 3 3.96 3 6 C1.68 6.33 0.36 6.66 -1 7 C-1.625 5.1875 -1.625 5.1875 -2 3 C-1.34 2.01 -0.68 1.02 0 0 Z " fill="#F7F7F7" transform="translate(127,64)"/>
<path d="M0 0 C2.31 0 4.62 0 7 0 C6.67 0.99 6.34 1.98 6 3 C5.34 2.67 4.68 2.34 4 2 C4 4.31 4 6.62 4 9 C3.01 9 2.02 9 1 9 C1.33 6.69 1.66 4.38 2 2 C1.34 2 0.68 2 0 2 C0 1.34 0 0.68 0 0 Z " fill="#BFBFC1" transform="translate(77,63)"/>
<path d="M0 0 C0.99 0 1.98 0 3 0 C3 1.65 3 3.3 3 5 C1.68 5.33 0.36 5.66 -1 6 C-1.625 4.125 -1.625 4.125 -2 2 C-1.34 1.34 -0.68 0.68 0 0 Z " fill="#CDCECF" transform="translate(112,66)"/>
<path d="M0 0 C1.32 0.33 2.64 0.66 4 1 C3.67 2.32 3.34 3.64 3 5 C3.66 5.33 4.32 5.66 5 6 C3.02 6 1.04 6 -1 6 C-1.33 5.34 -1.66 4.68 -2 4 C-1.0625 1.875 -1.0625 1.875 0 0 Z " fill="#C8C9CA" transform="translate(94,66)"/>
<path d="M0 0 C0.66 0 1.32 0 2 0 C2 2.31 2 4.62 2 7 C0.68 7 -0.64 7 -2 7 C-1.125 2.25 -1.125 2.25 0 0 Z " fill="#E1E1E1" transform="translate(152,40)"/>
<path d="M0 0 C0.66 0 1.32 0 2 0 C2 2.31 2 4.62 2 7 C0.68 7 -0.64 7 -2 7 C-1.125 2.25 -1.125 2.25 0 0 Z " fill="#259CD9" transform="translate(32,40)"/>
<path d="M0 0 C0.66 0.99 1.32 1.98 2 3 C0.71937515 4.7074998 -0.61767557 6.37373596 -2 8 C-2.66 8 -3.32 8 -4 8 C-2.87548273 5.0280615 -1.77706209 2.66559313 0 0 Z " fill="#4FADDF" transform="translate(23,45)"/>
</svg>
