<?xml version="1.0" encoding="UTF-8"?>
<svg version="1.1" xmlns="http://www.w3.org/2000/svg" width="198" height="118">
<path d="M0 0 C65.34 0 130.68 0 198 0 C198 38.94 198 77.88 198 118 C132.66 118 67.32 118 0 118 C0 79.06 0 40.12 0 0 Z " fill="#FDFDFD" transform="translate(0,0)"/>
<path d="M0 0 C4.17859936 3.46374198 7.38356172 7.14975863 10.25 11.75 C10.66378906 12.36875 11.07757813 12.9875 11.50390625 13.625 C16.16351117 21.9376053 15.63486527 33.34018587 13.33203125 42.3359375 C9.39524852 52.45181286 3.50386831 58.3441207 -5.75 63.75 C-6.39195313 64.16636719 -7.03390625 64.58273438 -7.6953125 65.01171875 C-15.68742909 69.47790155 -26.9040666 69.15999478 -35.6328125 67.0546875 C-37.86161858 66.13054839 -39.74633212 65.0899529 -41.75 63.75 C-42.430625 63.32589844 -43.11125 62.90179688 -43.8125 62.46484375 C-52.90460662 56.28290005 -58.76034452 47.26670844 -61.75 36.75 C-63.22935083 26.74491676 -60.85560827 16.6720796 -54.9375 8.4375 C-53.90199648 7.18550583 -52.83889761 5.95584366 -51.75 4.75 C-51.17894531 4.110625 -50.60789062 3.47125 -50.01953125 2.8125 C-36.96943726 -11.01541416 -14.87564835 -10.79843576 0 0 Z " fill="#C2923C" transform="translate(77.75,21.25)"/>
<path d="M0 0 C4.57348067 3.49603794 8.89674293 7.48098586 11.5 12.6875 C12.26356557 19.16689928 12.08228447 24.52908561 8.17578125 29.91015625 C1.44725985 37.04646683 -8.29814887 40.85616119 -17.5 43.6875 C-12.0814234 43.91327402 -7.72512279 43.15420113 -2.5 41.6875 C-2.5 42.3475 -2.5 43.0075 -2.5 43.6875 C-5.96797398 46.73120056 -9.83291775 49.0184979 -14.5 49.25 C-17.5656352 49.00727917 -19.53841764 48.23288461 -22.17578125 46.68359375 C-26.72970868 44.3245014 -30.63576107 44.18181983 -35.6875 44.1875 C-47.65680818 43.85640684 -58.93948824 41.3392581 -68.5 33.6875 C-73.55892269 28.20314688 -77.02842624 23.77473152 -76.89453125 16.19140625 C-75.82531064 9.4055606 -71.07343244 4.81299655 -65.75 0.875 C-47.49625284 -10.99131226 -18.4002814 -12.01430139 0 0 Z " fill="#6BCDD4" transform="translate(175.5,28.3125)"/>
<path d="M0 0 C1.33332095 2.6666419 0.67102033 4.16680303 0 7 C-0.66 7 -1.32 7 -2 7 C-2 9.31 -2 11.62 -2 14 C-1.34 14.33 -0.68 14.66 0 15 C0 16.98 0 18.96 0 21 C1.2065625 21.433125 1.2065625 21.433125 2.4375 21.875 C5 23 5 23 6 25 C6.66 25 7.32 25 8 25 C8.33 24.01 8.66 23.02 9 22 C14.07320858 19.96418454 19.60499453 19.7704253 25 20 C24.49580302 25.04196983 23.75495562 30.24504438 20 34 C21.65 34 23.3 34 25 34 C24.505 33.505 24.505 33.505 24 33 C24.38859359 29.50265772 24.88596087 26.34211739 26 23 C29.63 23 33.26 23 37 23 C37.66 24.65 38.32 26.3 39 28 C39.33 28.33 39.66 28.66 40 29 C40.04063832 30.66617115 40.042721 32.33388095 40 34 C39.01 34 38.02 34 37 34 C37 34.66 37 35.32 37 36 C40.63 36 44.26 36 48 36 C48 36.66 48 37.32 48 38 C41.78343343 41.63610497 37.60967693 43.15107451 30.3125 43.0625 C29.2596582 43.05573242 29.2596582 43.05573242 28.18554688 43.04882812 C26.45699462 43.03706927 24.72848635 43.01913454 23 43 C32.35867187 44.1542362 39.4108367 44.81703953 47.25 39.125 C50.00784198 36.9100403 52.59727702 34.60294989 55 32 C55 32.66 55 33.32 55 34 C56.98 34 58.96 34 61 34 C61.28875 33.195625 61.5775 32.39125 61.875 31.5625 C63 29 63 29 65 28 C65.495 28.99 65.495 28.99 66 30 C66.86963087 27.00293305 67.11763099 24.35043474 67.09765625 21.234375 C67.09443359 20.34492187 67.09121094 19.45546875 67.08789062 18.5390625 C67.07951172 17.61867188 67.07113281 16.69828125 67.0625 15.75 C67.05798828 14.81414063 67.05347656 13.87828125 67.04882812 12.9140625 C67.03706918 10.60930959 67.02063426 8.30468773 67 6 C71.49531532 12.74297299 70.78707965 21.1071517 70 29 C67.32573564 39.66247645 61.5636976 46.95512095 52.3203125 52.64453125 C51.17175781 53.31548828 51.17175781 53.31548828 50 54 C49.35804687 54.41636719 48.71609375 54.83273438 48.0546875 55.26171875 C40.06257091 59.72790155 28.8459334 59.40999478 20.1171875 57.3046875 C17.88838142 56.38054839 16.00366788 55.3399529 14 54 C13.319375 53.57589844 12.63875 53.15179688 11.9375 52.71484375 C2.84539338 46.53290005 -3.01034452 37.51670844 -6 27 C-7.39440522 17.56941729 -5.30114225 7.95171338 0 0 Z " fill="#CFAA4C" transform="translate(22,31)"/>
<path d="M0 0 C0.70189453 0.00451172 1.40378906 0.00902344 2.12695312 0.01367188 C3.85550538 0.02543073 5.58401365 0.04336546 7.3125 0.0625 C7.3125 0.3925 7.3125 0.7225 7.3125 1.0625 C4.0125 1.3925 0.7125 1.7225 -2.6875 2.0625 C-0.2125 2.5575 -0.2125 2.5575 2.3125 3.0625 C2.3125 4.3825 2.3125 5.7025 2.3125 7.0625 C1.6525 7.7225 0.9925 8.3825 0.3125 9.0625 C1.3025 9.3925 2.2925 9.7225 3.3125 10.0625 C2.9825 10.3925 2.6525 10.7225 2.3125 11.0625 C2.9725 11.3925 3.6325 11.7225 4.3125 12.0625 C3.3125 15.0625 3.3125 15.0625 1.3125 16.0625 C1.84875 17.196875 2.385 18.33125 2.9375 19.5 C5.31226678 24.80533004 7.18735755 30.26144449 9.02978516 35.76928711 C10.73932927 40.77680261 12.86339197 45.3701357 15.3125 50.0625 C12.0125 50.0625 8.7125 50.0625 5.3125 50.0625 C6.3025 49.7325 7.2925 49.4025 8.3125 49.0625 C8.003125 48.175625 7.69375 47.28875 7.375 46.375 C6.3125 43.0625 6.3125 43.0625 5.3125 38.0625 C1.6825 38.0625 -1.9475 38.0625 -5.6875 38.0625 C-5.996875 40.475625 -5.996875 40.475625 -6.3125 42.9375 C-6.42851563 43.84242187 -6.54453125 44.74734375 -6.6640625 45.6796875 C-6.67179687 46.46601562 -6.67953125 47.25234375 -6.6875 48.0625 C-6.0275 48.7225 -5.3675 49.3825 -4.6875 50.0625 C-7.3275 50.0625 -9.9675 50.0625 -12.6875 50.0625 C-12.33816406 49.39863281 -11.98882812 48.73476562 -11.62890625 48.05078125 C-11.17386719 47.16777344 -10.71882813 46.28476562 -10.25 45.375 C-9.79753906 44.50488281 -9.34507813 43.63476562 -8.87890625 42.73828125 C-7.43756151 39.76483612 -7.43756151 39.76483612 -6.6875 35.0625 C-14.6075 36.0525 -14.6075 36.0525 -22.6875 37.0625 C-23.0175 38.3825 -23.3475 39.7025 -23.6875 41.0625 C-25.625 40.6875 -25.625 40.6875 -27.6875 40.0625 C-28.0175 39.4025 -28.3475 38.7425 -28.6875 38.0625 C-29.3475 37.7325 -30.0075 37.4025 -30.6875 37.0625 C-33.06960489 31.7485737 -34.04946676 27.85396822 -33.6875 22.0625 C-33.0275 22.0625 -32.3675 22.0625 -31.6875 22.0625 C-31.64625 20.99 -31.605 19.9175 -31.5625 18.8125 C-30.6875 15.0625 -30.6875 15.0625 -27.875 12.9375 C-26.823125 12.31875 -25.77125 11.7 -24.6875 11.0625 C-24.11 10.258125 -23.5325 9.45375 -22.9375 8.625 C-17.10578611 1.98332585 -8.48552478 -0.1029989 0 0 Z " fill="#B78132" transform="translate(53.6875,15.9375)"/>
<path d="M0 0 C1.16724609 -0.01224609 2.33449219 -0.02449219 3.53710938 -0.03710938 C4.66826172 -0.03904297 5.79941406 -0.04097656 6.96484375 -0.04296875 C7.99085693 -0.04707764 9.01687012 -0.05118652 10.07397461 -0.05541992 C13.33152516 0.2093675 16.0129364 1.039827 19.0625 2.1875 C19.0625 2.8475 19.0625 3.5075 19.0625 4.1875 C18.02416016 4.07921875 18.02416016 4.07921875 16.96484375 3.96875 C-0.6289588 2.29977268 -19.29048665 1.63032314 -33.9375 13.1875 C-38.67775224 18.27459996 -39.28993804 21.6184246 -39.21875 28.42578125 C-38.7040643 33.47970889 -36.1486409 36.10057868 -32.5 39.375 C-27.6466613 42.80784933 -23.20422076 44.9076265 -17.4375 46.375 C-16.78652344 46.55224609 -16.13554688 46.72949219 -15.46484375 46.91210938 C-11.74240708 47.88595897 -8.85200541 48.1875 -4.9375 48.1875 C-11.3725 46.7025 -11.3725 46.7025 -17.9375 45.1875 C-17.9375 44.8575 -17.9375 44.5275 -17.9375 44.1875 C-11.23038042 44.08378166 -4.73659918 44.16763512 1.90625 45.1640625 C5.32755231 45.20125057 7.35791686 43.84175578 9.8125 41.5625 C10.43125 40.881875 10.43125 40.881875 11.0625 40.1875 C11.5575 42.1675 11.5575 42.1675 12.0625 44.1875 C18.29818111 43.64526686 23.30283681 41.63338437 29.0625 39.1875 C25.4325 38.5275 21.8025 37.8675 18.0625 37.1875 C18.0625 36.8575 18.0625 36.5275 18.0625 36.1875 C19.18269531 36.17332031 20.30289063 36.15914062 21.45703125 36.14453125 C22.92972869 36.09763006 24.40238368 36.04938266 25.875 36 C26.61298828 35.99419922 27.35097656 35.98839844 28.11132812 35.98242188 C30.55814662 35.93433485 30.55814662 35.93433485 34.0625 35.1875 C36.58797571 32.20652767 37.10570961 30.01466157 38.0625 26.1875 C31.7925 26.1875 25.5225 26.1875 19.0625 26.1875 C19.0625 25.8575 19.0625 25.5275 19.0625 25.1875 C25.6625 25.1875 32.2625 25.1875 39.0625 25.1875 C37.00846069 20.36606972 37.00846069 20.36606972 34.0625 16.1875 C31.71262738 15.95222227 29.35693961 15.77363583 27 15.625 C25.06447266 15.49931641 25.06447266 15.49931641 23.08984375 15.37109375 C22.09082031 15.31050781 21.09179688 15.24992187 20.0625 15.1875 C23.25012365 13.06241756 25.32762223 12.6854837 29.0625 12.1875 C24.1125 10.2075 24.1125 10.2075 19.0625 8.1875 C19.3925 6.8675 19.7225 5.5475 20.0625 4.1875 C23.55880898 3.02206367 24.84255175 3.5953729 28.09765625 5.109375 C34.56453584 8.65780197 40.70683251 13.47616503 44.0625 20.1875 C44.82606557 26.66689928 44.64478447 32.02908561 40.73828125 37.41015625 C34.00975985 44.54646683 24.26435113 48.35616119 15.0625 51.1875 C20.4810766 51.41327402 24.83737721 50.65420113 30.0625 49.1875 C30.0625 49.8475 30.0625 50.5075 30.0625 51.1875 C26.59452602 54.23120056 22.72958225 56.5184979 18.0625 56.75 C14.9968648 56.50727917 13.02408236 55.73288461 10.38671875 54.18359375 C5.83279132 51.8245014 1.92673893 51.68181983 -3.125 51.6875 C-15.09430818 51.35640684 -26.37698824 48.8392581 -35.9375 41.1875 C-40.99642269 35.70314688 -44.46592624 31.27473152 -44.33203125 23.69140625 C-43.26281064 16.9055606 -38.51093244 12.31299655 -33.1875 8.375 C-22.38782267 1.35439528 -12.63316835 0.00695276 0 0 Z " fill="#4758A6" transform="translate(142.9375,20.8125)"/>
<path d="M0 0 C3.63 0 7.26 0 11 0 C11.66 1.65 12.32 3.3 13 5 C13.495 5.495 13.495 5.495 14 6 C14.04063832 7.66617115 14.042721 9.33388095 14 11 C13.01 11 12.02 11 11 11 C11 11.66 11 12.32 11 13 C14.63 13 18.26 13 22 13 C22 13.66 22 14.32 22 15 C15.78343343 18.63610497 11.60967693 20.15107451 4.3125 20.0625 C3.61060547 20.05798828 2.90871094 20.05347656 2.18554688 20.04882812 C0.45699462 20.03706927 -1.27151365 20.01913454 -3 20 C1.29 20.66 5.58 21.32 10 22 C9.505 23.485 9.505 23.485 9 25 C8.01 25.33 7.02 25.66 6 26 C8.97 26.99 11.94 27.98 15 29 C15 29.66 15 30.32 15 31 C4.99616237 33.87846271 -4.03439499 31.92458594 -13 27 C-18.37087046 23.50795053 -22.30337486 18.82818982 -25 13 C-25 12.01 -25 11.02 -25 10 C-24.01 10.33 -23.02 10.66 -22 11 C-22 11.66 -22 12.32 -22 13 C-19.69 13.66 -17.38 14.32 -15 15 C-15.33 13.35 -15.66 11.7 -16 10 C-15.01 10.33 -14.02 10.66 -13 11 C-13.66 10.34 -14.32 9.68 -15 9 C-15.125 6.375 -15.125 6.375 -15 4 C-6.57142857 0.57142857 -6.57142857 0.57142857 -2 1 C-2.4794463 5.21912747 -3.16625119 7.79663178 -6 11 C-4.35 11 -2.7 11 -1 11 C-1.33 10.67 -1.66 10.34 -2 10 C-1.61140641 6.50265772 -1.11403913 3.34211739 0 0 Z " fill="#E2CF64" transform="translate(48,54)"/>
<path d="M0 0 C0 0.66 0 1.32 0 2 C-1.98 2.33 -3.96 2.66 -6 3 C-5.34 3.66 -4.68 4.32 -4 5 C-4.375 7.625 -4.375 7.625 -5 10 C-5.556875 9.236875 -6.11375 8.47375 -6.6875 7.6875 C-10.19669233 3.60924945 -12.49505061 2.19418702 -17.875 1.5 C-22.04167431 1.62626286 -24.42054766 3.28231897 -27.5546875 5.90625 C-29 7 -29 7 -31 7 C-30.34 5.68 -29.68 4.36 -29 3 C-35.40140935 3.46555704 -40.26769829 5.14711836 -46 8 C-46 8.33 -46 8.66 -46 9 C-42.04 9.33 -38.08 9.66 -34 10 C-34 10.33 -34 10.66 -34 11 C-35.78857422 11.03867187 -35.78857422 11.03867187 -37.61328125 11.078125 C-39.1797242 11.13440439 -40.74612903 11.19175177 -42.3125 11.25 C-43.09818359 11.26417969 -43.88386719 11.27835938 -44.69335938 11.29296875 C-49.26476913 11.4012872 -49.26476913 11.4012872 -52.98046875 13.796875 C-54.19047153 16.23112543 -54.19047153 16.23112543 -55 20 C-48.4 20 -41.8 20 -35 20 C-35 18.02 -35 16.04 -35 14 C-34.67 14.99 -34.34 15.98 -34 17 C-33.34 17 -32.68 17 -32 17 C-31.04738513 21.76307437 -30.91666643 26.1666528 -31 31 C-29.02 31 -27.04 31 -25 31 C-25 31.66 -25 32.32 -25 33 C-26.32 33 -27.64 33 -29 33 C-27.68 35.31 -26.36 37.62 -25 40 C-28.465 40.495 -28.465 40.495 -32 41 C-28.37 41.99 -24.74 42.98 -21 44 C-21 44.33 -21 44.66 -21 45 C-32.08179886 45.37034289 -43.55330256 42.42285533 -52 35 C-56.13484493 30.78525469 -58.15840939 27.68654338 -58.3125 21.75 C-58.23884314 16.614108 -57.59772543 13.86755484 -54 10 C-48.39107618 4.76060527 -42.28616265 2.18690019 -35 0 C-34.28199219 -0.226875 -33.56398438 -0.45375 -32.82421875 -0.6875 C-22.18202069 -3.57351981 -10.6095836 -2.47042279 0 0 Z " fill="#5CC3E1" transform="translate(161,25)"/>
<path d="M0 0 C3.0974374 2.53924196 5.3773586 4.85518892 7.0625 8.5625 C6.4025 8.5625 5.7425 8.5625 5.0625 8.5625 C5.0625 7.9025 5.0625 7.2425 5.0625 6.5625 C4.4025 6.5625 3.7425 6.5625 3.0625 6.5625 C3.5575 8.5425 3.5575 8.5425 4.0625 10.5625 C3.0725 11.0575 3.0725 11.0575 2.0625 11.5625 C2.0625 10.9025 2.0625 10.2425 2.0625 9.5625 C1.0725 9.2325 0.0825 8.9025 -0.9375 8.5625 C-1.5975 7.5725 -2.2575 6.5825 -2.9375 5.5625 C-3.5975 5.5625 -4.2575 5.5625 -4.9375 5.5625 C-3.78576645 8.03050047 -2.88966435 9.61033565 -0.9375 11.5625 C-1.3125 13.6875 -1.3125 13.6875 -1.9375 15.5625 C-2.5975 15.5625 -3.2575 15.5625 -3.9375 15.5625 C-5.2940164 16.87223998 -6.62307638 18.21052142 -7.9375 19.5625 C-12.08821429 23.50035714 -12.08821429 23.50035714 -15.5 23.75 C-20.10843804 21.50486352 -21.52647395 16.69282164 -23.1875 12.125 C-23.435 11.279375 -23.6825 10.43375 -23.9375 9.5625 C-22.4525 8.0775 -22.4525 8.0775 -20.9375 6.5625 C-21.9275 6.2325 -22.9175 5.9025 -23.9375 5.5625 C-24.2675 5.2325 -24.5975 4.9025 -24.9375 4.5625 C-24.6075 3.5725 -24.2775 2.5825 -23.9375 1.5625 C-23.2775 1.5625 -22.6175 1.5625 -21.9375 1.5625 C-21.9375 0.2425 -21.9375 -1.0775 -21.9375 -2.4375 C-23.9175 -2.4375 -25.8975 -2.4375 -27.9375 -2.4375 C-27.6075 -3.0975 -27.2775 -3.7575 -26.9375 -4.4375 C-34.11862137 -4.03854881 -41.3007763 -2.12850316 -46.5078125 3.15625 C-47.65199487 4.62425756 -48.79481162 6.09332923 -49.9375 7.5625 C-52.75 8.9375 -52.75 8.9375 -54.9375 9.5625 C-52.33446986 3.62599758 -47.39968035 -0.86589552 -42 -4.3125 C-27.39051407 -9.67924993 -12.72238615 -9.35289383 0 0 Z " fill="#D1B353" transform="translate(77.9375,21.4375)"/>
<path d="M0 0 C2.64 0 5.28 0 8 0 C8 0.33 8 0.66 8 1 C8.74765625 1.01417969 9.4953125 1.02835938 10.265625 1.04296875 C18.33965318 1.43398844 18.33965318 1.43398844 21.625 4.25 C24.01895867 9.03791735 24.28871886 11.5815725 22.6875 16.6875 C21.71250893 19.51735212 21.14631796 20.85368204 19 23 C16.6171875 23.4140625 16.6171875 23.4140625 13.875 23.625 C12.96492188 23.69976562 12.05484375 23.77453125 11.1171875 23.8515625 C10.41851562 23.90054688 9.71984375 23.94953125 9 24 C10.98 24.33 12.96 24.66 15 25 C10.84137628 29.72755596 4.52958764 31.82554568 -1.625 32.25 C-2.40875 32.1675 -3.1925 32.085 -4 32 C-4.125 26.25 -4.125 26.25 -3 24 C-5.31 24 -7.62 24 -10 24 C-10 23.34 -10 22.68 -10 22 C-7.03 22 -4.06 22 -1 22 C-0.67 19.36 -0.34 16.72 0 14 C-1.65 14 -3.3 14 -5 14 C-5 13.01 -5 12.02 -5 11 C-3.35 11 -1.7 11 0 11 C-0.08378906 10.37351562 -0.16757813 9.74703125 -0.25390625 9.1015625 C-0.35574219 8.28429688 -0.45757812 7.46703125 -0.5625 6.625 C-0.66691406 5.81289063 -0.77132812 5.00078125 -0.87890625 4.1640625 C-1 2 -1 2 0 0 Z " fill="#74CFC8" transform="translate(158,34)"/>
<path d="M0 0 C0.66 0 1.32 0 2 0 C1.34 1.98 0.68 3.96 0 6 C0.71027344 6.19335938 1.42054688 6.38671875 2.15234375 6.5859375 C3.07144531 6.84632812 3.99054688 7.10671875 4.9375 7.375 C5.85402344 7.63023438 6.77054688 7.88546875 7.71484375 8.1484375 C10 9 10 9 11 11 C6.05 11 1.1 11 -4 11 C-4 14.63 -4 18.26 -4 22 C-5.65 22 -7.3 22 -9 22 C-9 22.99 -9 23.98 -9 25 C-7.35 25 -5.7 25 -4 25 C-4.33 27.64 -4.66 30.28 -5 33 C-7.97 33 -10.94 33 -14 33 C-14 33.66 -14 34.32 -14 35 C-11.69 35 -9.38 35 -7 35 C-8.45505431 38.39512672 -10.07968259 40.71110257 -13 43 C-17.92687163 44.27733709 -21.40698597 44.24547352 -26 42 C-30 37.78947368 -30 37.78947368 -30 35 C-28.68 35 -27.36 35 -26 35 C-26 34.34 -26 33.68 -26 33 C-27.98 33 -29.96 33 -32 33 C-33.20272819 30.59454362 -33.10071472 29.05003047 -33.0625 26.375 C-33.05347656 25.55773437 -33.04445312 24.74046875 -33.03515625 23.8984375 C-33.02355469 23.27195312 -33.01195312 22.64546875 -33 22 C-29.55488672 23.50232109 -27.12997125 25.52405659 -24.375 28.0625 C-21.41210833 30.85780458 -21.41210833 30.85780458 -18 33 C-17.76410156 32.34 -17.52820313 31.68 -17.28515625 31 C-15.31722756 26.40617253 -12.72461287 22.18345907 -10.18945312 17.8828125 C-7.16870674 12.76070152 -7.16870674 12.76070152 -6 7 C-6.66 6.01 -7.32 5.02 -8 4 C-5.69 4 -3.38 4 -1 4 C-0.67 2.68 -0.34 1.36 0 0 Z " fill="#EA2C26" transform="translate(162,23)"/>
<path d="M0 0 C4.49531532 6.74297299 3.78707965 15.1071517 3 23 C0.76919332 31.89438009 -3.76407021 39.26206775 -11.375 44.4375 C-12.674375 45.2109375 -12.674375 45.2109375 -14 46 C-14 45.34 -14 44.68 -14 44 C-14.69867188 44.28875 -15.39734375 44.5775 -16.1171875 44.875 C-17.02726562 45.24625 -17.93734375 45.6175 -18.875 46 C-19.77992187 46.37125 -20.68484375 46.7425 -21.6171875 47.125 C-24 48 -24 48 -26 48 C-26 47.34 -26 46.68 -26 46 C-26.721875 46.04125 -27.44375 46.0825 -28.1875 46.125 C-31.20729369 45.99078695 -33.26935729 45.24829381 -36 44 C-35 42 -35 42 -32 41 C-32 40.01 -32 39.02 -32 38 C-30.845 37.79375 -29.69 37.5875 -28.5 37.375 C-21.75376467 35.70040258 -16.63511198 31.02137131 -12 26 C-12 26.66 -12 27.32 -12 28 C-10.02 28 -8.04 28 -6 28 C-5.71125 27.195625 -5.4225 26.39125 -5.125 25.5625 C-4 23 -4 23 -2 22 C-1.505 22.99 -1.505 22.99 -1 24 C-0.13036913 21.00293305 0.11763099 18.35043474 0.09765625 15.234375 C0.09443359 14.34492187 0.09121094 13.45546875 0.08789062 12.5390625 C0.07951172 11.61867188 0.07113281 10.69828125 0.0625 9.75 C0.05798828 8.81414063 0.05347656 7.87828125 0.04882812 6.9140625 C0.03706918 4.60930959 0.02063426 2.30468773 0 0 Z " fill="#D0A749" transform="translate(89,37)"/>
<path d="M0 0 C3.76180547 3.60721072 5.10170559 6.85105832 5.375 12.0625 C5.18691979 18.67849811 3.61237089 25.8542448 -0.68359375 31.02734375 C-7.21368787 36.77101793 -13.38966173 37.94387002 -22 38 C-24.54957705 37.57861748 -26.57795543 36.93578995 -29 36 C-25.6441387 34.88137957 -23.27384601 35.00207514 -19.75 35.125 C-14.22983352 35.18032461 -10.81337349 34.61596385 -6 32 C-5.01 31.67 -4.02 31.34 -3 31 C-3 30.34 -3 29.68 -3 29 C-6.63 29 -10.26 29 -14 29 C-14 28.67 -14 28.34 -14 28 C-11.03 27.67 -8.06 27.34 -5 27 C-5.5775 26.0925 -6.155 25.185 -6.75 24.25 C-10.00055489 18.58474719 -13 11.58097343 -13 5 C-12.34 5.28875 -11.68 5.5775 -11 5.875 C-6.23692116 6.07346162 -3.49471837 2.99175642 0 0 Z " fill="#C89C42" transform="translate(73,38)"/>
<path d="M0 0 C7.92 0 15.84 0 24 0 C22.74835013 3.12912467 21.69858563 5.71373125 20.0546875 8.55078125 C19.70019531 9.16630859 19.34570312 9.78183594 18.98046875 10.41601562 C18.61566406 11.04185547 18.25085938 11.66769531 17.875 12.3125 C17.50246094 12.95767578 17.12992188 13.60285156 16.74609375 14.26757812 C15.83367787 15.84675945 14.91724491 17.42361864 14 19 C9.99024201 17.663414 7.69363149 16.00810629 4.8125 12.9375 C2.19582919 10.07862194 2.19582919 10.07862194 -1 8 C-1.125 2.25 -1.125 2.25 0 0 Z " fill="#ECE930" transform="translate(130,37)"/>
<path d="M0 0 C8.02380183 1.28550346 15.4768794 5.99093173 20.8125 12.0625 C22.6987307 16.7284391 22.83968514 21.05210329 22 26 C18.6272771 33.32609774 12.33215152 37.19739944 5.13671875 40.19140625 C-1.13760799 42.47950253 -6.33544947 43.53746375 -13 43 C-13.66 42.67 -14.32 42.34 -15 42 C-15 41.34 -15 40.68 -15 40 C-14.401875 39.731875 -13.80375 39.46375 -13.1875 39.1875 C-11.02775192 38.01506533 -9.64209744 36.80630718 -8 35 C-7.67 36.32 -7.34 37.64 -7 39 C-0.76431889 38.45776686 4.24033681 36.44588437 10 34 C6.37 33.34 2.74 32.68 -1 32 C-1 31.67 -1 31.34 -1 31 C0.12019531 30.98582031 1.24039063 30.97164062 2.39453125 30.95703125 C3.86722869 30.91013006 5.33988368 30.86188266 6.8125 30.8125 C7.91948242 30.80379883 7.91948242 30.80379883 9.04882812 30.79492188 C11.49564662 30.74683485 11.49564662 30.74683485 15 30 C17.52547571 27.01902767 18.04320961 24.82716157 19 21 C12.73 21 6.46 21 0 21 C0 20.67 0 20.34 0 20 C6.6 20 13.2 20 20 20 C17.94596069 15.17856972 17.94596069 15.17856972 15 11 C12.65012738 10.76472227 10.29443961 10.58613583 7.9375 10.4375 C6.64714844 10.35371094 5.35679687 10.26992188 4.02734375 10.18359375 C3.02832031 10.12300781 2.02929688 10.06242187 1 10 C4.18762365 7.87491756 6.26512223 7.4979837 10 7 C5.05 5.02 5.05 5.02 0 3 C0 2.01 0 1.02 0 0 Z " fill="#5EC7DF" transform="translate(162,26)"/>
<path d="M0 0 C0.66 0 1.32 0 2 0 C2.20625 1.27875 2.4125 2.5575 2.625 3.875 C4.49719696 12.13086854 8.72769341 19.0267956 15.8125 23.75 C26.09211695 29.62406683 35.57303881 30.37461574 47.0625 27.6328125 C49.06661916 27.03623198 49.06661916 27.03623198 51.0625 25.9296875 C53 25 53 25 56 25 C54.76985445 28.69043666 53.95647589 28.96726565 50.5625 30.6875 C42.09789828 34.33889682 32.0481374 34.47094646 23.125 32.30078125 C20.88938219 31.38091767 19.00739119 30.34244286 17 29 C16.319375 28.57589844 15.63875 28.15179688 14.9375 27.71484375 C8.02851582 23.01725792 2.31914658 17.0285002 0.5625 8.6875 C0.10619477 5.70470478 0 3.04304728 0 0 Z " fill="#C49342" transform="translate(19,56)"/>
<path d="M0 0 C0.495 1.485 0.495 1.485 1 3 C-2.63 2.34 -6.26 1.68 -10 1 C-10 1.66 -10 2.32 -10 3 C-8.824375 3.12375 -8.824375 3.12375 -7.625 3.25 C-5 4 -5 4 -3.6875 6.0625 C-3.460625 6.701875 -3.23375 7.34125 -3 8 C-5.64 7.67 -8.28 7.34 -11 7 C-11.33 8.32 -11.66 9.64 -12 11 C-15.875 10.125 -15.875 10.125 -17 9 C-16.67 8.01 -16.34 7.02 -16 6 C-15.34 6 -14.68 6 -14 6 C-14 4.68 -14 3.36 -14 2 C-15.98 2 -17.96 2 -20 2 C-19.67 1.34 -19.34 0.68 -19 0 C-26.18112137 0.39895119 -33.3632763 2.30899684 -38.5703125 7.59375 C-39.71449487 9.06175756 -40.85731162 10.53082923 -42 12 C-44.8125 13.375 -44.8125 13.375 -47 14 C-44.39696986 8.06349758 -39.46218035 3.57160448 -34.0625 0.125 C-23.7975956 -3.64578121 -9.67773102 -6.22139851 0 0 Z " fill="#CBA549" transform="translate(70,17)"/>
<path d="M0 0 C6.93 0 13.86 0 21 0 C21.33 2.64 21.66 5.28 22 8 C16.35098422 9.26920797 10.7603554 9.73432293 5 9 C1.53182098 6.09640826 1.1009007 4.4036028 0 0 Z " fill="#EFEB2D" transform="translate(105,48)"/>
<path d="M0 0 C9.3283989 1.98476572 16.44997349 7.30924898 22 15 C23.99677482 18.99354964 23.49938163 23.6583174 23 28 C20.28661788 35.76953808 13.71138392 39.38160747 6.86328125 43.1875 C4.52008967 44.20926907 3.3608836 43.84317271 1 43 C1.639375 42.62875 2.27875 42.2575 2.9375 41.875 C4.4534375 40.946875 4.4534375 40.946875 6 40 C6.72445312 39.56300781 7.44890625 39.12601563 8.1953125 38.67578125 C12.91664442 35.7074191 16.71393729 33.26788365 19 28 C19.73245333 22.84198653 19.63217661 18.52297093 17.625 13.6875 C12.44738762 8.38661114 5.64650831 5.14834604 -1 2 C-0.67 1.34 -0.34 0.68 0 0 Z " fill="#4352A3" transform="translate(164,24)"/>
<path d="M0 0 C6.6 0 13.2 0 20 0 C18.64661654 6.76691729 18.64661654 6.76691729 16 9 C10.38477407 9.82341398 4.56966268 8.81013275 -1 8 C-0.67 5.36 -0.34 2.72 0 0 Z " fill="#F1EC2A" transform="translate(161,48)"/>
<path d="M0 0 C2.5625 0.375 2.5625 0.375 4.9375 2.625 C6.5625 5.375 6.5625 5.375 6.5625 9.375 C-0.0375 9.375 -6.6375 9.375 -13.4375 9.375 C-13.7675 6.735 -14.0975 4.095 -14.4375 1.375 C-11.71601909 1.10382041 -8.99477269 0.84808087 -6.26953125 0.6171875 C-4.17722248 0.43825903 -2.08756046 0.22773387 0 0 Z " fill="#EFEB2C" transform="translate(174.4375,35.625)"/>
<path d="M0 0 C0.66 1.32 1.32 2.64 2 4 C3.98 4 5.96 4 8 4 C8 4.66 8 5.32 8 6 C6.68 6 5.36 6 4 6 C5.32 8.31 6.64 10.62 8 13 C-0.07984042 13.44340588 -6.1524516 13.6089268 -13 9 C-13.33 8.01 -13.66 7.02 -14 6 C-15.32 5.67 -16.64 5.34 -18 5 C-9.585 4.505 -9.585 4.505 -1 4 C-0.67 2.68 -0.34 1.36 0 0 Z " fill="#69CBD5" transform="translate(128,52)"/>
<path d="M0 0 C4.67239145 2.13206212 8.59287819 4.02502456 12 8 C10.5741914 11.45195767 8.90253666 13.1014256 5.875 15.25 C5.15054688 15.77078125 4.42609375 16.2915625 3.6796875 16.828125 C3.12539063 17.21484375 2.57109375 17.6015625 2 18 C-0.36367369 16.24630662 -1.78125104 14.77137789 -2.59375 11.90625 C-3.17877441 7.9174472 -3.30602144 5.65195871 -1.5625 1.9375 C-1.046875 1.298125 -0.53125 0.65875 0 0 Z " fill="#DABF5B" transform="translate(60,27)"/>
<path d="M0 0 C0.75732422 0.05478516 1.51464844 0.10957031 2.29492188 0.16601562 C3.08060547 0.23884766 3.86628906 0.31167969 4.67578125 0.38671875 C5.47306641 0.44794922 6.27035156 0.50917969 7.09179688 0.57226562 C9.05845078 0.72535844 11.02357114 0.89792584 12.98828125 1.07421875 C12.65828125 3.71421875 12.32828125 6.35421875 11.98828125 9.07421875 C5.38828125 9.07421875 -1.21171875 9.07421875 -8.01171875 9.07421875 C-7.01171875 3.07421875 -7.01171875 3.07421875 -5.69995117 1.20385742 C-3.58447196 -0.2116628 -2.51828732 -0.2082794 0 0 Z " fill="#F0EC2B" transform="translate(114.01171875,35.92578125)"/>
<path d="M0 0 C5.04224455 2.52112228 5.8355896 3.588974 8 9 C0.41 9 -7.18 9 -15 9 C-13.98473081 4.93892324 -13.07020009 3.51465739 -9.80859375 0.98828125 C-6.5534208 -0.79046337 -3.57465966 -0.76905029 0 0 Z " fill="#E8EA35" transform="translate(147,26)"/>
<path d="M0 0 C4.70588235 0.70588235 4.70588235 0.70588235 6 2 C6.07179964 3.51928038 6.08392007 5.04167482 6.0625 6.5625 C6.05347656 7.38878906 6.04445312 8.21507813 6.03515625 9.06640625 C6.02355469 9.70449219 6.01195312 10.34257813 6 11 C0.31302429 11.91397824 -4.31302429 11.91397824 -10 11 C-10 7.7 -10 4.4 -10 1 C-8.02 1 -6.04 1 -4 1 C-3.67 2.65 -3.34 4.3 -3 6 C-2.690625 5.195625 -2.38125 4.39125 -2.0625 3.5625 C-1 1 -1 1 0 0 Z " fill="#393C3C" transform="translate(130,79)"/>
<path d="M0 0 C0.33 0.66 0.66 1.32 1 2 C1.99 2 2.98 2 4 2 C3.68804693 5.0066966 3.12513214 5.89378063 0.77734375 7.88671875 C-4.91075195 11.493613 -9.17776102 14.11762481 -16 14 C-19 13.0625 -19 13.0625 -21 12 C-20 10 -20 10 -17 9 C-17 8.01 -17 7.02 -17 6 C-15.2984375 5.62875 -15.2984375 5.62875 -13.5625 5.25 C-8.77458392 4.06800998 -4.43930767 2.11689209 0 0 Z " fill="#DDBA4F" transform="translate(74,69)"/>
<path d="M0 0 C3.63 0.33 7.26 0.66 11 1 C10.67 1.99 10.34 2.98 10 4 C9.01 4.33 8.02 4.66 7 5 C9.97 5.99 12.94 6.98 16 8 C16 8.66 16 9.32 16 10 C12.61121636 11.02071796 9.46843119 11.1656231 5.9375 11.1875 C4.89464844 11.20167969 3.85179687 11.21585938 2.77734375 11.23046875 C0 11 0 11 -3 9 C-2.67 8.67 -2.34 8.34 -2 8 C-2.66 7.67 -3.32 7.34 -4 7 C-4 6.34 -4 5.68 -4 5 C-4.66 4.67 -5.32 4.34 -6 4 C-4.02 3.67 -2.04 3.34 0 3 C0 2.01 0 1.02 0 0 Z " fill="#E1CC64" transform="translate(47,75)"/>
<path d="M0 0 C2.85470276 3.37142937 4.37979177 7.04465419 5.9375 11.125 C6.19619873 11.78717529 6.45489746 12.44935059 6.72143555 13.1315918 C7.24142218 14.46263489 7.75912179 15.79457394 8.27441406 17.12744141 C9.26973164 19.69611092 10.28941304 22.25478259 11.3125 24.8125 C11.61800781 25.58207031 11.92351562 26.35164063 12.23828125 27.14453125 C12.99203316 29.04575973 12.99203316 29.04575973 14 31 C10.7 31 7.4 31 4 31 C4.99 30.67 5.98 30.34 7 30 C6.731875 29.195625 6.46375 28.39125 6.1875 27.5625 C5.56457892 25.69373677 4.94344498 23.82431134 4.33984375 21.94921875 C2.70707425 16.92599892 0.80530829 12.15034622 -1.42578125 7.359375 C-2.17080663 4.29818229 -1.38621428 2.76263199 0 0 Z " fill="#6C4419" transform="translate(55,35)"/>
<path d="M0 0 C1.67542976 0.28604898 3.34385343 0.61781233 5 1 C5.33 0.67 5.66 0.34 6 0 C8.67058851 -0.14115161 11.32432238 -0.04247107 14 0 C14 0.99 14 1.98 14 3 C13.34 3 12.68 3 12 3 C12 5.64 12 8.28 12 11 C10.68 11 9.36 11 8 11 C8 8.69 8 6.38 8 4 C7.34 4 6.68 4 6 4 C5.34 5.32 4.68 6.64 4 8 C3.01 8 2.02 8 1 8 C1 8.99 1 9.98 1 11 C0.01 11 -0.98 11 -2 11 C-2.05399736 9.54207116 -2.09279177 8.08357288 -2.125 6.625 C-2.15980469 5.40683594 -2.15980469 5.40683594 -2.1953125 4.1640625 C-2 2 -2 2 0 0 Z " fill="#444646" transform="translate(153,79)"/>
<path d="M0 0 C1.33332095 2.6666419 0.67102033 4.16680303 0 7 C-0.66 7 -1.32 7 -2 7 C-2 9.31 -2 11.62 -2 14 C-1.34 14.33 -0.68 14.66 0 15 C0 16.98 0 18.96 0 21 C0.66 21.33 1.32 21.66 2 22 C1.33484375 22.36738281 0.6696875 22.73476563 -0.015625 23.11328125 C-2.32622588 24.88011658 -2.32622588 24.88011658 -2.171875 27.91796875 C-2.03265625 28.99691406 -1.8934375 30.07585938 -1.75 31.1875 C-1.62109375 32.27417969 -1.4921875 33.36085937 -1.359375 34.48046875 C-1.24078125 35.31191406 -1.1221875 36.14335938 -1 37 C-5.3173288 32.6826712 -6.22884342 27.1387524 -6.4375 21.25 C-6.25446356 13.66843818 -4.21987649 6.32981473 0 0 Z " fill="#C99C49" transform="translate(22,31)"/>
<path d="M0 0 C0.66 0 1.32 0 2 0 C1.34 1.98 0.68 3.96 0 6 C0.71027344 6.19335938 1.42054688 6.38671875 2.15234375 6.5859375 C3.53099609 6.97652344 3.53099609 6.97652344 4.9375 7.375 C5.85402344 7.63023438 6.77054688 7.88546875 7.71484375 8.1484375 C10 9 10 9 11 11 C6.05 11 1.1 11 -4 11 C-4 14.63 -4 18.26 -4 22 C-5.32 22 -6.64 22 -8 22 C-7.14322917 12.61197917 -7.14322917 12.61197917 -6.3125 9.0625 C-5.71712371 6.69513761 -5.71712371 6.69513761 -8 4 C-5.69 4 -3.38 4 -1 4 C-0.67 2.68 -0.34 1.36 0 0 Z " fill="#DC943C" transform="translate(162,23)"/>
<path d="M0 0 C0.33 0.99 0.66 1.98 1 3 C0.49210937 3.35191406 -0.01578125 3.70382813 -0.5390625 4.06640625 C-6.81573047 8.56821118 -12.6841338 13.35764154 -15 21 C-16.32 20.34 -17.64 19.68 -19 19 C-17.11009894 14.27524735 -15.1599157 10.04864198 -12 6 C-11.01 6 -10.02 6 -9 6 C-8.67 5.01 -8.34 4.02 -8 3 C-5.07920195 0.92469613 -3.62453269 0 0 0 Z " fill="#A36B26" transform="translate(43,22)"/>
<path d="M0 0 C1.37562854 1.28965176 2.70766393 2.62689293 4 4 C4 4.66 4 5.32 4 6 C5.32 6 6.64 6 8 6 C8.99 7.485 8.99 7.485 10 9 C15.12448237 11.53939317 20.44776093 13.13042748 25.9375 14.6875 C26.71673828 14.91244141 27.49597656 15.13738281 28.29882812 15.36914062 C30.19806614 15.91677367 32.09887345 16.45895949 34 17 C34 17.33 34 17.66 34 18 C21.64103867 18.41302441 10.53552885 14.62989839 1.27734375 6.484375 C0 5 0 5 -0.1875 2.3125 C-0.125625 1.549375 -0.06375 0.78625 0 0 Z " fill="#5FC3DA" transform="translate(106,52)"/>
<path d="M0 0 C0.66 0 1.32 0 2 0 C2 0.66 2 1.32 2 2 C2.928125 2.12375 2.928125 2.12375 3.875 2.25 C6 3 6 3 7.09375 4.65625 C8.21635902 7.5595492 8.42267947 10.14775194 8.625 13.25 C8.69976562 14.32765625 8.77453125 15.4053125 8.8515625 16.515625 C8.92503906 17.74539062 8.92503906 17.74539062 9 19 C8.34 19 7.68 19 7 19 C6.67 19.66 6.34 20.32 6 21 C5.49440092 19.56445975 4.9957251 18.1264798 4.5 16.6875 C4.2215625 15.88699219 3.943125 15.08648437 3.65625 14.26171875 C3 12 3 12 3 9 C2.34 9 1.68 9 1 9 C0.67 6.03 0.34 3.06 0 0 Z " fill="#CB9E46" transform="translate(81,28)"/>
<path d="M0 0 C4.49531532 6.74297299 3.78707965 15.1071517 3 23 C1.07564421 30.67253926 -2.51560485 36.38806078 -8 42 C-8.495 40.515 -8.495 40.515 -9 39 C-8.34 39 -7.68 39 -7 39 C-6.87625 38.2265625 -6.87625 38.2265625 -6.75 37.4375 C-5.91308874 34.71753839 -4.58253255 32.54883327 -3.03515625 30.171875 C0.17186115 23.44318944 0.26290189 16.79819207 0.125 9.5 C0.11597656 8.5821875 0.10695313 7.664375 0.09765625 6.71875 C0.07432432 4.47888444 0.04159235 2.23958817 0 0 Z " fill="#D6B566" transform="translate(89,37)"/>
<path d="M0 0 C1.32 2.97 2.64 5.94 4 9 C4.66 9 5.32 9 6 9 C6 12.3 6 15.6 6 19 C5.34 19.33 4.68 19.66 4 20 C4 18.68 4 17.36 4 16 C2.35 16 0.7 16 -1 16 C-1.13277344 15.08476563 -1.26554687 14.16953125 -1.40234375 13.2265625 C-1.57894531 12.03804687 -1.75554687 10.84953125 -1.9375 9.625 C-2.11152344 8.44164062 -2.28554687 7.25828125 -2.46484375 6.0390625 C-2.83462786 3.09297619 -2.83462786 3.09297619 -4 1 C-2 0 -2 0 0 0 Z " fill="#C3903B" transform="translate(84,38)"/>
<path d="M0 0 C0.33 0.99 0.66 1.98 1 3 C1.66 3 2.32 3 3 3 C4.46845421 8.47332932 3.44038726 11.11922548 1 16 C0.67 16 0.34 16 0 16 C0 13.69 0 11.38 0 9 C-6.93 9 -13.86 9 -21 9 C-21 7.35 -21 5.7 -21 4 C-20.67 4.66 -20.34 5.32 -20 6 C-13.4 6 -6.8 6 0 6 C0 4.02 0 2.04 0 0 Z " fill="#7ACBC0" transform="translate(126,39)"/>
<path d="M0 0 C0 0.33 0 0.66 0 1 C-1.12277344 1.09796875 -2.24554688 1.1959375 -3.40234375 1.296875 C-15.18889132 2.41135565 -15.18889132 2.41135565 -26 7 C-27.11375 7.66 -28.2275 8.32 -29.375 9 C-32.02385014 10.82329769 -32.02385014 10.82329769 -33.5625 13.125 C-35.39450951 15.51457762 -37.18002002 16.0854119 -40 17 C-37.39696986 11.06349758 -32.46218035 6.57160448 -27.0625 3.125 C-18.03987806 -0.18943255 -9.52852765 -0.22597299 0 0 Z " fill="#DDC369" transform="translate(63,14)"/>
<path d="M0 0 C-2.29015544 4.93264249 -2.29015544 4.93264249 -5 7 C-9.716945 7.63569247 -14.26772027 7.40342845 -19 7 C-14.41290699 1.78535681 -6.82871611 -0.71881222 0 0 Z " fill="#E6E938" transform="translate(133,27)"/>
<path d="M0 0 C2.625 0.375 2.625 0.375 5 1 C5.33 2.65 5.66 4.3 6 6 C7.32 6 8.64 6 10 6 C10 6.66 10 7.32 10 8 C9.01 8 8.02 8 7 8 C6.67 8.99 6.34 9.98 6 11 C5.01 11 4.02 11 3 11 C3 8.69 3 6.38 3 4 C2.34 4 1.68 4 1 4 C1 6.31 1 8.62 1 11 C0.01 11 -0.98 11 -2 11 C-2.05399736 9.54207116 -2.09279177 8.08357288 -2.125 6.625 C-2.15980469 5.40683594 -2.15980469 5.40683594 -2.1953125 4.1640625 C-2 2 -2 2 0 0 Z " fill="#272A2A" transform="translate(140,79)"/>
<path d="M0 0 C4.95 0 9.9 0 15 0 C10.42864798 4.57135202 4.82724305 6.80501772 -1.625 7.25 C-2.40875 7.1675 -3.1925 7.085 -4 7 C-2.68 4.69 -1.36 2.38 0 0 Z " fill="#E8EA35" transform="translate(158,59)"/>
<path d="M0 0 C4.95 0 9.9 0 15 0 C15.99 1.98 16.98 3.96 18 6 C11.45336558 6.54555287 6.47621253 5.8277608 1 2 C0.67 1.34 0.34 0.68 0 0 Z " fill="#E5E837" transform="translate(114,59)"/>
<path d="M0 0 C2.64 0.33 5.28 0.66 8 1 C6.54905987 4.38552696 4.8783496 6.68132949 2 9 C-1.25 9.75 -1.25 9.75 -4 10 C-2.68 6.7 -1.36 3.4 0 0 Z " fill="#E7DC35" transform="translate(147,57)"/>
<path d="M0 0 C0.66 0.33 1.32 0.66 2 1 C2 1.99 2 2.98 2 4 C6.02992782 3.44687265 10.02022924 2.8441938 14 2 C13.67 2.66 13.34 3.32 13 4 C12.01 4 11.02 4 10 4 C10 4.66 10 5.32 10 6 C5.4316468 8.35785972 1.02893321 8.42484112 -4 8 C-4.66 7.67 -5.32 7.34 -6 7 C-6 6.34 -6 5.68 -6 5 C-5.38125 4.731875 -4.7625 4.46375 -4.125 4.1875 C-1.7004767 3.04443152 -1.7004767 3.04443152 0 0 Z " fill="#6ECACB" transform="translate(153,61)"/>
<path d="M0 0 C0.66 0.33 1.32 0.66 2 1 C2.2734375 2.85546875 2.2734375 2.85546875 2.375 5.1875 C2.78136103 9.75906156 4.11940736 12.35689755 7 16 C7.86625 17.175625 7.86625 17.175625 8.75 18.375 C9.1625 18.91125 9.575 19.4475 10 20 C9.34 20.33 8.68 20.66 8 21 C4.00108393 18.11189395 1.25150309 15.41961717 -1 11 C-1.46115112 7.20190812 -1.73685053 3.47370107 0 0 Z " fill="#4557A6" transform="translate(101,42)"/>
<path d="M0 0 C4.62 0 9.24 0 14 0 C12.68 2.64 11.36 5.28 10 8 C4.98886765 6.5682479 3.05530451 4.01554307 0 0 Z " fill="#F3DD25" transform="translate(134,48)"/>
<path d="M0 0 C0.66 0 1.32 0 2 0 C2.50559908 1.43554025 3.0042749 2.8735202 3.5 4.3125 C3.7784375 5.11300781 4.056875 5.91351563 4.34375 6.73828125 C5 9 5 9 5 12 C2.03 12 -0.94 12 -4 12 C-2.66666667 8 -1.33333333 4 0 0 Z " fill="#C29840" transform="translate(53,41)"/>
<path d="M0 0 C6.36380479 3.06876809 10.80196415 6.28737867 15 12 C14.01 12.495 14.01 12.495 13 13 C13 12.34 13 11.68 13 11 C12.34 11 11.68 11 11 11 C11.33 12.32 11.66 13.64 12 15 C11.01 15.495 11.01 15.495 10 16 C10 15.34 10 14.68 10 14 C9.01 13.67 8.02 13.34 7 13 C7.66 12.67 8.32 12.34 9 12 C5.68658464 7.79986243 5.68658464 7.79986243 1.6875 4.3125 C1.130625 3.879375 0.57375 3.44625 0 3 C0 2.01 0 1.02 0 0 Z " fill="#D0A84C" transform="translate(70,17)"/>
<path d="M0 0 C1.17175781 -0.01836914 1.17175781 -0.01836914 2.3671875 -0.03710938 C6.98112344 -0.04876073 10.65726671 0.42674436 15 2.1875 C15 2.8475 15 3.5075 15 4.1875 C5.1 3.5275 -4.8 2.8675 -15 2.1875 C-15 1.8575 -15 1.5275 -15 1.1875 C-9.95885883 0.17765601 -5.11744878 0.00422232 0 0 Z " fill="#3D479D" transform="translate(147,20.8125)"/>
<path d="M0 0 C4.70588235 0.70588235 4.70588235 0.70588235 6 2 C6.07179964 3.51928038 6.08392007 5.04167482 6.0625 6.5625 C6.05347656 7.38878906 6.04445312 8.21507813 6.03515625 9.06640625 C6.01775391 10.02353516 6.01775391 10.02353516 6 11 C5.01 11 4.02 11 3 11 C3 8.69 3 6.38 3 4 C2.34 4 1.68 4 1 4 C1 6.31 1 8.62 1 11 C0.34 11 -0.32 11 -1 11 C-1.02688151 9.35425434 -1.04634123 7.70838587 -1.0625 6.0625 C-1.07410156 5.14597656 -1.08570313 4.22945313 -1.09765625 3.28515625 C-1 1 -1 1 0 0 Z " fill="#191C1C" transform="translate(130,79)"/>
<path d="M0 0 C1.98 0 3.96 0 6 0 C5.67 2.64 5.34 5.28 5 8 C2.03 8 -0.94 8 -4 8 C-2.68 5.36 -1.36 2.72 0 0 Z " fill="#EDE52E" transform="translate(152,48)"/>
<path d="M0 0 C1.32 0 2.64 0 4 0 C4 0.66 4 1.32 4 2 C4.97610229 2.07516846 4.97610229 2.07516846 5.97192383 2.15185547 C8.91957011 2.38392045 11.86596009 2.62930221 14.8125 2.875 C15.83666016 2.95363281 16.86082031 3.03226562 17.91601562 3.11328125 C19.39038086 3.23896484 19.39038086 3.23896484 20.89453125 3.3671875 C22.25348511 3.47716064 22.25348511 3.47716064 23.63989258 3.58935547 C26 4 26 4 29 6 C8.84256462 6.78281302 8.84256462 6.78281302 2 2 C1.34 1.34 0.68 0.68 0 0 Z " fill="#D4B05F" transform="translate(34,83)"/>
<path d="M0 0 C5.94 0 11.88 0 18 0 C17.67 0.99 17.34 1.98 17 3 C14.54101345 3.08076963 12.08466258 3.14037143 9.625 3.1875 C8.57699219 3.22520508 8.57699219 3.22520508 7.5078125 3.26367188 C5.4765625 3.29296875 5.4765625 3.29296875 2 3 C1.34 2.01 0.68 1.02 0 0 Z " fill="#7BCDBF" transform="translate(131,45)"/>
<path d="M0 0 C7.34480099 0.39347148 12.23223215 2.64898299 17.73046875 7.5390625 C19 9 19 9 19 11 C16.24215033 9.67916734 13.72822354 8.19726542 11.1875 6.5 C7.51679244 4.16534735 4.22739669 2.96877841 0 2 C0 1.34 0 0.68 0 0 Z " fill="#D8BC58" transform="translate(60,18)"/>
<path d="M0 0 C1.44010481 0.25662245 2.8770687 0.53090821 4.3125 0.8125 C5.11300781 0.96332031 5.91351563 1.11414063 6.73828125 1.26953125 C9 2 9 2 12 5 C7.38 5 2.76 5 -2 5 C-1.34 3.35 -0.68 1.7 0 0 Z " fill="#EAE732" transform="translate(161,29)"/>
<path d="M0 0 C1.07765625 0.11085938 2.1553125 0.22171875 3.265625 0.3359375 C4.08546875 0.43132813 4.9053125 0.52671875 5.75 0.625 C5.75 0.955 5.75 1.285 5.75 1.625 C5.15832031 1.72296875 4.56664062 1.8209375 3.95703125 1.921875 C-1.18365713 2.89466432 -4.29086273 4.0257843 -8.25 7.625 C-8.91 7.625 -9.57 7.625 -10.25 7.625 C-9.59 6.305 -8.93 4.985 -8.25 3.625 C-8.91 2.965 -9.57 2.305 -10.25 1.625 C-6.69181064 -0.63773207 -4.12452049 -0.44831744 0 0 Z " fill="#66CCD9" transform="translate(140.25,24.375)"/>
<path d="M0 0 C1.953125 0.6796875 1.953125 0.6796875 4 2 C4.609375 4.3828125 4.609375 4.3828125 4.75 7.125 C4.80671875 8.03507812 4.8634375 8.94515625 4.921875 9.8828125 C4.94765625 10.58148438 4.9734375 11.28015625 5 12 C4.34 12 3.68 12 3 12 C2.67 12.66 2.34 13.32 2 14 C-0.3992233 9.35150485 -0.19957409 5.08913926 0 0 Z " fill="#C6943C" transform="translate(85,35)"/>
<path d="M0 0 C4.42857143 5.14285714 4.42857143 5.14285714 5 9 C1.41209425 8.70100785 0.21833224 8.23013399 -2.3125 5.5625 C-4 3 -4 3 -4 1 C-2.68 0.67 -1.36 0.34 0 0 Z " fill="#E2D538" transform="translate(136,57)"/>
<path d="M0 0 C5.4042243 -0.2248832 9.81275243 0.5113589 14.9375 2 C15.96327148 2.28617187 15.96327148 2.28617187 17.00976562 2.578125 C18.67544526 3.04404937 20.33806675 3.52088411 22 4 C22 4.33 22 4.66 22 5 C16.5957757 5.2248832 12.18724757 4.4886411 7.0625 3 C6.03672852 2.71382813 6.03672852 2.71382813 4.99023438 2.421875 C3.32455474 1.95595063 1.66193325 1.47911589 0 1 C0 0.67 0 0.34 0 0 Z " fill="#4FACDB" transform="translate(118,65)"/>
<path d="M0 0 C0 0.66 0 1.32 0 2 C0.66 2.33 1.32 2.66 2 3 C0.906875 3.309375 -0.18625 3.61875 -1.3125 3.9375 C-3.55407994 4.58337897 -5.7869351 5.2623117 -8 6 C-9.33106622 6.34227417 -10.66400079 6.67751743 -12 7 C-12.33 6.01 -12.66 5.02 -13 4 C-11.58774074 3.32404685 -10.16997095 2.65959941 -8.75 2 C-7.56664062 1.443125 -7.56664062 1.443125 -6.359375 0.875 C-4 0 -4 0 0 0 Z " fill="#E4C34E" transform="translate(70,74)"/>
<path d="M0 0 C0.33 0 0.66 0 1 0 C1.08117951 2.41734542 1.14056926 4.83194949 1.1875 7.25 C1.21263672 7.93191406 1.23777344 8.61382812 1.26367188 9.31640625 C1.31137459 12.59199289 1.21085076 14.65348556 -0.51171875 17.484375 C-1.00285156 17.98453125 -1.49398438 18.4846875 -2 19 C-2.19818283 12.29481414 -2.30844801 6.34823202 0 0 Z " fill="#D7B872" transform="translate(18,39)"/>
<path d="M0 0 C0.33 0.66 0.66 1.32 1 2 C2.32 1.67 3.64 1.34 5 1 C4.34 3.31 3.68 5.62 3 8 C-0.75 9.125 -0.75 9.125 -3 8 C-1.125 2.25 -1.125 2.25 0 0 Z " fill="#C48B37" transform="translate(80,57)"/>
<path d="M0 0 C-0.33 0.99 -0.66 1.98 -1 3 C-2.8253125 3.2165625 -2.8253125 3.2165625 -4.6875 3.4375 C-9.38414109 4.0022265 -9.38414109 4.0022265 -14 5 C-14.33 5.66 -14.66 6.32 -15 7 C-14.70488433 4.14721517 -14.18767059 3.16421177 -12 1.25 C-7.93726584 -0.4428059 -4.34076193 -0.25533894 0 0 Z " fill="#D6B653" transform="translate(47,53)"/>
<path d="M0 0 C2.31 0 4.62 0 7 0 C7 0.66 7 1.32 7 2 C6.34 2 5.68 2 5 2 C5 4.64 5 7.28 5 10 C4.01 10 3.02 10 2 10 C2 7.36 2 4.72 2 2 C1.34 2 0.68 2 0 2 C0 1.34 0 0.68 0 0 Z " fill="#111313" transform="translate(160,80)"/>
<path d="M0 0 C0 0.99 0 1.98 0 3 C-3.32534757 4.10844919 -5.62182575 3.84454356 -9 3 C-9 2.34 -9 1.68 -9 1 C-9.66 0.67 -10.32 0.34 -11 0 C-6.53464227 -1.86921951 -4.33629181 -2.2956839 0 0 Z " fill="#E3C352" transform="translate(52,79)"/>
<path d="M0 0 C0.66 0 1.32 0 2 0 C0.93846154 7.60769231 0.93846154 7.60769231 -1 11 C-3.625 11.8125 -3.625 11.8125 -6 12 C-4.43358249 7.69235185 -2.31663844 3.93828536 0 0 Z " fill="#DF4236" transform="translate(154,37)"/>
<path d="M0 0 C2.52259061 1.97420135 2.9929808 2.96745642 3.6875 6.1875 C3.790625 7.115625 3.89375 8.04375 4 9 C2.02 8.34 0.04 7.68 -2 7 C-2.33 5.02 -2.66 3.04 -3 1 C-2.01 0.67 -1.02 0.34 0 0 Z " fill="#CB9A41" transform="translate(27,58)"/>
<path d="M0 0 C2.64 0 5.28 0 8 0 C8 0.33 8 0.66 8 1 C9.65 1.33 11.3 1.66 13 2 C13 2.33 13 2.66 13 3 C9.37 3 5.74 3 2 3 C2 3.66 2 4.32 2 5 C1.34 5 0.68 5 0 5 C-0.33 5.99 -0.66 6.98 -1 8 C-1.125 2.25 -1.125 2.25 0 0 Z " fill="#7ECBBB" transform="translate(158,34)"/>
<path d="M0 0 C0.99 0 1.98 0 3 0 C1.36319613 5.66585956 1.36319613 5.66585956 -0.5625 7.4375 C-2.85052707 9.92448594 -2.69227349 12.738099 -3 16 C-3.33 16 -3.66 16 -4 16 C-4.54330269 9.34454208 -3.77304004 5.54165256 0 0 Z " fill="#636DB1" transform="translate(103,35)"/>
<path d="M0 0 C2 1.375 2 1.375 4 3 C4 3.66 4 4.32 4 5 C4.515625 5.2475 5.03125 5.495 5.5625 5.75 C8.77184151 7.39581616 11.87585664 9.1976096 15 11 C15 11.66 15 12.32 15 13 C13.02 12.34 11.04 11.68 9 11 C9 10.34 9 9.68 9 9 C8.2575 8.773125 7.515 8.54625 6.75 8.3125 C3.4574253 6.7410439 2.02502891 5.00004284 0 2 C0 1.34 0 0.68 0 0 Z " fill="#E9DB6D" transform="translate(32,64)"/>
<path d="M0 0 C1.91635217 -0.05423638 3.83314925 -0.09289963 5.75 -0.125 C7.35101563 -0.15980469 7.35101563 -0.15980469 8.984375 -0.1953125 C11.96097068 -0.00252781 13.57897463 0.2917064 16 2 C16.33 2.99 16.66 3.98 17 5 C8.585 3.02 8.585 3.02 0 1 C0 0.67 0 0.34 0 0 Z " fill="#476CA9" transform="translate(125,65)"/>
<path d="M0 0 C0.99 0.33 1.98 0.66 3 1 C3 1.66 3 2.32 3 3 C5.31 3.66 7.62 4.32 10 5 C10 5.66 10 6.32 10 7 C8.68 7.33 7.36 7.66 6 8 C6 7.34 6 6.68 6 6 C4.68 6.33 3.36 6.66 2 7 C0.5393715 4.35261084 0 3.10551666 0 0 Z " fill="#E3CB60" transform="translate(23,64)"/>
<path d="M0 0 C0 0.66 0 1.32 0 2 C-3.73536869 5.27838209 -7.48086017 7.33938825 -12.5 7.3125 C-13.655 7.209375 -14.81 7.10625 -16 7 C-16 6.67 -16 6.34 -16 6 C-13.69 6 -11.38 6 -9 6 C-8.95875 5.38125 -8.9175 4.7625 -8.875 4.125 C-8 2 -8 2 -5.0625 0.75 C-2 0 -2 0 0 0 Z " fill="#7385BE" transform="translate(173,70)"/>
<path d="M0 0 C3.82946843 1.45255699 5.12050295 3.42895561 7 7 C4.17493137 9.9297008 1.21203935 12.50174717 -2 15 C-2.66 14.67 -3.32 14.34 -4 14 C-1.36 11.69 1.28 9.38 4 7 C2.14470719 3.08268982 2.14470719 3.08268982 0 0 Z " fill="#CEA74A" transform="translate(67,30)"/>
<path d="M0 0 C4 0 4 0 5.484375 1.3125 C6.65625 2.875 7.828125 4.4375 9 6 C8.67 6.66 8.34 7.32 8 8 C8.66 8 9.32 8 10 8 C9.67 8.66 9.34 9.32 9 10 C7.68113228 8.90344712 6.37009943 7.79746577 5.0625 6.6875 C4.33160156 6.07261719 3.60070312 5.45773438 2.84765625 4.82421875 C1 3 1 3 0 0 Z " fill="#CEA550" transform="translate(24,73)"/>
<path d="M0 0 C3.75376152 1.25125384 4.24073289 2.5652404 6 6 C6 6.66 6 7.32 6 8 C4.35 8 2.7 8 1 8 C-0.35439668 5.29120665 -0.06501451 2.99066732 0 0 Z " fill="#E9DB32" transform="translate(129,48)"/>
<path d="M0 0 C6.64615385 1.47692308 6.64615385 1.47692308 8.4375 4.125 C8.7159375 5.053125 8.7159375 5.053125 9 6 C2.25 5.125 2.25 5.125 0 4 C0 2.68 0 1.36 0 0 Z " fill="#B59443" transform="translate(58,19)"/>
<path d="M0 0 C1 3 1 3 0.4375 6.5625 C0.293125 7.696875 0.14875 8.83125 0 10 C0.66 10.66 1.32 11.32 2 12 C-0.64 12 -3.28 12 -6 12 C-4.02 8.04 -2.04 4.08 0 0 Z " fill="#88692E" transform="translate(47,54)"/>
<path d="M0 0 C0.66 0 1.32 0 2 0 C2.25 5.625 2.25 5.625 0 9 C-2.625 9.1875 -2.625 9.1875 -5 9 C-5 8.01 -5 7.02 -5 6 C-3.35 6 -1.7 6 0 6 C0 4.02 0 2.04 0 0 Z " fill="#6ACBD5" transform="translate(158,39)"/>
<path d="M0 0 C0.7425 0.185625 1.485 0.37125 2.25 0.5625 C4.92229373 1.17472428 4.92229373 1.17472428 7.1875 0.4375 C7.785625 0.293125 8.38375 0.14875 9 0 C9.66 0.66 10.32 1.32 11 2 C10.34 2 9.68 2 9 2 C9 2.66 9 3.32 9 4 C5.14354879 4.22036864 2.50776784 3.60355101 -1 2 C-0.67 1.34 -0.34 0.68 0 0 Z " fill="#D4AF49" transform="translate(54,79)"/>
<path d="M0 0 C0.66 2.97 1.32 5.94 2 9 C1.01 9 0.02 9 -1 9 C-1 7.68 -1 6.36 -1 5 C-1.66 5 -2.32 5 -3 5 C-3.33 3.68 -3.66 2.36 -4 1 C-2 0 -2 0 0 0 Z " fill="#AE7E31" transform="translate(84,38)"/>
<path d="M0 0 C3.34373475 0.55728913 6.03312999 1.35173889 9 3 C8.67 3.99 8.34 4.98 8 6 C5.36 5.01 2.72 4.02 0 3 C0 2.01 0 1.02 0 0 Z " fill="#68C4D0" transform="translate(162,26)"/>
<path d="M0 0 C0.33 0 0.66 0 1 0 C1.63019694 9.99562363 1.63019694 9.99562363 -1 14.1875 C-1.66 14.785625 -2.32 15.38375 -3 16 C-2.85691406 15.29488281 -2.71382812 14.58976562 -2.56640625 13.86328125 C-1.99522944 10.97588399 -1.46094689 8.08390614 -0.9375 5.1875 C-0.67259766 3.72376953 -0.67259766 3.72376953 -0.40234375 2.23046875 C-0.26957031 1.49441406 -0.13679687 0.75835937 0 0 Z " fill="#53BBE4" transform="translate(183,41)"/>
<path d="M0 0 C6.75 1.75 6.75 1.75 9 4 C9 4.66 9 5.32 9 6 C5.08788267 4.84414715 2.1254959 3.64465038 -1 1 C-0.67 0.67 -0.34 0.34 0 0 Z " fill="#4A5CA9" transform="translate(164,24)"/>
<path d="M0 0 C0.66 0.66 1.32 1.32 2 2 C-0.31 4.97 -2.62 7.94 -5 11 C-5.33 10.01 -5.66 9.02 -6 8 C-5.34 8 -4.68 8 -4 8 C-3.8453125 7.13375 -3.8453125 7.13375 -3.6875 6.25 C-2.90207202 3.67950842 -1.69495803 2.06342716 0 0 Z " fill="#E4CF78" transform="translate(86,68)"/>
<path d="M0 0 C1.9375 0.625 1.9375 0.625 4 2 C4.75 5.125 4.75 5.125 5 8 C3.02 6.35 1.04 4.7 -1 3 C-0.67 2.01 -0.34 1.02 0 0 Z " fill="#BD9D47" transform="translate(73,26)"/>
<path d="M0 0 C3.46941546 0.45822468 6.67395049 0.89131683 10 2 C10 2.66 10 3.32 10 4 C6.04 3.67 2.08 3.34 -2 3 C-1.34 2.01 -0.68 1.02 0 0 Z " fill="#5063AC" transform="translate(152,21)"/>
<path d="M0 0 C-0.33 0.99 -0.66 1.98 -1 3 C-2.7421875 3.765625 -2.7421875 3.765625 -4.875 4.25 C-5.92300781 4.50523438 -5.92300781 4.50523438 -6.9921875 4.765625 C-9 5 -9 5 -12 4 C-10.56570999 3.32645501 -9.12742943 2.66140299 -7.6875 2 C-6.88699219 1.62875 -6.08648437 1.2575 -5.26171875 0.875 C-3 0 -3 0 0 0 Z " fill="#C08C39" transform="translate(75,81)"/>
<path d="M0 0 C-6 4 -6 4 -9.1875 3.625 C-10.115625 3.41875 -11.04375 3.2125 -12 3 C-4.82142857 -1.78571429 -4.82142857 -1.78571429 0 0 Z " fill="#6373B5" transform="translate(129,23)"/>
<path d="M0 0 C0.99 0.33 1.98 0.66 3 1 C0.34345343 4.73884332 -1.58110387 6.64978174 -6 8 C-4.55746343 4.63408134 -2.66735273 2.48952921 0 0 Z " fill="#D1A952" transform="translate(29,23)"/>
<path d="M0 0 C2.875 -0.125 2.875 -0.125 6 0 C8 2 8 2 8.125 4.625 C8.08375 5.40875 8.0425 6.1925 8 7 C6.68 6.67 5.36 6.34 4 6 C4.99 6 5.98 6 7 6 C6.10664203 3.64214682 6.10664203 3.64214682 2.9375 2.875 C1.968125 2.58625 0.99875 2.2975 0 2 C0 1.34 0 0.68 0 0 Z " fill="#DDB74E" transform="translate(26,65)"/>
<path d="M0 0 C0.33 0.66 0.66 1.32 1 2 C-1.97 2.66 -4.94 3.32 -8 4 C-8 3.01 -8 2.02 -8 1 C-2.25 -1.125 -2.25 -1.125 0 0 Z " fill="#4D62AC" transform="translate(166,67)"/>
<path d="M0 0 C0.99 0 1.98 0 3 0 C3.33 1.98 3.66 3.96 4 6 C2.68 6 1.36 6 0 6 C0 4.02 0 2.04 0 0 Z " fill="#B28133" transform="translate(83,48)"/>
<path d="M0 0 C0.66 0.33 1.32 0.66 2 1 C-0.475 5.455 -0.475 5.455 -3 10 C-3.33 10 -3.66 10 -4 10 C-4.25 7.25 -4.25 7.25 -4 4 C-2 1.625 -2 1.625 0 0 Z " fill="#5BBFDC" transform="translate(109,33)"/>
<path d="M0 0 C0.33 0.99 0.66 1.98 1 3 C-0.258125 2.87625 -1.51625 2.7525 -2.8125 2.625 C-3.87404297 2.52058594 -3.87404297 2.52058594 -4.95703125 2.4140625 C-7 2 -7 2 -10 0 C-6.30581799 -1.231394 -3.7943739 -0.64432764 0 0 Z " fill="#5A66AE" transform="translate(133,69)"/>
<path d="M0 0 C0.66 0 1.32 0 2 0 C1.1875 1.9375 1.1875 1.9375 0 4 C-0.99 4.33 -1.98 4.66 -3 5 C-1.125 1.125 -1.125 1.125 0 0 Z M-5 5 C-4.34 5.33 -3.68 5.66 -3 6 C-4.65 7.32 -6.3 8.64 -8 10 C-6.125 6.125 -6.125 6.125 -5 5 Z " fill="#D6B452" transform="translate(70,35)"/>
<path d="M0 0 C2.99324263 1.0975223 3.84610901 1.67682892 5.25 4.625 C5.4975 5.40875 5.745 6.1925 6 7 C5.01 7 4.02 7 3 7 C0.64276511 4.46815512 0 3.52809907 0 0 Z " fill="#57BCDF" transform="translate(177,34)"/>
<path d="M0 0 C-2.98646769 1.99097846 -5.59687262 2.94124926 -9 4 C-9.66 3.34 -10.32 2.68 -11 2 C-7.36576791 -0.32590854 -4.22911669 -0.16265833 0 0 Z " fill="#5EC1DA" transform="translate(124,28)"/>
<path d="M0 0 C3.63 0 7.26 0 11 0 C7.99382731 3.00617269 5.17618402 2.59585316 1 3 C0.67 2.01 0.34 1.02 0 0 Z " fill="#CA9F49" transform="translate(59,85)"/>
<path d="M0 0 C2.91517292 1.07401108 4.77810176 1.77810176 7 4 C6.01 4.66 5.02 5.32 4 6 C1 4 1 4 0.3125 1.875 C0.209375 1.25625 0.10625 0.6375 0 0 Z " fill="#C2A64E" transform="translate(65,21)"/>
<path d="M0 0 C3.3 0.33 6.6 0.66 10 1 C6.3558226 3.4294516 4.28758728 3.16179575 0 3 C0 2.01 0 1.02 0 0 Z " fill="#55C1E7" transform="translate(151,66)"/>
<path d="M0 0 C0.66 0.33 1.32 0.66 2 1 C0.02 3.31 -1.96 5.62 -4 8 C-4.66 7.67 -5.32 7.34 -6 7 C-4.02 4.69 -2.04 2.38 0 0 Z " fill="#B0752D" transform="translate(38,31)"/>
<path d="M0 0 C2.97 0.33 5.94 0.66 9 1 C9.33 1.99 9.66 2.98 10 4 C6.7 3.34 3.4 2.68 0 2 C0 1.34 0 0.68 0 0 Z " fill="#C89A3F" transform="translate(61,16)"/>
<path d="M0 0 C0.66 0 1.32 0 2 0 C3.125 5.75 3.125 5.75 2 8 C1.34 8 0.68 8 0 8 C0 5.36 0 2.72 0 0 Z " fill="#515353" transform="translate(122,82)"/>
<path d="M0 0 C7.42857143 -0.28571429 7.42857143 -0.28571429 11 2 C6.70700357 3.26264601 4.12168689 2.62950412 0 1 C0 0.67 0 0.34 0 0 Z " fill="#4DA2D4" transform="translate(118,65)"/>
<path d="M0 0 C1.98 0.99 1.98 0.99 4 2 C4 2.99 4 3.98 4 5 C3.01 5.33 2.02 5.66 1 6 C0.67 4.02 0.34 2.04 0 0 Z " fill="#D8B956" transform="translate(21,59)"/>
<path d="M0 0 C0.66 0 1.32 0 2 0 C1.67 1.98 1.34 3.96 1 6 C0.01 6 -0.98 6 -2 6 C-1.49396008 3.83125748 -1.00016187 2.00032373 0 0 Z " fill="#EB3925" transform="translate(154,37)"/>
</svg>
