<?xml version="1.0" encoding="UTF-8"?>
<svg version="1.1" xmlns="http://www.w3.org/2000/svg" width="195" height="129">
<path d="M0 0 C64.35 0 128.7 0 195 0 C195 42.57 195 85.14 195 129 C130.65 129 66.3 129 0 129 C0 86.43 0 43.86 0 0 Z " fill="#FBFCFB" transform="translate(0,0)"/>
<path d="M0 0 C3.31201908 -0.14723105 6.62318059 -0.23469907 9.9375 -0.3125 C10.86369141 -0.35439453 11.78988281 -0.39628906 12.74414062 -0.43945312 C19.65441653 -0.56068604 24.41139139 0.87829829 30 5 C35.25608586 10.6502923 35.40955842 14.74465139 35.33984375 22.3203125 C34.52234141 31.17188957 29.25067218 37.97306552 23 44 C15.31847368 50.17861899 7.10130768 51.47657953 -2.5 51.25 C-3.40492188 51.24484375 -4.30984375 51.2396875 -5.2421875 51.234375 C-11.84493731 51.15506269 -11.84493731 51.15506269 -13 50 C-12.46955305 45.06372309 -11.46408676 40.26028001 -10.3125 35.4375 C-10.14314941 34.72440674 -9.97379883 34.01131348 -9.79931641 33.27661133 C-8.25727415 26.88727562 -6.58547672 20.53359376 -4.875 14.1875 C-4.62145752 13.23866943 -4.36791504 12.28983887 -4.10668945 11.31225586 C-3.86265381 10.41901611 -3.61861816 9.52577637 -3.3671875 8.60546875 C-3.15175293 7.81293701 -2.93631836 7.02040527 -2.71435547 6.20385742 C-1.99963205 3.99886483 -1.09065261 2.04184376 0 0 Z " fill="#229048" transform="translate(139,31)"/>
<path d="M0 0 C0.65073486 -0.00145523 1.30146973 -0.00291046 1.97192383 -0.00440979 C3.34363293 -0.00275458 4.71536132 0.00876479 6.08691406 0.02954102 C8.18114461 0.05850585 10.27284258 0.0501437 12.3671875 0.03710938 C13.70313725 0.04334736 15.03907903 0.05173878 16.375 0.0625 C17.58542969 0.07224854 18.79585937 0.08199707 20.04296875 0.09204102 C23.40579983 0.52414392 24.82438317 1.10530239 27.1875 3.49609375 C28.52061352 9.99371006 27.28798198 16.690936 24.1875 22.49609375 C21.84919608 25.96583505 20.03385424 27.90859845 16.1875 29.49609375 C13.95105707 29.74014208 11.7523117 29.80854149 9.50390625 29.859375 C5.95297924 30.83543082 4.46070523 32.64787877 2.1875 35.49609375 C1.06344226 38.94366111 1.06344226 38.94366111 0.5625 42.62109375 C-0.46125763 48.90989061 -0.46125763 48.90989061 -1.95703125 51.40625 C-4.8834255 53.12512157 -7.52374467 52.85364682 -10.875 52.80859375 C-12.12410156 52.80472656 -13.37320312 52.80085938 -14.66015625 52.796875 C-17.8125 52.49609375 -17.8125 52.49609375 -19.8125 50.49609375 C-20.31928996 44.82004618 -19.35339725 40.54916534 -17.59765625 35.17578125 C-16.78648246 32.40729758 -16.30389603 29.72267278 -15.875 26.87109375 C-15.08752407 21.85988326 -14.09782193 16.93208419 -12.9375 11.99609375 C-12.78804932 11.31337402 -12.63859863 10.6306543 -12.48461914 9.92724609 C-10.64249739 2.34558986 -7.74208276 -0.01185223 0 0 Z " fill="#0691D7" transform="translate(37.8125,30.50390625)"/>
<path d="M0 0 C0.65073486 -0.0038269 1.30146973 -0.00765381 1.97192383 -0.01159668 C3.34360304 -0.01431076 4.71533444 -0.00698453 6.08691406 0.00976562 C8.18151685 0.03118881 10.27269084 0.00995363 12.3671875 -0.015625 C13.70313254 -0.01298163 15.03907545 -0.00785643 16.375 0 C17.58542969 0.00451172 18.79585937 0.00902344 20.04296875 0.01367188 C23.75209968 0.624181 24.92701618 1.58891307 27.1875 4.53125 C28.92010673 11.07948426 26.16835341 17.75896197 23.1875 23.53125 C20.7866925 27.07026417 19.33256322 28.29655032 15.1875 29.53125 C12.62606458 30.01075071 10.06685436 30.46806839 7.4921875 30.87109375 C4.82267852 31.63574971 3.8139877 32.29356661 2.1875 34.53125 C1.50532208 36.79139441 1.50532208 36.79139441 1.1875 39.28125 C-0.55319149 49.27194149 -0.55319149 49.27194149 -3.8125 52.53125 C-6.12151696 52.68304378 -8.43617069 52.75306122 -10.75 52.78125 C-12.01714844 52.80703125 -13.28429687 52.8328125 -14.58984375 52.859375 C-15.65332031 52.75109375 -16.71679688 52.6428125 -17.8125 52.53125 C-20.97930044 47.78104934 -19.66437823 43.0066286 -18.8125 37.53125 C-18.16414068 35.28084003 -17.38709865 33.12607151 -16.56640625 30.93359375 C-15.65349047 28.02456159 -15.2356117 25.1749209 -14.8125 22.15625 C-11.64982137 0.04342319 -11.64982137 0.04342319 0 0 Z " fill="#ADCE28" transform="translate(80.8125,30.46875)"/>
<path d="M0 0 C1.12535156 0.00580078 1.12535156 0.00580078 2.2734375 0.01171875 C3.02367188 0.00785156 3.77390625 0.00398438 4.546875 0 C10.14682697 0.01010822 10.14682697 0.01010822 11.2734375 1.13671875 C11.50921365 6.01018519 10.97592437 10.26287137 9.84765625 14.99609375 C9.39422852 16.91808594 9.39422852 16.91808594 8.93164062 18.87890625 C8.60809695 20.21484957 8.28452913 21.55078704 7.9609375 22.88671875 C7.64841475 24.20687192 7.33656088 25.52718363 7.02539062 26.84765625 C2.00348566 48.04164652 2.00348566 48.04164652 -0.7265625 52.13671875 C-3.9140625 52.53515625 -3.9140625 52.53515625 -7.7265625 52.51171875 C-8.9846875 52.51945312 -10.2428125 52.5271875 -11.5390625 52.53515625 C-12.5909375 52.40367188 -13.6428125 52.2721875 -14.7265625 52.13671875 C-18.02160766 47.19415101 -16.31564234 42.09511238 -15.1953125 36.46875 C-14.58622191 33.78222543 -13.9435709 31.10584573 -13.28466797 28.43115234 C-12.58420836 25.55148507 -11.90787267 22.66642654 -11.23046875 19.78125 C-10.68777165 17.48300875 -10.14480008 15.1848323 -9.6015625 12.88671875 C-9.33577393 11.75419678 -9.06998535 10.6216748 -8.79614258 9.45483398 C-8.54372803 8.39594971 -8.29131348 7.33706543 -8.03125 6.24609375 C-7.80421387 5.28670898 -7.57717773 4.32732422 -7.34326172 3.33886719 C-6.16219289 -0.87856783 -4.03365725 0.00728097 0 0 Z " fill="#0390D6" transform="translate(120.7265625,30.86328125)"/>
<path d="M0 0 C6.93 0 13.86 0 21 0 C20.01 0.33 19.02 0.66 18 1 C17.83564453 1.87398437 17.83564453 1.87398437 17.66796875 2.765625 C10.51842459 39.7339997 10.51842459 39.7339997 -1.375 50.0625 C-5.09656794 51.39163141 -8.05549979 51.26296668 -12 51 C-12.33 50.67 -12.66 50.34 -13 50 C-12.46955305 45.06372309 -11.46408676 40.26028001 -10.3125 35.4375 C-10.14314941 34.72440674 -9.97379883 34.01131348 -9.79931641 33.27661133 C-8.25727415 26.88727562 -6.58547672 20.53359376 -4.875 14.1875 C-4.62145752 13.23866943 -4.36791504 12.28983887 -4.10668945 11.31225586 C-3.86265381 10.41901611 -3.61861816 9.52577637 -3.3671875 8.60546875 C-3.15175293 7.81293701 -2.93631836 7.02040527 -2.71435547 6.20385742 C-2 4 -2 4 0 0 Z " fill="#ADCE28" transform="translate(139,31)"/>
<path d="M0 0 C2.1640625 1.1953125 2.1640625 1.1953125 4 3 C5.33311352 9.49761631 4.10048198 16.19484225 1 22 C-1.34286775 25.47651343 -3.1568619 27.39578627 -7 29 C-9.26402255 29.35076406 -11.49655852 29.49976428 -13.78125 29.65625 C-16.18585229 30.02879402 -17.89107702 30.81133432 -20 32 C-19.25990255 21.08356267 -16.90237537 10.02881338 -9 2 C-5.51131349 -0.32579101 -4.10281481 -0.41865457 0 0 Z " fill="#1771A8" transform="translate(61,31)"/>
<path d="M0 0 C2.375 1.4375 2.375 1.4375 4 4 C5.3609116 10.81844484 3.10941875 16.97875099 0 23 C-2.92342821 27.30940583 -5.32186482 28.46008795 -10.44140625 29.4921875 C-12.18980272 29.82303399 -13.94111869 30.13891382 -15.6953125 30.4375 C-18.25480466 30.92316127 -18.25480466 30.92316127 -21 33 C-19.10365636 21.26497937 -17.12166875 10.27863461 -8.5625 1.5 C-5.37051562 -0.36847866 -3.64050926 -0.61966115 0 0 Z " fill="#239048" transform="translate(104,31)"/>
<path d="M0 0 C0.74362793 0.01047363 1.48725586 0.02094727 2.25341797 0.03173828 C3.46191406 0.04140625 3.46191406 0.04140625 4.69482422 0.05126953 C5.95746094 0.07640625 5.95746094 0.07640625 7.24560547 0.10205078 C8.51984375 0.11558594 8.51984375 0.11558594 9.81982422 0.12939453 C11.9202043 0.15299431 14.02043991 0.18886595 16.12060547 0.22705078 C14.96156407 15.38609218 14.96156407 15.38609218 12.12060547 18.22705078 C9.2579298 18.30030246 6.41988647 18.31943283 3.55810547 18.28955078 C2.75179687 18.28503906 1.94548828 18.28052734 1.11474609 18.27587891 C-0.88333209 18.26405596 -2.88137236 18.24611992 -4.87939453 18.22705078 C-4.97044628 12.8020605 -4.97067897 7.57434454 -3.87939453 2.22705078 C-1.87939453 0.22705078 -1.87939453 0.22705078 0 0 Z " fill="#D27D46" transform="translate(120.87939453125,8.77294921875)"/>
<path d="M0 0 C0.33 0 0.66 0 1 0 C0.98428955 0.74572266 0.9685791 1.49144531 0.95239258 2.25976562 C0.88962412 5.67309843 0.85087661 9.08630931 0.8125 12.5 C0.78736328 13.67304687 0.76222656 14.84609375 0.73632812 16.0546875 C0.679665 22.77871137 1.01544421 27.92971705 4 34 C6.1385485 36.1385485 7.13275314 36.42655063 10 37 C9.67 37.99 9.34 38.98 9 40 C6.70890403 40.08075665 4.41700733 40.13907731 2.125 40.1875 C0.21074219 40.23970703 0.21074219 40.23970703 -1.7421875 40.29296875 C-2.81726563 40.19628906 -3.89234375 40.09960938 -5 40 C-7.95181138 35.57228294 -6.83680686 32.10248084 -6 27 C-5.33470119 23.80819835 -4.59876908 20.64158748 -3.83203125 17.47265625 C-2.44242121 11.67282841 -1.23344837 5.83482312 0 0 Z " fill="#1872A9" transform="translate(111,43)"/>
<path d="M0 0 C0.66 0 1.32 0 2 0 C2 2.64 2 5.28 2 8 C1.01 8 0.02 8 -1 8 C-1 7.01 -1 6.02 -1 5 C-1.66 5 -2.32 5 -3 5 C-3 5.99 -3 6.98 -3 8 C-9.75 8.125 -9.75 8.125 -12 7 C-12 7.99 -12 8.98 -12 10 C-13.65 10 -15.3 10 -17 10 C-17 9.34 -17 8.68 -17 8 C-18.65 8 -20.3 8 -22 8 C-21.67 6.35 -21.34 4.7 -21 3 C-19.35492782 2.80593522 -17.70890406 2.61992065 -16.0625 2.4375 C-14.68771484 2.28087891 -14.68771484 2.28087891 -13.28515625 2.12109375 C-12.53105469 2.08113281 -11.77695313 2.04117188 -11 2 C-10.67 2.33 -10.34 2.66 -10 3 C-8.30858344 2.91036938 -6.62040398 2.75422324 -4.9375 2.5625 C-4.01839844 2.46066406 -3.09929687 2.35882813 -2.15234375 2.25390625 C-1.08693359 2.12822266 -1.08693359 2.12822266 0 2 C0 1.34 0 0.68 0 0 Z " fill="#6E6A68" transform="translate(142,93)"/>
<path d="M0 0 C2.5 0.3125 2.5 0.3125 5 1 C5.33 1.66 5.66 2.32 6 3 C6.33 2.67 6.66 2.34 7 2 C8.68608966 1.92794489 10.37500659 1.91613932 12.0625 1.9375 C12.98160156 1.94652344 13.90070313 1.95554687 14.84765625 1.96484375 C15.55792969 1.97644531 16.26820313 1.98804687 17 2 C17 3.65 17 5.3 17 7 C16.67 6.01 16.34 5.02 16 4 C15.34 4 14.68 4 14 4 C14 5.32 14 6.64 14 8 C9.05 8 4.1 8 -1 8 C-1 1 -1 1 0 0 Z " fill="#868281" transform="translate(121,104)"/>
<path d="M0 0 C1.8125 1 1.8125 1 3.125 3.875 C3.8125 7 3.8125 7 2.8125 10 C0.5025 10.33 -1.8075 10.66 -4.1875 11 C-4.5175 10.34 -4.8475 9.68 -5.1875 9 C-5.8475 9 -6.5075 9 -7.1875 9 C-7.1875 6.69 -7.1875 4.38 -7.1875 2 C-4.70410864 0.82728741 -2.76682125 0 0 0 Z " fill="#EDCCB7" transform="translate(128.1875,12)"/>
<path d="M0 0 C5.94 0 11.88 0 18 0 C18 1.65 18 3.3 18 5 C17.67 4.01 17.34 3.02 17 2 C16.34 2 15.68 2 15 2 C15 3.32 15 4.64 15 6 C13.741875 6.020625 12.48375 6.04125 11.1875 6.0625 C10.47980469 6.07410156 9.77210937 6.08570312 9.04296875 6.09765625 C7 6 7 6 4 5 C4 4.01 4 3.02 4 2 C3.34 2 2.68 2 2 2 C2 2.99 2 3.98 2 5 C1.34 5 0.68 5 0 5 C0 3.35 0 1.7 0 0 Z " fill="#898584" transform="translate(32,106)"/>
<path d="M0 0 C2.64 0 5.28 0 8 0 C8 1.32 8 2.64 8 4 C8.66 4 9.32 4 10 4 C10 2.68 10 1.36 10 0 C12.64 0 15.28 0 18 0 C18 1.65 18 3.3 18 5 C17.67 4.01 17.34 3.02 17 2 C16.34 2 15.68 2 15 2 C15 3.32 15 4.64 15 6 C13.741875 6.020625 12.48375 6.04125 11.1875 6.0625 C10.47980469 6.07410156 9.77210937 6.08570312 9.04296875 6.09765625 C7 6 7 6 4 5 C4 4.01 4 3.02 4 2 C3.34 2 2.68 2 2 2 C2 2.99 2 3.98 2 5 C1.34 5 0.68 5 0 5 C0 3.35 0 1.7 0 0 Z " fill="#9D9A99" transform="translate(67,106)"/>
<path d="M0 0 C0.66 0 1.32 0 2 0 C2 2.64 2 5.28 2 8 C-2 8 -6 8 -10 8 C-11.125 4.25 -11.125 4.25 -10 2 C-2.58823529 0.70588235 -2.58823529 0.70588235 0 2 C0 1.34 0 0.68 0 0 Z " fill="#888483" transform="translate(115,104)"/>
<path d="M0 0 C0.66 0 1.32 0 2 0 C2 2.64 2 5.28 2 8 C-0.64 8 -3.28 8 -6 8 C-6 7.01 -6 6.02 -6 5 C-6.66 5 -7.32 5 -8 5 C-8 5.99 -8 6.98 -8 8 C-8.66 8 -9.32 8 -10 8 C-10 6.35 -10 4.7 -10 3 C-9.04287109 2.80083984 -9.04287109 2.80083984 -8.06640625 2.59765625 C-7.24011719 2.42105469 -6.41382813 2.24445313 -5.5625 2.0625 C-4.73878906 1.88847656 -3.91507813 1.71445313 -3.06640625 1.53515625 C-1.02338796 1.19247006 -1.02338796 1.19247006 0 0 Z " fill="#585352" transform="translate(60,93)"/>
<path d="M0 0 C0.66 0.33 1.32 0.66 2 1 C1.67 3.31 1.34 5.62 1 8 C-0.65 8.33 -2.3 8.66 -4 9 C-4 8.34 -4 7.68 -4 7 C-4.66 7 -5.32 7 -6 7 C-6 5.68 -6 4.36 -6 3 C-6.66 3 -7.32 3 -8 3 C-8.33 3.99 -8.66 4.98 -9 6 C-9.33 4.35 -9.66 2.7 -10 1 C-8.906875 1.020625 -7.81375 1.04125 -6.6875 1.0625 C-3.05615809 1.18544452 -3.05615809 1.18544452 0 0 Z " fill="#9A9796" transform="translate(162,105)"/>
<path d="M0 0 C3.63 0 7.26 0 11 0 C10.67 1.65 10.34 3.3 10 5 C6.7 5 3.4 5 0 5 C0 3.35 0 1.7 0 0 Z " fill="#706C6B" transform="translate(68,96)"/>
<path d="M0 0 C0 2.64 0 5.28 0 8 C-2.64 8 -5.28 8 -8 8 C-8 6.35 -8 4.7 -8 3 C-2.25 0 -2.25 0 0 0 Z " fill="#7C7877" transform="translate(93,93)"/>
<path d="M0 0 C0.66 0 1.32 0 2 0 C2 2.64 2 5.28 2 8 C-0.97 8 -3.94 8 -7 8 C-7 6.35 -7 4.7 -7 3 C-4.69 3 -2.38 3 0 3 C0 2.01 0 1.02 0 0 Z " fill="#65605F" transform="translate(35,93)"/>
<path d="M0 0 C3.3 0 6.6 0 10 0 C10 1.65 10 3.3 10 5 C9.67 4.01 9.34 3.02 9 2 C8.34 2 7.68 2 7 2 C7 3.32 7 4.64 7 6 C4.36 6 1.72 6 -1 6 C-1 5.67 -1 5.34 -1 5 C0.65 5 2.3 5 4 5 C3.67 4.34 3.34 3.68 3 3 C2.01 3.33 1.02 3.66 0 4 C0 2.68 0 1.36 0 0 Z " fill="#BCBAB9" transform="translate(128,106)"/>
<path d="M0 0 C1.65 0.99 3.3 1.98 5 3 C4.875 4.875 4.875 4.875 4 7 C0.9375 8.25 0.9375 8.25 -2 9 C-2 8.34 -2 7.68 -2 7 C-2.66 6.67 -3.32 6.34 -4 6 C-3.34 6 -2.68 6 -2 6 C-1.855625 5.195625 -1.71125 4.39125 -1.5625 3.5625 C-1 1 -1 1 0 0 Z " fill="#EFD4C2" transform="translate(125,14)"/>
<path d="M0 0 C3.71599191 -0.20086443 4.77208445 -0.1519437 8 2 C8.33 1.34 8.66 0.68 9 0 C9 2.97 9 5.94 9 9 C8.01 9.33 7.02 9.66 6 10 C6.33 8.35 6.66 6.7 7 5 C6.34 5 5.68 5 5 5 C5 4.01 5 3.02 5 2 C3.68 2 2.36 2 1 2 C1.33 3.65 1.66 5.3 2 7 C1.34 7 0.68 7 0 7 C0 4.69 0 2.38 0 0 Z " fill="#7C7877" transform="translate(94,104)"/>
<path d="M0 0 C0.66 0 1.32 0 2 0 C2 2.64 2 5.28 2 8 C1.01 8 0.02 8 -1 8 C-1 7.01 -1 6.02 -1 5 C-1.66 5 -2.32 5 -3 5 C-3 5.99 -3 6.98 -3 8 C-3.66 8 -4.32 8 -5 8 C-5.38218767 6.34385343 -5.71395102 4.67542976 -6 3 C-5 2 -5 2 -2.4375 1.9375 C-1.2309375 1.9684375 -1.2309375 1.9684375 0 2 C0 1.34 0 0.68 0 0 Z " fill="#767271" transform="translate(142,93)"/>
<path d="M0 0 C2 0 4 0 6 0 C5.67 2.31 5.34 4.62 5 7 C3.02 7 1.04 7 -1 7 C-0.67 4.69 -0.34 2.38 0 0 Z " fill="#5C5756" transform="translate(113,94)"/>
<path d="M0 0 C2.64 0 5.28 0 8 0 C8 1.32 8 2.64 8 4 C8.66 4 9.32 4 10 4 C10.33 3.01 10.66 2.02 11 1 C11 2.32 11 3.64 11 5 C8.69 5 6.38 5 4 5 C4 4.01 4 3.02 4 2 C3.34 2 2.68 2 2 2 C2 2.99 2 3.98 2 5 C1.34 5 0.68 5 0 5 C0 3.35 0 1.7 0 0 Z " fill="#777372" transform="translate(67,106)"/>
<path d="M0 0 C2.31 0 4.62 0 7 0 C7 1.65 7 3.3 7 5 C6.67 4.01 6.34 3.02 6 2 C5.34 2 4.68 2 4 2 C4 3.32 4 4.64 4 6 C2.02 6 0.04 6 -2 6 C-1.34 5.67 -0.68 5.34 0 5 C0 3.35 0 1.7 0 0 Z " fill="#A5A3A2" transform="translate(43,106)"/>
<path d="M0 0 C2.97 0 5.94 0 9 0 C9 1.65 9 3.3 9 5 C7.02 5 5.04 5 3 5 C2.67 4.01 2.34 3.02 2 2 C1.01 3.485 1.01 3.485 0 5 C0 3.35 0 1.7 0 0 Z " fill="#595452" transform="translate(101,96)"/>
<path d="M0 0 C0.33 0 0.66 0 1 0 C1.2472999 6.80074725 1.11442126 13.66572032 -2.625 19.5625 C-3.07875 20.036875 -3.5325 20.51125 -4 21 C-3.35401634 16.12689995 -2.49028264 11.36868161 -1.4375 6.5625 C-1.03337891 4.70818359 -1.03337891 4.70818359 -0.62109375 2.81640625 C-0.31365234 1.42228516 -0.31365234 1.42228516 0 0 Z " fill="#3788B8" transform="translate(111,43)"/>
<path d="M0 0 C1.0326802 2.78823655 1.04509293 3.8677274 0.0625 6.75 C-0.288125 7.4925 -0.63875 8.235 -1 9 C-1.99 9 -2.98 9 -4 9 C-4 6.69 -4 4.38 -4 2 C-2.68 1.34 -1.36 0.68 0 0 Z " fill="#827E7D" transform="translate(90,105)"/>
<path d="M0 0 C0 2.64 0 5.28 0 8 C-1.32 8 -2.64 8 -4 8 C-4 7.01 -4 6.02 -4 5 C-4.66 4.67 -5.32 4.34 -6 4 C-6.33 3.34 -6.66 2.68 -7 2 C-2.25 0 -2.25 0 0 0 Z " fill="#888583" transform="translate(62,93)"/>
<path d="M0 0 C0.66 0 1.32 0 2 0 C2 1.65 2 3.3 2 5 C2.66 5 3.32 5 4 5 C4 3.35 4 1.7 4 0 C4.66 0 5.32 0 6 0 C6 2.31 6 4.62 6 7 C4.02 7 2.04 7 0 7 C0 4.69 0 2.38 0 0 Z " fill="#5A5554" transform="translate(21,94)"/>
<path d="M0 0 C0.66 0 1.32 0 2 0 C2 2.64 2 5.28 2 8 C1.01 8 0.02 8 -1 8 C-1.625 5.6875 -1.625 5.6875 -2 3 C-1.34 2.01 -0.68 1.02 0 0 Z " fill="#A6A4A3" transform="translate(115,104)"/>
<path d="M0 0 C0.66 0 1.32 0 2 0 C2 2.31 2 4.62 2 7 C1.34 7 0.68 7 0 7 C0 6.01 0 5.02 0 4 C-0.66 4 -1.32 4 -2 4 C-2.33 4.99 -2.66 5.98 -3 7 C-3.33 6.01 -3.66 5.02 -4 4 C-3.67 3.34 -3.34 2.68 -3 2 C-2.01 2 -1.02 2 0 2 C0 1.34 0 0.68 0 0 Z " fill="#6E6A69" transform="translate(143,104)"/>
<path d="M0 0 C1.65 0 3.3 0 5 0 C5 1.65 5 3.3 5 5 C3.35 5 1.7 5 0 5 C0 3.35 0 1.7 0 0 Z " fill="#595452" transform="translate(94,96)"/>
<path d="M0 0 C1.65 0 3.3 0 5 0 C5 1.65 5 3.3 5 5 C3.35 5 1.7 5 0 5 C0 3.35 0 1.7 0 0 Z " fill="#534E4D" transform="translate(68,96)"/>
<path d="M0 0 C1.32 0 2.64 0 4 0 C4.625 1.875 4.625 1.875 5 4 C4.34 4.66 3.68 5.32 3 6 C0.875 5.625 0.875 5.625 -1 5 C-0.67 3.35 -0.34 1.7 0 0 Z " fill="#BCBAB9" transform="translate(95,106)"/>
<path d="M0 0 C2.31 0.33 4.62 0.66 7 1 C6.67 2.32 6.34 3.64 6 5 C5.34 5 4.68 5 4 5 C4 4.01 4 3.02 4 2 C3.34 2 2.68 2 2 2 C2 2.99 2 3.98 2 5 C1.34 5 0.68 5 0 5 C0 3.35 0 1.7 0 0 Z " fill="#7D7A78" transform="translate(32,106)"/>
<path d="M0 0 C0.33 1.32 0.66 2.64 1 4 C1.66 4 2.32 4 3 4 C3 2.68 3 1.36 3 0 C3.66 0 4.32 0 5 0 C5 1.98 5 3.96 5 6 C3.35 6 1.7 6 0 6 C0 4.02 0 2.04 0 0 Z " fill="#84807F" transform="translate(61,106)"/>
<path d="M0 0 C0.33 1.32 0.66 2.64 1 4 C1.66 4 2.32 4 3 4 C3 2.68 3 1.36 3 0 C3.66 0 4.32 0 5 0 C5 1.98 5 3.96 5 6 C3.35 6 1.7 6 0 6 C0 4.02 0 2.04 0 0 Z " fill="#888483" transform="translate(26,106)"/>
<path d="M0 0 C5.28 0 10.56 0 16 0 C16 0.33 16 0.66 16 1 C15.02417969 1.04898438 14.04835937 1.09796875 13.04296875 1.1484375 C11.77066406 1.22320312 10.49835938 1.29796875 9.1875 1.375 C7.29064453 1.47941406 7.29064453 1.47941406 5.35546875 1.5859375 C1.87244766 1.76102939 1.87244766 1.76102939 -1 4 C-0.67 2.68 -0.34 1.36 0 0 Z " fill="#1999DA" transform="translate(115,31)"/>
<path d="M0 0 C1.65 0 3.3 0 5 0 C4.67 1.65 4.34 3.3 4 5 C2.68 5 1.36 5 0 5 C0 3.35 0 1.7 0 0 Z " fill="#575250" transform="translate(38,96)"/>
<path d="M0 0 C1.32 0 2.64 0 4 0 C3.67 1.65 3.34 3.3 3 5 C1.68 5 0.36 5 -1 5 C-0.67 3.35 -0.34 1.7 0 0 Z " fill="#4E4847" transform="translate(121,96)"/>
<path d="M0 0 C1.32 0 2.64 0 4 0 C3.67 1.65 3.34 3.3 3 5 C1.68 5 0.36 5 -1 5 C-0.67 3.35 -0.34 1.7 0 0 Z " fill="#4D4847" transform="translate(45,96)"/>
<path d="M0 0 C2.31 0 4.62 0 7 0 C7 1.98 7 3.96 7 6 C6.01 6.495 6.01 6.495 5 7 C4.731875 6.21625 4.46375 5.4325 4.1875 4.625 C3.15185568 1.71885077 3.15185568 1.71885077 0 0 Z " fill="#D27239" transform="translate(130,9)"/>
<path d="M0 0 C1.32 0 2.64 0 4 0 C4 1.65 4 3.3 4 5 C2.68 5 1.36 5 0 5 C0 3.35 0 1.7 0 0 Z " fill="#504B49" transform="translate(132,96)"/>
<path d="M0 0 C1.65 0 3.3 0 5 0 C5.33 1.32 5.66 2.64 6 4 C5.01 4.495 5.01 4.495 4 5 C4 4.01 4 3.02 4 2 C3.34 2 2.68 2 2 2 C1.67 2.99 1.34 3.98 1 5 C0.67 3.35 0.34 1.7 0 0 Z " fill="#7A7675" transform="translate(152,106)"/>
<path d="M0 0 C1.65 0 3.3 0 5 0 C5 1.65 5 3.3 5 5 C4.67 4.01 4.34 3.02 4 2 C3.34 2 2.68 2 2 2 C2 2.99 2 3.98 2 5 C1.34 5 0.68 5 0 5 C0 3.35 0 1.7 0 0 Z " fill="#7D7978" transform="translate(133,106)"/>
<path d="M0 0 C1.65 0 3.3 0 5 0 C4.67 1.65 4.34 3.3 4 5 C2.68 5 1.36 5 0 5 C0 3.35 0 1.7 0 0 Z " fill="#595453" transform="translate(85,96)"/>
<path d="M0 0 C0.66 0 1.32 0 2 0 C3.04449911 3.13349732 2.93423645 3.98968256 2 7 C1.01 6.67 0.02 6.34 -1 6 C-0.67 4.02 -0.34 2.04 0 0 Z " fill="#575351" transform="translate(64,94)"/>
<path d="M0 0 C0.66 0.33 1.32 0.66 2 1 C1.1875 2.9375 1.1875 2.9375 0 5 C-0.99 5.33 -1.98 5.66 -3 6 C-3 4.35 -3 2.7 -3 1 C-2.01 0.67 -1.02 0.34 0 0 Z " fill="#7A7675" transform="translate(162,105)"/>
</svg>
