<?xml version="1.0" encoding="UTF-8"?>
<svg version="1.1" xmlns="http://www.w3.org/2000/svg" width="167" height="150">
<path d="M0 0 C55.11 0 110.22 0 167 0 C167 49.5 167 99 167 150 C111.89 150 56.78 150 0 150 C0 100.5 0 51 0 0 Z " fill="#FEFEFE" transform="translate(0,0)"/>
<path d="M0 0 C2.8060666 1.49005957 5.31053089 3.14476293 7.89453125 4.99609375 C15.39802914 10.30965673 23.06521279 15.37143608 30.73950195 20.43408203 C36.70134421 24.38581435 42.5418311 28.46172904 48.30029297 32.70483398 C50.03108212 33.96875822 51.79881419 35.18228238 53.58203125 36.37109375 C52.33545819 42.63275471 50.62196309 48.55668776 48.45703125 54.55859375 C48.15498779 55.4086499 47.85294434 56.25870605 47.54174805 57.13452148 C46.56232162 59.88266946 45.57365714 62.62732544 44.58203125 65.37109375 C44.23769043 66.32467773 43.89334961 67.27826172 43.53857422 68.26074219 C41.23309847 74.63577239 38.90913969 81.00393314 36.58203125 87.37109375 C35.26203125 91.00109375 33.94203125 94.63109375 32.58203125 98.37109375 C10.14203125 98.37109375 -12.29796875 98.37109375 -35.41796875 98.37109375 C-37.90258371 92.15955636 -40.25209416 86.08751077 -42.29296875 79.74609375 C-44.25926992 73.73018614 -46.3452352 67.7828004 -48.60546875 61.87109375 C-51.80322134 53.48337848 -54.26061191 45.07365184 -56.41796875 36.37109375 C-54.79272698 35.25374004 -53.16748407 34.13638799 -51.54223633 33.01904297 C-50.1071588 32.03241686 -48.6721007 31.0457625 -47.23706055 30.05908203 C-43.57515117 27.5413451 -39.91298361 25.02398637 -36.25 22.5078125 C-34.91013415 21.58727174 -33.57029015 20.66669919 -32.23046875 19.74609375 C-31.23841431 19.06450195 -31.23841431 19.06450195 -30.22631836 18.36914062 C-26.52267377 15.82302766 -22.82424231 13.2696812 -19.13354492 10.70483398 C-17.53512836 9.59649463 -15.93170909 8.4953808 -14.328125 7.39453125 C-12.46074372 6.09613729 -10.61215982 4.77002973 -8.7890625 3.41015625 C-8.00660156 2.84039063 -7.22414062 2.270625 -6.41796875 1.68359375 C-5.75796875 1.18472656 -5.09796875 0.68585937 -4.41796875 0.171875 C-2.41796875 -0.62890625 -2.41796875 -0.62890625 0 0 Z " fill="#066217" transform="translate(89.41796875,27.62890625)"/>
<path d="M0 0 C2.8060666 1.49005957 5.31053089 3.14476293 7.89453125 4.99609375 C15.39802914 10.30965673 23.06521279 15.37143608 30.73950195 20.43408203 C36.70134421 24.38581435 42.5418311 28.46172904 48.30029297 32.70483398 C50.03108212 33.96875822 51.79881419 35.18228238 53.58203125 36.37109375 C52.33545819 42.63275471 50.62196309 48.55668776 48.45703125 54.55859375 C48.15498779 55.4086499 47.85294434 56.25870605 47.54174805 57.13452148 C46.56232162 59.88266946 45.57365714 62.62732544 44.58203125 65.37109375 C44.23769043 66.32467773 43.89334961 67.27826172 43.53857422 68.26074219 C41.23309847 74.63577239 38.90913969 81.00393314 36.58203125 87.37109375 C35.26203125 91.00109375 33.94203125 94.63109375 32.58203125 98.37109375 C10.14203125 98.37109375 -12.29796875 98.37109375 -35.41796875 98.37109375 C-37.90258371 92.15955636 -40.25209416 86.08751077 -42.29296875 79.74609375 C-44.25926992 73.73018614 -46.3452352 67.7828004 -48.60546875 61.87109375 C-51.80322134 53.48337848 -54.26061191 45.07365184 -56.41796875 36.37109375 C-54.79272698 35.25374004 -53.16748407 34.13638799 -51.54223633 33.01904297 C-50.1071588 32.03241686 -48.6721007 31.0457625 -47.23706055 30.05908203 C-43.57515117 27.5413451 -39.91298361 25.02398637 -36.25 22.5078125 C-34.91013415 21.58727174 -33.57029015 20.66669919 -32.23046875 19.74609375 C-31.23841431 19.06450195 -31.23841431 19.06450195 -30.22631836 18.36914062 C-26.52267377 15.82302766 -22.82424231 13.2696812 -19.13354492 10.70483398 C-17.53512836 9.59649463 -15.93170909 8.4953808 -14.328125 7.39453125 C-12.46074372 6.09613729 -10.61215982 4.77002973 -8.7890625 3.41015625 C-8.00660156 2.84039063 -7.22414062 2.270625 -6.41796875 1.68359375 C-5.75796875 1.18472656 -5.09796875 0.68585937 -4.41796875 0.171875 C-2.41796875 -0.62890625 -2.41796875 -0.62890625 0 0 Z M-20.41796875 22.37109375 C-20.39734375 23.27859375 -20.37671875 24.18609375 -20.35546875 25.12109375 C-20.40734092 27.81844642 -20.68791161 29.81589375 -21.41796875 32.37109375 C-21.41796875 33.03109375 -21.41796875 33.69109375 -21.41796875 34.37109375 C-22.07796875 34.37109375 -22.73796875 34.37109375 -23.41796875 34.37109375 C-22.75796875 31.73109375 -22.09796875 29.09109375 -21.41796875 26.37109375 C-23.89296875 25.87609375 -23.89296875 25.87609375 -26.41796875 25.37109375 C-26.08796875 27.35109375 -25.75796875 29.33109375 -25.41796875 31.37109375 C-27.06796875 31.04109375 -28.71796875 30.71109375 -30.41796875 30.37109375 C-31.42907968 33.42022603 -31.42907968 33.42022603 -30.41796875 36.37109375 C-32.06796875 36.70109375 -33.71796875 37.03109375 -35.41796875 37.37109375 C-35.85182967 41.24907037 -35.85182967 41.24907037 -33.91796875 43.12109375 C-33.42296875 43.53359375 -32.92796875 43.94609375 -32.41796875 44.37109375 C-34.06796875 44.37109375 -35.71796875 44.37109375 -37.41796875 44.37109375 C-37.74796875 45.69109375 -38.07796875 47.01109375 -38.41796875 48.37109375 C-35.13100642 49.17062513 -33.70773683 49.46768311 -30.41796875 48.37109375 C-30.41796875 49.03109375 -30.41796875 49.69109375 -30.41796875 50.37109375 C-31.40796875 50.37109375 -32.39796875 50.37109375 -33.41796875 50.37109375 C-33.41796875 51.36109375 -33.41796875 52.35109375 -33.41796875 53.37109375 C-32.75796875 53.70109375 -32.09796875 54.03109375 -31.41796875 54.37109375 C-32.40796875 55.03109375 -33.39796875 55.69109375 -34.41796875 56.37109375 C-34.41796875 54.72109375 -34.41796875 53.07109375 -34.41796875 51.37109375 C-36.06796875 51.37109375 -37.71796875 51.37109375 -39.41796875 51.37109375 C-39.55103644 56.02846295 -38.88938694 59.95683919 -37.41796875 64.37109375 C-35.40288517 65.10433171 -35.40288517 65.10433171 -33.41796875 65.37109375 C-34.40796875 65.86609375 -34.40796875 65.86609375 -35.41796875 66.37109375 C-35.08796875 68.02109375 -34.75796875 69.67109375 -34.41796875 71.37109375 C-33.61359375 71.18546875 -32.80921875 70.99984375 -31.98046875 70.80859375 C-31.13484375 70.66421875 -30.28921875 70.51984375 -29.41796875 70.37109375 C-27.89696852 71.89209398 -26.69773643 73.64618949 -25.41796875 75.37109375 C-25.98 75.20738281 -26.54203125 75.04367188 -27.12109375 74.875 C-29.54855931 74.34244378 -31.68686556 74.27210694 -34.16796875 74.30859375 C-34.9671875 74.31761719 -35.76640625 74.32664063 -36.58984375 74.3359375 C-37.193125 74.34753906 -37.79640625 74.35914063 -38.41796875 74.37109375 C-37.42796875 75.69109375 -36.43796875 77.01109375 -35.41796875 78.37109375 C-36.40796875 79.69109375 -37.39796875 81.01109375 -38.41796875 82.37109375 C-37.17133544 82.87942966 -35.92047488 83.3774052 -34.66796875 83.87109375 C-33.971875 84.14953125 -33.27578125 84.42796875 -32.55859375 84.71484375 C-30.1537418 85.56649702 -30.1537418 85.56649702 -26.41796875 85.37109375 C-26.72734375 84.77296875 -27.03671875 84.17484375 -27.35546875 83.55859375 C-28.41796875 81.37109375 -28.41796875 81.37109375 -29.41796875 78.37109375 C-28.18433594 79.18513672 -28.18433594 79.18513672 -26.92578125 80.015625 C-16.55898269 86.71878072 -6.93876671 91.4086658 5.6484375 88.71484375 C13.55866076 86.54817103 19.92630106 83.1194704 26.58203125 78.37109375 C25.58203125 81.37109375 25.58203125 81.37109375 23.58203125 82.37109375 C23.58203125 83.36109375 23.58203125 84.35109375 23.58203125 85.37109375 C27.66581408 84.62858778 31.60142348 83.54186074 35.58203125 82.37109375 C34.59203125 81.05109375 33.60203125 79.73109375 32.58203125 78.37109375 C33.57203125 77.05109375 34.56203125 75.73109375 35.58203125 74.37109375 C33.27203125 74.04109375 30.96203125 73.71109375 28.58203125 73.37109375 C28.58203125 72.71109375 28.58203125 72.05109375 28.58203125 71.37109375 C29.24203125 71.37109375 29.90203125 71.37109375 30.58203125 71.37109375 C31.28507347 69.6481877 31.96886616 67.91741909 32.64453125 66.18359375 C33.02738281 65.22066406 33.41023438 64.25773437 33.8046875 63.265625 C34.65370625 60.10420341 34.31461601 58.50122862 33.58203125 55.37109375 C33.74574219 54.7265625 33.90945312 54.08203125 34.078125 53.41796875 C34.77011483 50.60709533 34.2154622 48.44216432 33.64453125 45.62109375 C33.44988281 44.63625 33.25523438 43.65140625 33.0546875 42.63671875 C32.89871094 41.8890625 32.74273437 41.14140625 32.58203125 40.37109375 C31.92203125 40.37109375 31.26203125 40.37109375 30.58203125 40.37109375 C30.08703125 37.40109375 30.08703125 37.40109375 29.58203125 34.37109375 C28.92203125 34.37109375 28.26203125 34.37109375 27.58203125 34.37109375 C27.35515625 33.81421875 27.12828125 33.25734375 26.89453125 32.68359375 C23.76995072 27.17838044 19.14292774 24.05224027 13.58203125 21.37109375 C9.71716625 20.8440667 8.91435918 21.1495418 5.58203125 23.37109375 C5.58203125 24.03109375 5.58203125 24.69109375 5.58203125 25.37109375 C6.24203125 25.37109375 6.90203125 25.37109375 7.58203125 25.37109375 C7.25203125 26.03109375 6.92203125 26.69109375 6.58203125 27.37109375 C3.2382965 26.81380462 0.54890126 26.01935486 -2.41796875 24.37109375 C-2.74796875 25.03109375 -3.07796875 25.69109375 -3.41796875 26.37109375 C-5.98046875 26.99609375 -5.98046875 26.99609375 -8.41796875 27.37109375 C-8.08796875 26.05109375 -7.75796875 24.73109375 -7.41796875 23.37109375 C-9.89296875 22.87609375 -9.89296875 22.87609375 -12.41796875 22.37109375 C-12.41796875 23.36109375 -12.41796875 24.35109375 -12.41796875 25.37109375 C-13.07796875 25.37109375 -13.73796875 25.37109375 -14.41796875 25.37109375 C-14.74796875 24.05109375 -15.07796875 22.73109375 -15.41796875 21.37109375 C-17.62878726 21.26568449 -17.62878726 21.26568449 -20.41796875 22.37109375 Z " fill="#086316" transform="translate(89.41796875,27.62890625)"/>
<path d="M0 0 C3.49714124 2.08674994 6.84303477 4.32957002 10.16796875 6.6796875 C11.6075664 7.68431995 13.04767412 8.68822189 14.48828125 9.69140625 C15.54450684 10.42883057 15.54450684 10.42883057 16.62207031 11.18115234 C19.23633115 12.99156981 21.88646509 14.74448773 24.54296875 16.4921875 C29.49091307 19.76834682 34.33287314 23.17815555 39.16796875 26.6171875 C45.52762021 31.13946471 51.95132258 35.4730946 58.60546875 39.5546875 C58.36934429 41.1609552 58.11546718 42.76461098 57.85546875 44.3671875 C57.71625 45.26050781 57.57703125 46.15382812 57.43359375 47.07421875 C56.48184627 51.07425179 55.12033108 54.80821937 53.68457031 58.65698242 C52.00013626 63.18018327 50.43447458 67.74384008 48.85546875 72.3046875 C48.23572617 74.09116286 47.61593131 75.87762009 46.99609375 77.6640625 C45.81273437 81.07492188 45.81273437 81.07492188 44.60546875 84.5546875 C41.96546875 92.1446875 39.32546875 99.7346875 36.60546875 107.5546875 C11.52546875 107.5546875 -13.55453125 107.5546875 -39.39453125 107.5546875 C-53.61709223 66.07221799 -53.61709223 66.07221799 -57.68408203 53.69042969 C-58.19268608 52.16147152 -58.7132767 50.63648013 -59.24169922 49.11425781 C-59.51771973 48.31342773 -59.79374023 47.51259766 -60.078125 46.6875 C-60.33005615 45.9670752 -60.5819873 45.24665039 -60.84155273 44.50439453 C-61.39453125 42.5546875 -61.39453125 42.5546875 -61.39453125 39.5546875 C-59.69140625 38.22265625 -59.69140625 38.22265625 -57.14453125 36.7421875 C-51.47763491 33.2953124 -46.06029295 29.57073844 -40.64453125 25.7421875 C-34.03908292 21.08660312 -27.41035859 16.48357539 -20.64794922 12.05834961 C-17.62136634 10.07160759 -14.66085138 8.03531897 -11.7578125 5.87109375 C-10.8769397 5.22491089 -10.8769397 5.22491089 -9.97827148 4.56567383 C-8.37526783 3.38271714 -6.78668461 2.18028979 -5.19921875 0.9765625 C-2.39453125 -0.4453125 -2.39453125 -0.4453125 0 0 Z M-7.89453125 8.1171875 C-9.52648437 9.22320312 -9.52648437 9.22320312 -11.19140625 10.3515625 C-14.67141251 12.74512778 -18.13694929 15.15737337 -21.58984375 17.58984375 C-27.10795919 21.45559872 -32.67268583 25.25421015 -38.22753906 29.06689453 C-41.951172 31.62343116 -45.67273299 34.18298106 -49.39453125 36.7421875 C-50.74868883 37.6731903 -52.10285463 38.60418114 -53.45703125 39.53515625 C-54.42640625 40.20160156 -55.39578125 40.86804687 -56.39453125 41.5546875 C-54.18318478 50.62217368 -51.24031859 59.32545467 -47.96801758 68.0637207 C-47.67564209 68.84448975 -47.3832666 69.62525879 -47.08203125 70.4296875 C-46.78643311 71.21883545 -46.49083496 72.0079834 -46.1862793 72.82104492 C-43.40630623 80.33715825 -40.97778378 87.95228575 -38.6159668 95.60888672 C-38.33922119 96.5010791 -38.06247559 97.39327148 -37.77734375 98.3125 C-37.53387207 99.1080127 -37.29040039 99.90352539 -37.03955078 100.72314453 C-36.54508043 102.54816231 -36.54508043 102.54816231 -35.39453125 103.5546875 C-33.27771808 103.6489049 -31.15772367 103.67211511 -29.03881836 103.66821289 C-28.04373512 103.66843193 -28.04373512 103.66843193 -27.02854919 103.6686554 C-24.82629169 103.66795631 -22.6241178 103.66016415 -20.421875 103.65234375 C-18.89872789 103.65047956 -17.37558018 103.64905566 -15.85243225 103.64805603 C-11.83615474 103.64423096 -7.81991317 103.63440078 -3.8036499 103.62335205 C0.29170241 103.61313769 4.38706051 103.60855836 8.48242188 103.60351562 C16.52345403 103.5927785 24.56445692 103.57570222 32.60546875 103.5546875 C38.25084729 88.31455109 38.25084729 88.31455109 43.66796875 72.9921875 C43.99595459 72.04182617 44.32394043 71.09146484 44.66186523 70.11230469 C45.32388878 68.19033194 45.98480796 66.26797838 46.64453125 64.34521484 C47.58070237 61.62660816 48.52979068 58.91278024 49.48046875 56.19921875 C50.04358167 54.56791978 50.60611496 52.93642057 51.16796875 51.3046875 C51.4316626 50.56017334 51.69535645 49.81565918 51.96704102 49.04858398 C53.44863077 44.85032244 53.44863077 44.85032244 52.60546875 40.5546875 C50.37346431 38.79300707 50.37346431 38.79300707 47.54296875 37.0546875 C46.45886719 36.3534375 45.37476563 35.6521875 44.2578125 34.9296875 C43.6685498 34.54941406 43.07928711 34.16914062 42.47216797 33.77734375 C39.14232087 31.59635051 35.87792723 29.32047616 32.60546875 27.0546875 C26.96419082 23.16107348 21.28823132 19.32744684 15.5703125 15.546875 C13.37755552 14.07348098 11.20701253 12.58231727 9.046875 11.0625 C8.45221436 10.64500488 7.85755371 10.22750977 7.24487305 9.79736328 C5.56796945 8.61631453 3.89519509 7.42940932 2.22265625 6.2421875 C-2.2815546 3.33797991 -3.72712806 5.28700518 -7.89453125 8.1171875 Z " fill="#DEC621" transform="translate(89.39453125,22.4453125)"/>
<path d="M0 0 C0.33 1.32 0.66 2.64 1 4 C1.66 4 2.32 4 3 4 C3 3.01 3 2.02 3 1 C5.475 1.495 5.475 1.495 8 2 C7.67 3.65 7.34 5.3 7 7 C6.34 7 5.68 7 5 7 C4.67 8.32 4.34 9.64 4 11 C3.01 11 2.02 11 1 11 C1 9.35 1 7.7 1 6 C-0.32 6.33 -1.64 6.66 -3 7 C-2.649375 7.78375 -2.29875 8.5675 -1.9375 9.375 C-1.4734375 10.674375 -1.4734375 10.674375 -1 12 C-1.33 12.66 -1.66 13.32 -2 14 C-2.99 14 -3.98 14 -5 14 C-5.33 15.32 -5.66 16.64 -6 18 C-7.65 18 -9.3 18 -11 18 C-11 16.68 -11 15.36 -11 14 C-11.66 13.67 -12.32 13.34 -13 13 C-12.67 14.65 -12.34 16.3 -12 18 C-11.01 18.33 -10.02 18.66 -9 19 C-9 20.65 -9 22.3 -9 24 C-9.66 24 -10.32 24 -11 24 C-11.02725341 25.7290774 -11.04650987 27.45828176 -11.0625 29.1875 C-11.07410156 30.15042969 -11.08570313 31.11335938 -11.09765625 32.10546875 C-11.00393905 34.88324644 -10.75532296 37.32549165 -10 40 C-9.34 40.33 -8.68 40.66 -8 41 C-7.375 43.5625 -7.375 43.5625 -7 46 C-8.485 46.495 -8.485 46.495 -10 47 C-9.67 48.32 -9.34 49.64 -9 51 C-7.68 51 -6.36 51 -5 51 C-5.33 51.5775 -5.66 52.155 -6 52.75 C-7.27075898 55.19883862 -7.27075898 55.19883862 -7 59 C-5.34461042 59.69419563 -3.67363977 60.35103764 -2 61 C-1.03513672 61.37898438 -1.03513672 61.37898438 -0.05078125 61.765625 C5.92799137 63.95533705 11.6601646 64.65634537 18 65 C18.495 63.515 18.495 63.515 19 62 C19.99 62.33 20.98 62.66 22 63 C25.55157911 63 27.48763755 62.00581762 30.6875 60.5 C31.68136719 60.0359375 32.67523438 59.571875 33.69921875 59.09375 C34.45847656 58.7328125 35.21773437 58.371875 36 58 C35.34 56.68 34.68 55.36 34 54 C32.35 54.66 30.7 55.32 29 56 C28.34 55.34 27.68 54.68 27 54 C31.625 51 31.625 51 35 51 C34.938125 50.2575 34.87625 49.515 34.8125 48.75 C35.03431931 45.49665015 35.9525091 44.45698908 38 42 C40.2588046 35.22358619 40.04116194 27.31239225 37.1875 20.75 C34.28319133 15.57458949 29.97137359 12.36093375 25.23046875 8.91015625 C24.49441406 8.27980469 23.75835937 7.64945313 23 7 C23 6.01 23 5.02 23 4 C22.34 4 21.68 4 21 4 C21 3.34 21 2.68 21 2 C24 0 24 0 27.25 0.125 C34.5483264 1.82794283 38.73091869 5.04915939 43 11 C43 11.66 43 12.32 43 13 C43.66 13 44.32 13 45 13 C45.495 15.97 45.495 15.97 46 19 C46.66 19 47.32 19 48 19 C48.36463732 20.74784829 48.7163078 22.49840502 49.0625 24.25 C49.25972656 25.22453125 49.45695312 26.1990625 49.66015625 27.203125 C49.99390085 29.94980473 49.66440453 31.38423414 49 34 C49.18433594 34.78761719 49.36867188 35.57523438 49.55859375 36.38671875 C50.12707605 39.75233521 49.31425186 41.66415441 48.0625 44.8125 C47.68222656 45.78832031 47.30195312 46.76414063 46.91015625 47.76953125 C46.60980469 48.50558594 46.30945313 49.24164063 46 50 C45.34 50 44.68 50 44 50 C44 50.66 44 51.32 44 52 C46.31 52.33 48.62 52.66 51 53 C50.01 54.65 49.02 56.3 48 58 C48.99 58.99 49.98 59.98 51 61 C47.01939223 62.17076699 43.08378283 63.25749403 39 64 C39 63.01 39 62.02 39 61 C39.66 60.67 40.32 60.34 41 60 C41.33 59.01 41.66 58.02 42 57 C41.18917969 57.54269531 40.37835938 58.08539063 39.54296875 58.64453125 C30.15857831 64.70778701 20.54957013 69.67440226 9 68 C0.29184408 65.98766136 -6.7245061 62.09857446 -14 57 C-13.505 57.78375 -13.01 58.5675 -12.5 59.375 C-11 62 -11 62 -11 64 C-15.19469571 63.40075776 -19.00999834 62.42500059 -23 61 C-22.01 59.68 -21.02 58.36 -20 57 C-20.99 55.68 -21.98 54.36 -23 53 C-21.58344207 52.9727585 -20.16672955 52.95349533 -18.75 52.9375 C-17.96109375 52.92589844 -17.1721875 52.91429687 -16.359375 52.90234375 C-14.09308998 52.99614694 -12.1711105 53.36758937 -10 54 C-11.32 52.02 -12.64 50.04 -14 48 C-14.66 48.66 -15.32 49.32 -16 50 C-16.99 50 -17.98 50 -19 50 C-19.33 48.35 -19.66 46.7 -20 45 C-19.01 44.505 -19.01 44.505 -18 44 C-19.32 43.67 -20.64 43.34 -22 43 C-22.144375 41.865625 -22.28875 40.73125 -22.4375 39.5625 C-22.61171478 36.19222799 -22.61171478 36.19222799 -24 35 C-24.04063832 33.33382885 -24.042721 31.66611905 -24 30 C-22.35 30 -20.7 30 -19 30 C-19 31.65 -19 33.3 -19 35 C-18.01 34.34 -17.02 33.68 -16 33 C-16.66 32.67 -17.32 32.34 -18 32 C-18 31.01 -18 30.02 -18 29 C-17.01 29 -16.02 29 -15 29 C-15 28.34 -15 27.68 -15 27 C-15.5775 27.185625 -16.155 27.37125 -16.75 27.5625 C-19.20692525 28.04023546 -20.64397534 27.75729364 -23 27 C-22.67 25.68 -22.34 24.36 -22 23 C-20.35 23 -18.7 23 -17 23 C-18.32 21.68 -19.64 20.36 -21 19 C-20.34 17.68 -19.68 16.36 -19 15 C-17.68 15 -16.36 15 -15 15 C-15.33 13.35 -15.66 11.7 -16 10 C-13.92446352 9.4465236 -12.15634036 9 -10 9 C-10.33 7.35 -10.66 5.7 -11 4 C-9.35 4.33 -7.7 4.66 -6 5 C-6.66 7.64 -7.32 10.28 -8 13 C-7.34 13 -6.68 13 -6 13 C-6.020625 12.2575 -6.04125 11.515 -6.0625 10.75 C-6.00628417 8.27650346 -5.63145014 6.36793801 -5 4 C-5 3.01 -5 2.02 -5 1 C-2 0 -2 0 0 0 Z " fill="#43812F" transform="translate(74,49)"/>
<path d="M0 0 C7.6626506 0.8939759 7.6626506 0.8939759 10.1875 1.6875 C12.82527216 2.1422883 14.56063507 1.011444 17 0 C19.8125 -0.125 19.8125 -0.125 22 0 C24.8720604 5.7441208 25.56095303 10.58991429 26 17 C22.37 18.98 18.74 20.96 15 23 C15.804375 23.61875 16.60875 24.2375 17.4375 24.875 C20 27 20 27 21 29 C17.62537285 28.45276317 15.91765 27.9451 13 26 C9.16896958 26.31925253 7.23319447 26.84453702 4 29 C3.01 29 2.02 29 1 29 C1 28.34 1 27.68 1 27 C2.98 26.01 4.96 25.02 7 24 C3.54319097 21.23455278 -0.14341602 19.15078722 -4 17 C-3.63223832 10.69732561 -2.83374078 5.66748157 0 0 Z " fill="#BF8C09" transform="translate(77,69)"/>
<path d="M0 0 C7.2983264 1.70294283 11.48091869 4.92415939 15.75 10.875 C15.75 11.535 15.75 12.195 15.75 12.875 C16.41 12.875 17.07 12.875 17.75 12.875 C18.08 14.855 18.41 16.835 18.75 18.875 C19.41 18.875 20.07 18.875 20.75 18.875 C21.11463732 20.62284829 21.4663078 22.37340502 21.8125 24.125 C22.10833984 25.58679688 22.10833984 25.58679688 22.41015625 27.078125 C22.74390085 29.82480473 22.41440453 31.25923414 21.75 33.875 C21.93433594 34.66261719 22.11867188 35.45023438 22.30859375 36.26171875 C22.87707605 39.62733521 22.06425186 41.53915441 20.8125 44.6875 C20.43222656 45.66332031 20.05195312 46.63914063 19.66015625 47.64453125 C19.35980469 48.38058594 19.05945313 49.11664063 18.75 49.875 C18.09 49.875 17.43 49.875 16.75 49.875 C16.42 50.865 16.09 51.855 15.75 52.875 C13.1875 54.0625 13.1875 54.0625 10.75 54.875 C9.25 53.75 9.25 53.75 7.75 51.875 C7.31192553 48.44341666 7.26757548 46.60912427 9.1875 43.6875 C9.703125 43.089375 10.21875 42.49125 10.75 41.875 C13.0088046 35.09858619 12.79116194 27.18739225 9.9375 20.625 C7.03319133 15.44958949 2.72137359 12.23593375 -2.01953125 8.78515625 C-2.75558594 8.15480469 -3.49164063 7.52445313 -4.25 6.875 C-4.25 5.885 -4.25 4.895 -4.25 3.875 C-4.91 3.875 -5.57 3.875 -6.25 3.875 C-6.25 3.215 -6.25 2.555 -6.25 1.875 C-3.25 -0.125 -3.25 -0.125 0 0 Z " fill="#A08C07" transform="translate(101.25,49.125)"/>
<path d="M0 0 C0 0.99 0 1.98 0 3 C-0.66 3.66 -1.32 4.32 -2 5 C-1.67 5.99 -1.34 6.98 -1 8 C1.11785113 9.11785113 1.11785113 9.11785113 4 10 C4.64195313 10.24878906 5.28390625 10.49757813 5.9453125 10.75390625 C11.91769614 12.96946792 17.65985597 13.65632864 24 14 C24.33 13.01 24.66 12.02 25 11 C25.99 11.33 26.98 11.66 28 12 C31.55157911 12 33.48763755 11.00581762 36.6875 9.5 C37.68136719 9.0359375 38.67523438 8.571875 39.69921875 8.09375 C40.45847656 7.7328125 41.21773437 7.371875 42 7 C41.34 5.68 40.68 4.36 40 3 C38.35 3.66 36.7 4.32 35 5 C34.34 4.34 33.68 3.68 33 3 C37.39665971 -0.05323591 37.39665971 -0.05323591 40.125 0.1875 C42 1 42 1 45 3 C45.66 2.67 46.32 2.34 47 2 C48.70702735 1.93003986 50.41668003 1.91559846 52.125 1.9375 C53.03507812 1.94652344 53.94515625 1.95554687 54.8828125 1.96484375 C55.93082031 1.98224609 55.93082031 1.98224609 57 2 C56.01 3.65 55.02 5.3 54 7 C54.99 7.99 55.98 8.98 57 10 C53.01939223 11.17076699 49.08378283 12.25749403 45 13 C45 12.01 45 11.02 45 10 C45.66 9.67 46.32 9.34 47 9 C47.33 8.01 47.66 7.02 48 6 C47.18917969 6.54269531 46.37835938 7.08539063 45.54296875 7.64453125 C36.15857831 13.70778701 26.54957013 18.67440226 15 17 C6.29184408 14.98766136 -0.7245061 11.09857446 -8 6 C-7.505 6.78375 -7.01 7.5675 -6.5 8.375 C-5 11 -5 11 -5 13 C-9.19469571 12.40075776 -13.00999834 11.42500059 -17 10 C-16.01 8.68 -15.02 7.36 -14 6 C-14.99 4.68 -15.98 3.36 -17 2 C-15.58344207 1.9727585 -14.16672955 1.95349533 -12.75 1.9375 C-11.56664062 1.92009766 -11.56664062 1.92009766 -10.359375 1.90234375 C-8 2 -8 2 -5.84375 2.59375 C-5.2353125 2.7278125 -4.626875 2.861875 -4 3 C-1.75244247 1.6483633 -1.75244247 1.6483633 0 0 Z " fill="#BFC0BF" transform="translate(68,100)"/>
<path d="M0 0 C2.25236432 1.12618216 4.42913278 2.25825638 6.58984375 3.55859375 C10.88861085 5.3755984 14.33271424 5.37228477 18.9375 5.25 C19.71029297 5.24484375 20.48308594 5.2396875 21.27929688 5.234375 C25.93308078 5.17143287 30.39401554 4.71482112 35 4 C35.99 4 36.98 4 38 4 C38.33 3.34 38.66 2.68 39 2 C39.99 2.99 40.98 3.98 42 5 C41 8 41 8 38.671875 9.38671875 C37.70765625 9.81597656 36.7434375 10.24523437 35.75 10.6875 C34.79609375 11.12449219 33.8421875 11.56148437 32.859375 12.01171875 C30.00480587 12.99833895 27.99110277 13.28107881 25 13 C24.67 12.67 24.34 12.34 24 12 C23.67 12.66 23.34 13.32 23 14 C13.73125098 14.64540612 5.82514939 13.21676626 -2 8 C-2 7.34 -2 6.68 -2 6 C-2.66 5.67 -3.32 5.34 -4 5 C-2.68 3.35 -1.36 1.7 0 0 Z " fill="#C4C7C5" transform="translate(69,100)"/>
<path d="M0 0 C7.20168477 1.68039311 11.66149401 4.8624912 15.75 10.875 C16.55414877 14.02973749 16.75 16.63013524 16.75 19.875 C17.74 19.875 18.73 19.875 19.75 19.875 C19.42 20.865 19.09 21.855 18.75 22.875 C16.5625 23.625 16.5625 23.625 13.75 23.875 C10.61947977 21.9661462 8.93730116 20.17601972 7 17.0625 C4.3394192 13.29334387 1.32656373 11.11823423 -2.421875 8.48828125 C-3.02515625 7.95589844 -3.6284375 7.42351563 -4.25 6.875 C-4.25 5.885 -4.25 4.895 -4.25 3.875 C-4.91 3.875 -5.57 3.875 -6.25 3.875 C-6.25 3.215 -6.25 2.555 -6.25 1.875 C-3.25 -0.125 -3.25 -0.125 0 0 Z " fill="#B99705" transform="translate(101.25,49.125)"/>
<path d="M0 0 C0.33 1.32 0.66 2.64 1 4 C1.66 4 2.32 4 3 4 C3 3.01 3 2.02 3 1 C5.475 1.495 5.475 1.495 8 2 C7.67 3.65 7.34 5.3 7 7 C6.34 7 5.68 7 5 7 C4.67 8.32 4.34 9.64 4 11 C3.01 11 2.02 11 1 11 C1 9.35 1 7.7 1 6 C-0.32 6.33 -1.64 6.66 -3 7 C-2.649375 7.78375 -2.29875 8.5675 -1.9375 9.375 C-1.628125 10.24125 -1.31875 11.1075 -1 12 C-1.33 12.66 -1.66 13.32 -2 14 C-2.99 14 -3.98 14 -5 14 C-5.33 15.32 -5.66 16.64 -6 18 C-7.65 18 -9.3 18 -11 18 C-11 16.68 -11 15.36 -11 14 C-12.65 13.67 -14.3 13.34 -16 13 C-15.67 11.68 -15.34 10.36 -15 9 C-13.35 9.33 -11.7 9.66 -10 10 C-10.33 8.02 -10.66 6.04 -11 4 C-9.35 4.33 -7.7 4.66 -6 5 C-6.66 7.64 -7.32 10.28 -8 13 C-7.34 13 -6.68 13 -6 13 C-6.020625 12.2575 -6.04125 11.515 -6.0625 10.75 C-6.00628417 8.27650346 -5.63145014 6.36793801 -5 4 C-5 3.01 -5 2.02 -5 1 C-2 0 -2 0 0 0 Z " fill="#A1B987" transform="translate(74,49)"/>
<path d="M0 0 C0 0.99 0 1.98 0 3 C-0.66 3.66 -1.32 4.32 -2 5 C-1.67 5.99 -1.34 6.98 -1 8 C1.11785113 9.11785113 1.11785113 9.11785113 4 10 C4.60714844 10.2371875 5.21429688 10.474375 5.83984375 10.71875 C12.70928058 13.27719947 19.75136187 14.12356438 27 15 C22.97568122 17.68287919 19.6499301 17.54100807 15 17 C6.29362412 15.02181664 -0.73656312 11.09012506 -8 6 C-7.505 6.78375 -7.01 7.5675 -6.5 8.375 C-5 11 -5 11 -5 13 C-9.19469571 12.40075776 -13.00999834 11.42500059 -17 10 C-16.01 8.68 -15.02 7.36 -14 6 C-14.99 4.68 -15.98 3.36 -17 2 C-15.58344207 1.9727585 -14.16672955 1.95349533 -12.75 1.9375 C-11.56664062 1.92009766 -11.56664062 1.92009766 -10.359375 1.90234375 C-8 2 -8 2 -5.84375 2.59375 C-5.2353125 2.7278125 -4.626875 2.861875 -4 3 C-1.75244247 1.6483633 -1.75244247 1.6483633 0 0 Z " fill="#D8DAD8" transform="translate(68,100)"/>
<path d="M0 0 C0.66 0 1.32 0 2 0 C2.33 1.65 2.66 3.3 3 5 C3.99 5.33 4.98 5.66 6 6 C6 7.65 6 9.3 6 11 C5.34 11 4.68 11 4 11 C4 14.3 4 17.6 4 21 C-0.75 20.125 -0.75 20.125 -3 19 C-3 18.01 -3 17.02 -3 16 C-2.01 16 -1.02 16 0 16 C0 15.34 0 14.68 0 14 C-0.86625 14.2784375 -0.86625 14.2784375 -1.75 14.5625 C-4.20692525 15.04023546 -5.64397534 14.75729364 -8 14 C-7.67 12.68 -7.34 11.36 -7 10 C-5.35 10 -3.7 10 -2 10 C-3.32 8.68 -4.64 7.36 -6 6 C-5.34 4.68 -4.68 3.36 -4 2 C-2.68 2 -1.36 2 0 2 C0 1.34 0 0.68 0 0 Z " fill="#85A769" transform="translate(59,62)"/>
<path d="M0 0 C7.75 0.875 7.75 0.875 10 2 C10 6.62 10 11.24 10 16 C6.04 14.35 2.08 12.7 -2 11 C-1.125 2.25 -1.125 2.25 0 0 Z " fill="#E0AC03" transform="translate(77,69)"/>
<path d="M0 0 C0.33730842 1.43657245 0.66969591 2.87430093 1 4.3125 C1.185625 5.11300781 1.37125 5.91351563 1.5625 6.73828125 C2 9 2 9 2 12 C-1.96 13.32 -5.92 14.64 -10 16 C-9.50613497 4.64110429 -9.50613497 4.64110429 -7.125 1.625 C-4.54845156 -0.34530175 -3.16833868 -0.35203763 0 0 Z " fill="#E2AE02" transform="translate(99,69)"/>
<path d="M0 0 C2.97 0.495 2.97 0.495 6 1 C5.00956295 5.83628305 4.04301154 10.47618873 2 15 C1.34 15 0.68 15 0 15 C-0.33 15.99 -0.66 16.98 -1 18 C-3.5625 19.1875 -3.5625 19.1875 -6 20 C-7.5 18.875 -7.5 18.875 -9 17 C-9.1875 13.8125 -9.1875 13.8125 -9 11 C-8.34 10.67 -7.68 10.34 -7 10 C-7.33 11.98 -7.66 13.96 -8 16 C-7.34 16 -6.68 16 -6 16 C-5.34 14.02 -4.68 12.04 -4 10 C-3.34 10 -2.68 10 -2 10 C-2.33 9.01 -2.66 8.02 -3 7 C-2.16396226 4.55160376 -1.15569573 2.31139145 0 0 Z " fill="#A38B07" transform="translate(118,84)"/>
<path d="M0 0 C2.38271239 0.89351715 4.67650211 1.81998372 6.90234375 3.05859375 C10.03126307 4.7942131 12.25580699 5.98382189 15.875 6.0625 C20.4821716 4.49606166 24.71648545 2.29413527 29 0 C29 0.99 29 1.98 29 3 C24.05 5.475 24.05 5.475 19 8 C19.804375 8.61875 20.60875 9.2375 21.4375 9.875 C24 12 24 12 25 14 C21.62537285 13.45276317 19.91765 12.9451 17 11 C13.16896958 11.31925253 11.23319447 11.84453702 8 14 C7.01 14 6.02 14 5 14 C5 13.34 5 12.68 5 12 C6.98 11.01 8.96 10.02 11 9 C7.54319097 6.23455278 3.85658398 4.15078722 0 2 C0 1.34 0 0.68 0 0 Z " fill="#BFC1C0" transform="translate(73,84)"/>
<path d="M0 0 C0.66 0 1.32 0 2 0 C2.33 1.65 2.66 3.3 3 5 C4.65 5 6.3 5 8 5 C7.01 6.485 7.01 6.485 6 8 C5.34 8 4.68 8 4 8 C4.33 9.65 4.66 11.3 5 13 C4.236875 12.814375 3.47375 12.62875 2.6875 12.4375 C-0.08967375 11.77180827 -0.08967375 11.77180827 -3 13 C-3.103125 12.236875 -3.20625 11.47375 -3.3125 10.6875 C-4.04364039 7.82940576 -4.76951913 6.84257115 -7 5 C-5.02 5 -3.04 5 -1 5 C-0.67 3.35 -0.34 1.7 0 0 Z " fill="#CEAD04" transform="translate(87,41)"/>
<path d="M0 0 C1.45823212 -0.0270043 2.91660675 -0.04639787 4.375 -0.0625 C5.18710937 -0.07410156 5.99921875 -0.08570312 6.8359375 -0.09765625 C9 0 9 0 11 1 C10.79375 1.9075 10.5875 2.815 10.375 3.75 C9.9872755 7.11027897 10.19588033 8.24075815 12 11 C7.80530429 10.40075776 3.99000166 9.42500059 0 8 C0.99 6.68 1.98 5.36 3 4 C2.01 2.68 1.02 1.36 0 0 Z " fill="#DFE0DF" transform="translate(51,102)"/>
<path d="M0 0 C3.3 0 6.6 0 10 0 C8.515 2.475 8.515 2.475 7 5 C7.99 5.99 8.98 6.98 10 8 C6.01939223 9.17076699 2.08378283 10.25749403 -2 11 C-2 10.01 -2 9.02 -2 8 C-1.34 7.67 -0.68 7.34 0 7 C0.65213292 4.97536745 0.65213292 4.97536745 1 3 C0.34 3 -0.32 3 -1 3 C-0.67 2.01 -0.34 1.02 0 0 Z " fill="#E0E1DF" transform="translate(115,102)"/>
<path d="M0 0 C1.32 0.99 2.64 1.98 4 3 C3 6 3 6 0.49609375 7.38671875 C-0.51324219 7.81597656 -1.52257812 8.24523437 -2.5625 8.6875 C-3.57441406 9.12449219 -4.58632812 9.56148437 -5.62890625 10.01171875 C-6.41136719 10.33785156 -7.19382812 10.66398437 -8 11 C-8.66 10.34 -9.32 9.68 -10 9 C-10 8.01 -10 7.02 -10 6 C-9.34 6 -8.68 6 -8 6 C-7.566875 5.525625 -7.13375 5.05125 -6.6875 4.5625 C-4.55306267 2.58616914 -2.83692053 2.38336764 0 2 C0 1.34 0 0.68 0 0 Z " fill="#323232" transform="translate(107,102)"/>
<path d="M0 0 C1.65 0 3.3 0 5 0 C5 7 5 7 3.5 8.6875 C3.005 9.120625 2.51 9.55375 2 10 C5.465 11.98 5.465 11.98 9 14 C8.01 14.495 8.01 14.495 7 15 C4.8359375 14.22265625 4.8359375 14.22265625 2.375 13.0625 C1.55773437 12.68222656 0.74046875 12.30195312 -0.1015625 11.91015625 C-0.72804688 11.60980469 -1.35453125 11.30945313 -2 11 C-1.85892253 9.54119891 -1.71197585 8.08296449 -1.5625 6.625 C-1.48128906 5.81289062 -1.40007812 5.00078125 -1.31640625 4.1640625 C-1 2 -1 2 0 0 Z " fill="#E6B401" transform="translate(77,69)"/>
<path d="M0 0 C3.0831351 1.19899698 6.06279492 2.47700477 9 4 C8.67 5.98 8.34 7.96 8 10 C4.59687262 8.94124926 1.98646769 7.99097846 -1 6 C-1 5.34 -1 4.68 -1 4 C-1.66 3.67 -2.32 3.34 -3 3 C-2.01 2.01 -1.02 1.02 0 0 Z " fill="#474747" transform="translate(68,102)"/>
<path d="M0 0 C1.670625 0.37125 1.670625 0.37125 3.375 0.75 C3.705 1.41 4.035 2.07 4.375 2.75 C2.90330189 6.48584906 2.90330189 6.48584906 0.375 7.75 C0.045 8.41 -0.285 9.07 -0.625 9.75 C-2.625 8.4375 -2.625 8.4375 -4.625 6.75 C-4.625 5.76 -4.625 4.77 -4.625 3.75 C-5.285 3.75 -5.945 3.75 -6.625 3.75 C-6.625 3.09 -6.625 2.43 -6.625 1.75 C-3.625 -0.25 -3.625 -0.25 0 0 Z " fill="#9E9706" transform="translate(101.625,49.25)"/>
<path d="M0 0 C1.32 0.33 2.64 0.66 4 1 C4 4.63 4 8.26 4 12 C0.29847322 12.92538169 -0.63458162 13.08174162 -4 12 C-3.67 10.68 -3.34 9.36 -3 8 C-1.35 8 0.3 8 2 8 C0.68 6.68 -0.64 5.36 -2 4 C-1.34 2.68 -0.68 1.36 0 0 Z " fill="#A0B77D" transform="translate(55,64)"/>
<path d="M0 0 C0.33 0.99 0.66 1.98 1 3 C1.99 3.33 2.98 3.66 4 4 C4 6.31 4 8.62 4 11 C2.35 11.33 0.7 11.66 -1 12 C-1.33 10.35 -1.66 8.7 -2 7 C-1.34 6.67 -0.68 6.34 0 6 C-1.32 5.67 -2.64 5.34 -4 5 C-4.33 3.68 -4.66 2.36 -5 1 C-2 0 -2 0 0 0 Z " fill="#B4C392" transform="translate(56,87)"/>
<path d="M0 0 C5.52340426 0.62765957 5.52340426 0.62765957 8 2.5625 C10.85226044 4.61256219 12.553545 4.4825037 16 4 C18.00615134 2.67594012 20.00669158 1.34331654 22 0 C24.1796875 0.37890625 24.1796875 0.37890625 26 1 C24.30397484 2.04115423 22.59251063 3.05718378 20.875 4.0625 C19.44800781 4.91521484 19.44800781 4.91521484 17.9921875 5.78515625 C14.39152501 7.24704402 12.70228308 7.06342174 9 6 C6.4453125 4.80859375 6.4453125 4.80859375 4.125 3.4375 C3.34382813 2.98246094 2.56265625 2.52742188 1.7578125 2.05859375 C1.17773438 1.70925781 0.59765625 1.35992187 0 1 C0 0.67 0 0.34 0 0 Z " fill="#3D3420" transform="translate(75,84)"/>
<path d="M0 0 C1.65 0.33 3.3 0.66 5 1 C4.67 2.65 4.34 4.3 4 6 C3.34 6 2.68 6 2 6 C1.67 7.32 1.34 8.64 1 10 C0.01 10 -0.98 10 -2 10 C-2 8.35 -2 6.7 -2 5 C-2.99 5.33 -3.98 5.66 -5 6 C-5.33 5.34 -5.66 4.68 -6 4 C-4.02 3.67 -2.04 3.34 0 3 C0 2.01 0 1.02 0 0 Z " fill="#98B581" transform="translate(77,50)"/>
<path d="M0 0 C2.475 0.495 2.475 0.495 5 1 C4.01 2.32 3.02 3.64 2 5 C3.84725052 5.69159401 3.84725052 5.69159401 6 6 C6.99 5.34 7.98 4.68 9 4 C9 8 9 8 8 10 C6.68 9.67 5.36 9.34 4 9 C3.34 10.32 2.68 11.64 2 13 C1.34 12.67 0.68 12.34 0 12 C0 8.04 0 4.08 0 0 Z " fill="#C99805" transform="translate(115,76)"/>
<path d="M0 0 C0.33 1.65 0.66 3.3 1 5 C0.01 5.66 -0.98 6.32 -2 7 C-1.67 8.65 -1.34 10.3 -1 12 C-2.65 12.33 -4.3 12.66 -6 13 C-6.08946233 9.77935622 -5.82732699 7.10247623 -5 4 C-5 3.01 -5 2.02 -5 1 C-2 0 -2 0 0 0 Z " fill="#ACBE8B" transform="translate(74,49)"/>
<path d="M0 0 C0.66 1.32 1.32 2.64 2 4 C5.12197478 2.6910428 5.12197478 2.6910428 7 0 C11 5.625 11 5.625 11 9 C6.71 8.34 2.42 7.68 -2 7 C-1.01 6.34 -0.02 5.68 1 5 C0.67 3.35 0.34 1.7 0 0 Z " fill="#3E7B35" transform="translate(53,95)"/>
<path d="M0 0 C3.3 0 6.6 0 10 0 C10.33 1.32 10.66 2.64 11 4 C9.68 3.67 8.36 3.34 7 3 C6.67 3.66 6.34 4.32 6 5 C4.02 5 2.04 5 0 5 C0 3.35 0 1.7 0 0 Z " fill="#474747" transform="translate(86,109)"/>
<path d="M0 0 C2.03257174 0.85236879 3.9945659 1.77164244 5.9375 2.8125 C5.9375 3.4725 5.9375 4.1325 5.9375 4.8125 C6.5975 5.1425 7.2575 5.4725 7.9375 5.8125 C4.1875 8.8125 4.1875 8.8125 1.9375 8.8125 C1.6075 7.1625 1.2775 5.5125 0.9375 3.8125 C-1.09357031 3.713075 -1.09357031 3.713075 -3.0625 4.4375 C-3.7225 4.56125 -4.3825 4.685 -5.0625 4.8125 C-5.7225 4.1525 -6.3825 3.4925 -7.0625 2.8125 C-2.66378617 -0.24216238 -2.66378617 -0.24216238 0 0 Z " fill="#C9CAC9" transform="translate(108.0625,100.1875)"/>
<path d="M0 0 C0.66 0 1.32 0 2 0 C2 0.66 2 1.32 2 2 C2.66 2 3.32 2 4 2 C3.67 2.99 3.34 3.98 3 5 C2.34 5 1.68 5 1 5 C1.57344937 7.86724686 1.8614515 8.8614515 4 11 C1 11 1 11 -0.5625 9.8125 C-2.25933938 7.67300687 -3.09872565 5.56516546 -4 3 C-2.68 2.67 -1.36 2.34 0 2 C0 1.34 0 0.68 0 0 Z " fill="#8AA765" transform="translate(63,91)"/>
<path d="M0 0 C0.66 0.33 1.32 0.66 2 1 C1.195625 1.763125 0.39125 2.52625 -0.4375 3.3125 C-3.16799024 5.79430898 -3.16799024 5.79430898 -4 9 C-7.44444444 12 -7.44444444 12 -10 12 C-10.33 10.68 -10.66 9.36 -11 8 C-7.37 5.36 -3.74 2.72 0 0 Z " fill="#D4BE30" transform="translate(69,34)"/>
<path d="M0 0 C0.99 0.33 1.98 0.66 3 1 C3 1.66 3 2.32 3 3 C3.66 3.33 4.32 3.66 5 4 C4.67 5.98 4.34 7.96 4 10 C1.69 10.66 -0.62 11.32 -3 12 C-2.67 11.34 -2.34 10.68 -2 10 C-1.34 10 -0.68 10 0 10 C-0.165 9.236875 -0.33 8.47375 -0.5 7.6875 C-1.05650184 4.69630259 -1.38170059 2.76340119 0 0 Z " fill="#D6A802" transform="translate(93,72)"/>
<path d="M0 0 C0 0.99 0 1.98 0 3 C-0.66 3.66 -1.32 4.32 -2 5 C-1.67 5.99 -1.34 6.98 -1 8 C1.50447516 9.21869929 1.50447516 9.21869929 4 10 C3.01 10.66 2.02 11.32 1 12 C-1.64 10.02 -4.28 8.04 -7 6 C-4.88929795 2.83394693 -3.26460973 1.80412643 0 0 Z " fill="#CBCCCB" transform="translate(68,100)"/>
<path d="M0 0 C0.66 0.33 1.32 0.66 2 1 C1.690625 2.19625 1.38125 3.3925 1.0625 4.625 C0.19968427 8.06402439 -0.47370486 11.49136573 -1 15 C-1.66 15 -2.32 15 -3 15 C-3.08078641 12.87561661 -3.13909141 10.7503677 -3.1875 8.625 C-3.22230469 7.44164063 -3.25710937 6.25828125 -3.29296875 5.0390625 C-3.19628906 4.03617187 -3.09960938 3.03328125 -3 2 C-2.01 1.34 -1.02 0.68 0 0 Z " fill="#C99404" transform="translate(90,70)"/>
<path d="M0 0 C1.98 0 3.96 0 6 0 C5.835 0.5775 5.67 1.155 5.5 1.75 C4.85537969 4.26664369 4.85537969 4.26664369 5 8 C5.66 8 6.32 8 7 8 C6.67 8.99 6.34 9.98 6 11 C4.35 10.67 2.7 10.34 1 10 C0.8125 7.125 0.8125 7.125 1 4 C1.99 3.34 2.98 2.68 4 2 C2.68 1.34 1.36 0.68 0 0 Z " fill="#317211" transform="translate(90,45)"/>
<path d="M0 0 C1.32 0.99 2.64 1.98 4 3 C3.67 3.99 3.34 4.98 3 6 C-0.0625 7.1875 -0.0625 7.1875 -3 8 C-3 7.01 -3 6.02 -3 5 C-3.66 4.34 -4.32 3.68 -5 3 C-3.35 2.67 -1.7 2.34 0 2 C0 1.34 0 0.68 0 0 Z " fill="#4B4B4B" transform="translate(107,102)"/>
<path d="M0 0 C0.99 0 1.98 0 3 0 C3 1.98 3 3.96 3 6 C2.01 6.495 2.01 6.495 1 7 C2.32 7.33 3.64 7.66 5 8 C2.36 7.67 -0.28 7.34 -3 7 C-3.33 6.01 -3.66 5.02 -4 4 C-3.01 3.67 -2.02 3.34 -1 3 C-0.67 2.01 -0.34 1.02 0 0 Z " fill="#CBA403" transform="translate(105,52)"/>
<path d="M0 0 C0.66 0 1.32 0 2 0 C2 1.65 2 3.3 2 5 C1.34 5 0.68 5 0 5 C-0.66 6.98 -1.32 8.96 -2 11 C-2.66 11 -3.32 11 -4 11 C-3.25531915 3.25531915 -3.25531915 3.25531915 0 0 Z " fill="#CE9E04" transform="translate(114,89)"/>
<path d="M0 0 C-0.75 4.75 -0.75 4.75 -3 7 C-5.125 6.625 -5.125 6.625 -7 6 C-7 5.01 -7 4.02 -7 3 C-2.5 0 -2.5 0 0 0 Z " fill="#948508" transform="translate(124,76)"/>
<path d="M0 0 C1.32 0.66 2.64 1.32 4 2 C4 3.65 4 5.3 4 7 C-0.75 6.125 -0.75 6.125 -3 5 C-3 4.01 -3 3.02 -3 2 C-2.01 2 -1.02 2 0 2 C0 1.34 0 0.68 0 0 Z " fill="#91AF74" transform="translate(59,76)"/>
<path d="M0 0 C0 0.99 0 1.98 0 3 C-3.96 4.98 -7.92 6.96 -12 9 C-12.99 8.34 -13.98 7.68 -15 7 C-10.05 4.69 -5.1 2.38 0 0 Z " fill="#BABBBA" transform="translate(102,84)"/>
<path d="M0 0 C0 0.66 0 1.32 0 2 C-0.99 2 -1.98 2 -3 2 C-3 2.99 -3 3.98 -3 5 C-2.01 5.33 -1.02 5.66 0 6 C-1.98 6.99 -1.98 6.99 -4 8 C-4 6.35 -4 4.7 -4 3 C-5.32 2.67 -6.64 2.34 -8 2 C-7 0 -7 0 -5.125 -0.6875 C-3 -1 -3 -1 0 0 Z " fill="#2A7421" transform="translate(59,76)"/>
<path d="M0 0 C2.31 0.33 4.62 0.66 7 1 C6.67 2.65 6.34 4.3 6 6 C3.69 5.67 1.38 5.34 -1 5 C-0.67 3.35 -0.34 1.7 0 0 Z " fill="#373737" transform="translate(78,108)"/>
<path d="M0 0 C1.67542976 0.28604898 3.34385343 0.61781233 5 1 C5 1.99 5 2.98 5 4 C3.02 4.66 1.04 5.32 -1 6 C-1.042721 4.33388095 -1.04063832 2.66617115 -1 1 C-0.67 0.67 -0.34 0.34 0 0 Z " fill="#131814" transform="translate(79,90)"/>
<path d="M0 0 C-1.875 3.875 -1.875 3.875 -3 5 C-4.99958364 5.04080783 -7.00045254 5.04254356 -9 5 C-9.66 3.68 -10.32 2.36 -11 1 C-10.071875 1.20625 -9.14375 1.4125 -8.1875 1.625 C-4.33959484 2.07769472 -3.53541174 0 0 0 Z " fill="#C7910A" transform="translate(94,84)"/>
<path d="M0 0 C4.99911924 0.47610659 7.97832683 2.03162219 12 5 C10.25 5.6875 10.25 5.6875 8 6 C6 4.625 6 4.625 4 3 C1.85266073 2.29485154 1.85266073 2.29485154 0 2 C0 1.34 0 0.68 0 0 Z " fill="#D2D4D2" transform="translate(86,92)"/>
<path d="M0 0 C2 3 2 3 1.7578125 5.26171875 C1.54898438 6.06222656 1.34015625 6.86273438 1.125 7.6875 C0.92132813 8.49574219 0.71765625 9.30398437 0.5078125 10.13671875 C0.25644531 11.05904297 0.25644531 11.05904297 0 12 C-0.66 12 -1.32 12 -2 12 C-2.08226668 8.95613276 -1.97608217 6.92824652 -1 4 C-1.66 3.34 -2.32 2.68 -3 2 C-2.01 2 -1.02 2 0 2 C0 1.34 0 0.68 0 0 Z " fill="#3F7F2D" transform="translate(68,50)"/>
<path d="M0 0 C2.0625 0.4375 2.0625 0.4375 4 1 C2.9024777 3.99324263 2.32317108 4.84610901 -0.625 6.25 C-1.40875 6.4975 -2.1925 6.745 -3 7 C-1.125 1.125 -1.125 1.125 0 0 Z " fill="#E1C81C" transform="translate(56,43)"/>
<path d="M0 0 C0.33 1.98 0.66 3.96 1 6 C-0.98 5.34 -2.96 4.68 -5 4 C-5 3.01 -5 2.02 -5 1 C-3 0 -3 0 0 0 Z " fill="#141915" transform="translate(97,90)"/>
<path d="M0 0 C0.70125 0.144375 1.4025 0.28875 2.125 0.4375 C4.13845838 0.83143751 6.16065087 1.18206288 8.1875 1.5 C11 2 11 2 13 3 C10 5 10 5 7.51953125 4.7578125 C6.62621094 4.54898438 5.73289062 4.34015625 4.8125 4.125 C3.91144531 3.92132813 3.01039062 3.71765625 2.08203125 3.5078125 C1.39496094 3.34023437 0.70789063 3.17265625 0 3 C0 2.01 0 1.02 0 0 Z " fill="#B78706" transform="translate(79,82)"/>
<path d="M0 0 C0.99 0.33 1.98 0.66 3 1 C1.10019993 4.51463012 -0.56635317 6.89550678 -4 9 C-4.66 9 -5.32 9 -6 9 C-4.47291037 5.56404834 -2.40072955 2.88087546 0 0 Z " fill="#E5CB17" transform="translate(71,33)"/>
<path d="M0 0 C1.65 0 3.3 0 5 0 C5 1.65 5 3.3 5 5 C3.35 5 1.7 5 0 5 C0 3.35 0 1.7 0 0 Z " fill="#B6C69B" transform="translate(50,79)"/>
<path d="M0 0 C1.32 0.66 2.64 1.32 4 2 C3.34 2 2.68 2 2 2 C1.67 3.98 1.34 5.96 1 8 C0.01 8 -0.98 8 -2 8 C-2 6 -2 4 -2 2 C-1.34 2 -0.68 2 0 2 C0 1.34 0 0.68 0 0 Z " fill="#CC9F02" transform="translate(83,70)"/>
<path d="M0 0 C0.66 0 1.32 0 2 0 C2.33 1.98 2.66 3.96 3 6 C3.66 6 4.32 6 5 6 C5 7.32 5 8.64 5 10 C4.34 9.67 3.68 9.34 3 9 C2.34 9 1.68 9 1 9 C-0.61949011 6.42786866 -1.04408751 5.32330841 -0.625 2.25 C-0.41875 1.5075 -0.2125 0.765 0 0 Z " fill="#938608" transform="translate(117,62)"/>
<path d="M0 0 C1.24546405 2.49092811 0.7767578 3.41080733 0 6 C1.65 6 3.3 6 5 6 C5 6.99 5 7.98 5 9 C4.01 9.33 3.02 9.66 2 10 C0.5 8.875 0.5 8.875 -1 7 C-1.25 3.875 -1.25 3.875 -1 1 C-0.67 0.67 -0.34 0.34 0 0 Z " fill="#8C8410" transform="translate(110,94)"/>
<path d="M0 0 C2.97 0.495 2.97 0.495 6 1 C6.12375 1.639375 6.2475 2.27875 6.375 2.9375 C6.684375 3.9584375 6.684375 3.9584375 7 5 C7.66 5.33 8.32 5.66 9 6 C8.34 6.66 7.68 7.32 7 8 C4.35247996 5.42215154 2.05567935 3.08351902 0 0 Z " fill="#A69405" transform="translate(102,59)"/>
<path d="M0 0 C0.66 0.33 1.32 0.66 2 1 C0.6875 3.9375 0.6875 3.9375 -1 7 C-1.99 7.33 -2.98 7.66 -4 8 C-4.33 6.68 -4.66 5.36 -5 4 C-3.35 2.68 -1.7 1.36 0 0 Z " fill="#D1BD31" transform="translate(53,45)"/>
<path d="M0 0 C2.475 0.99 2.475 0.99 5 2 C5 3.32 5 4.64 5 6 C4.01 6.495 4.01 6.495 3 7 C0 3.375 0 3.375 0 0 Z " fill="#222623" transform="translate(60,106)"/>
<path d="M0 0 C0.5625 1.9375 0.5625 1.9375 1 4 C0 5 0 5 -2.5625 5.0625 C-3.7690625 5.0315625 -3.7690625 5.0315625 -5 5 C-5 4.01 -5 3.02 -5 2 C-2 0 -2 0 0 0 Z " fill="#B49006" transform="translate(122,72)"/>
<path d="M0 0 C1.32 0.66 2.64 1.32 4 2 C3.67 3.65 3.34 5.3 3 7 C1.35 6.67 -0.3 6.34 -2 6 C-1.34 4.02 -0.68 2.04 0 0 Z " fill="#9C8F06" transform="translate(108,53)"/>
<path d="M0 0 C0.99 0.33 1.98 0.66 3 1 C2.67 2.32 2.34 3.64 2 5 C3.65 5 5.3 5 7 5 C6.01 5.495 6.01 5.495 5 6 C4.34786708 8.02463255 4.34786708 8.02463255 4 10 C4 8.68 4 7.36 4 6 C2.68 5.67 1.36 5.34 0 5 C0 3.35 0 1.7 0 0 Z " fill="#3C7D2C" transform="translate(61,62)"/>
<path d="M0 0 C0.66 0.33 1.32 0.66 2 1 C1.21625 1.7425 0.4325 2.485 -0.375 3.25 C-2.56504531 5.54433318 -3.82731386 7.12158858 -5 10 C-5.33 8.02 -5.66 6.04 -6 4 C-4.02 2.68 -2.04 1.36 0 0 Z " fill="#C1B03D" transform="translate(34,58)"/>
<path d="M0 0 C0.66 0.33 1.32 0.66 2 1 C0.86280581 4.41158256 -0.04342944 5.11854601 -3 7 C-3.66 7 -4.32 7 -5 7 C-3.70700306 4.11562221 -2.34058637 2.12780579 0 0 Z " fill="#ECD013" transform="translate(48,50)"/>
<path d="M0 0 C0.53625 0.2475 1.0725 0.495 1.625 0.75 C-3.55078125 3.97265625 -3.55078125 3.97265625 -5.375 4.75 C-6.365 4.42 -7.355 4.09 -8.375 3.75 C-2.95961538 -0.31153846 -2.95961538 -0.31153846 0 0 Z " fill="#252117" transform="translate(99.375,84.25)"/>
<path d="M0 0 C1.65 0 3.3 0 5 0 C5.33 1.32 5.66 2.64 6 4 C5.38125 3.79375 4.7625 3.5875 4.125 3.375 C3.42375 3.25125 2.7225 3.1275 2 3 C1.34 3.66 0.68 4.32 0 5 C0 3.35 0 1.7 0 0 Z " fill="#2C2C2C" transform="translate(91,109)"/>
<path d="M0 0 C1.875 0.3125 1.875 0.3125 4 1 C4.66 1.99 5.32 2.98 6 4 C5.01 4.495 5.01 4.495 4 5 C1.375 3.5625 1.375 3.5625 -1 2 C-0.67 1.34 -0.34 0.68 0 0 Z " fill="#0A601B" transform="translate(59,99)"/>
<path d="M0 0 C-0.33 1.32 -0.66 2.64 -1 4 C-1.66 4 -2.32 4 -3 4 C-3.33 4.99 -3.66 5.98 -4 7 C-4.6875 5.1875 -4.6875 5.1875 -5 3 C-3.38441968 0.84589291 -2.74502455 0 0 0 Z " fill="#1C201D" transform="translate(116,106)"/>
<path d="M0 0 C0.99 0 1.98 0 3 0 C3.66 0.66 4.32 1.32 5 2 C6.32 1.34 7.64 0.68 9 0 C8.67 0.99 8.34 1.98 8 3 C5.6875 3.625 5.6875 3.625 3 4 C2.01 3.34 1.02 2.68 0 2 C0 1.34 0 0.68 0 0 Z " fill="#D99F04" transform="translate(112,69)"/>
<path d="M0 0 C1.32 0.33 2.64 0.66 4 1 C3.67 1.99 3.34 2.98 3 4 C1.35 4 -0.3 4 -2 4 C-1.34 2.68 -0.68 1.36 0 0 Z " fill="#C6D2B5" transform="translate(55,64)"/>
<path d="M0 0 C1.98 0.495 1.98 0.495 4 1 C4 1.99 4 2.98 4 4 C2.35 3.67 0.7 3.34 -1 3 C-0.67 2.01 -0.34 1.02 0 0 Z " fill="#D0D8BE" transform="translate(60,85)"/>
<path d="M0 0 C1.65 0 3.3 0 5 0 C5 0.66 5 1.32 5 2 C4.01 2 3.02 2 2 2 C1.67 2.99 1.34 3.98 1 5 C0.34 4.67 -0.32 4.34 -1 4 C-0.67 2.68 -0.34 1.36 0 0 Z " fill="#DCA902" transform="translate(77,69)"/>
<path d="M0 0 C2.125 0.9375 2.125 0.9375 4 2 C3.67 2.66 3.34 3.32 3 4 C1.35 3.67 -0.3 3.34 -2 3 C-2.33 3.66 -2.66 4.32 -3 5 C-2.625 3.0625 -2.625 3.0625 -2 1 C-1.34 0.67 -0.68 0.34 0 0 Z " fill="#50893E" transform="translate(54,69)"/>
<path d="M0 0 C2.31 0.33 4.62 0.66 7 1 C7 2.32 7 3.64 7 5 C6.34 4.67 5.68 4.34 5 4 C5 3.34 5 2.68 5 2 C3.68 2.33 2.36 2.66 1 3 C0.67 2.01 0.34 1.02 0 0 Z " fill="#A78F06" transform="translate(110,67)"/>
<path d="M0 0 C-0.33 2.31 -0.66 4.62 -1 7 C-1.66 6.67 -2.32 6.34 -3 6 C-3.625 3.4375 -3.625 3.4375 -4 1 C-2 0 -2 0 0 0 Z " fill="#4F8736" transform="translate(75,55)"/>
</svg>
