<?xml version="1.0" encoding="UTF-8"?>
<svg version="1.1" xmlns="http://www.w3.org/2000/svg" width="139" height="101">
<path d="M0 0 C45.87 0 91.74 0 139 0 C139 33.33 139 66.66 139 101 C93.13 101 47.26 101 0 101 C0 67.67 0 34.34 0 0 Z " fill="#FCFEFE" transform="translate(0,0)"/>
<path d="M0 0 C0.99 0.33 1.98 0.66 3 1 C3.33 2.98 3.66 4.96 4 7 C5.3303125 6.62875 5.3303125 6.62875 6.6875 6.25 C10 6 10 6 12.8125 7.8125 C15.36372417 10.36372417 15.91630554 11.24674984 16.3125 14.8125 C15.91645896 18.85211856 15.01158942 20.29729155 12 23 C8.4375 23.9375 8.4375 23.9375 5 24 C4.01 23.34 3.02 22.68 2 22 C2 22.66 2 23.32 2 24 C1.34 24 0.68 24 0 24 C0 16.08 0 8.16 0 0 Z " fill="#48B4E1" transform="translate(41,50)"/>
<path d="M0 0 C0 5.28 0 10.56 0 16 C-11.15486194 17.57623049 -11.15486194 17.57623049 -14.75 15.125 C-16.4247796 10.93805099 -16.9096294 7.44064534 -16 3 C-11.98456527 -2.81545719 -6.20303208 -0.89682392 0 0 Z " fill="#45B3E0" transform="translate(89,57)"/>
<path d="M0 0 C0.99 0 1.98 0 3 0 C3.99 0 4.98 0 6 0 C6 5.61 6 11.22 6 17 C4.68 16.67 3.36 16.34 2 16 C1.67 16.33 1.34 16.66 1 17 C-2.7466522 17.35345775 -5.15177284 17.50023653 -8.4375 15.5625 C-10.7534578 11.7643292 -10.77925942 8.33363657 -10 4 C-7.28051186 -0.2884236 -4.86459691 -0.41400825 0 0 Z " fill="#47B3E0" transform="translate(81,25)"/>
<path d="M0 0 C0.66 0 1.32 0 2 0 C2 0.66 2 1.32 2 2 C2.99 1.34 3.98 0.68 5 0 C8.62683775 -0.37198336 10.87350101 0.14725986 14 2 C14.66 1.34 15.32 0.68 16 0 C22.57692308 0.57692308 22.57692308 0.57692308 24 2 C24.07313567 4.53049402 24.09247527 7.03304837 24.0625 9.5625 C24.05798828 10.27341797 24.05347656 10.98433594 24.04882812 11.71679688 C24.03700864 13.47790013 24.01907263 15.23896036 24 17 C23.01 16.67 22.02 16.34 21 16 C20.67 12.04 20.34 8.08 20 4 C18.35 4 16.7 4 15 4 C13.18884044 5.81115956 13.61800552 8.61278227 13.4375 11.0625 C13.35371094 12.16722656 13.26992188 13.27195312 13.18359375 14.41015625 C13.12300781 15.26480469 13.06242187 16.11945312 13 17 C12.01 17 11.02 17 10 17 C9.67 12.71 9.34 8.42 9 4 C7.35 4 5.7 4 4 4 C3.67 7.96 3.34 11.92 3 16 C1.68 16 0.36 16 -1 16 C-1.02685095 13.52076199 -1.04676547 11.0418116 -1.0625 8.5625 C-1.07506836 7.50192383 -1.07506836 7.50192383 -1.08789062 6.41992188 C-1.09653588 4.61306441 -1.05220011 2.80612397 -1 1 C-0.67 0.67 -0.34 0.34 0 0 Z " fill="#44B2E0" transform="translate(43,25)"/>
<path d="M0 0 C0.99 0 1.98 0 3 0 C3.33 3.96 3.66 7.92 4 12 C5.65 12.33 7.3 12.66 9 13 C10.81115956 11.18884044 10.38199448 8.38721773 10.5625 5.9375 C10.64628906 4.83277344 10.73007813 3.72804687 10.81640625 2.58984375 C10.87699219 1.73519531 10.93757813 0.88054688 11 0 C11.99 0 12.98 0 14 0 C14.11644156 3.08301416 14.18732432 6.16546123 14.25 9.25 C14.30027344 10.55904297 14.30027344 10.55904297 14.3515625 11.89453125 C14.44986337 18.33323822 14.44986337 18.33323822 12.25 21.59375 C8.65791281 23.8388045 6.1610377 23.27740251 2 23 C1.67 21.68 1.34 20.36 1 19 C3.01822917 19.09765625 5.03645833 19.1953125 7.0546875 19.29296875 C7.69664063 19.19628906 8.33859375 19.09960938 9 19 C9.66 18.01 10.32 17.02 11 16 C7.04 16.495 7.04 16.495 3 17 C0.65709108 14.51565563 0.02017066 13.22268407 -0.29296875 9.765625 C-0.24076172 8.02539062 -0.24076172 8.02539062 -0.1875 6.25 C-0.16042969 5.07953125 -0.13335937 3.9090625 -0.10546875 2.703125 C-0.07066406 1.81109375 -0.03585938 0.9190625 0 0 Z " fill="#48B4E1" transform="translate(106,57)"/>
<path d="M0 0 C0.99 0.66 1.98 1.32 3 2 C3 2.99 3 3.98 3 5 C-0.63 4.67 -4.26 4.34 -8 4 C-8 5.65 -8 7.3 -8 9 C-6.948125 9.1546875 -6.948125 9.1546875 -5.875 9.3125 C-2.60862353 10.09359003 0.0471852 11.42058743 3 13 C3.36731634 19.48925537 3.36731634 19.48925537 1.76953125 21.7109375 C-0.46811104 23.34100804 -1.75444356 23.37198706 -4.5 23.3125 C-5.2734375 23.30863281 -6.046875 23.30476563 -6.84375 23.30078125 C-9 23 -9 23 -12 21 C-12 20.01 -12 19.02 -12 18 C-11.484375 18.165 -10.96875 18.33 -10.4375 18.5 C-7.26636124 19.15049 -4.22781666 19.0620734 -1 19 C-1 17.68 -1 16.36 -1 15 C-1.54269531 14.81824219 -2.08539063 14.63648438 -2.64453125 14.44921875 C-3.35996094 14.19785156 -4.07539063 13.94648437 -4.8125 13.6875 C-5.52019531 13.44386719 -6.22789063 13.20023438 -6.95703125 12.94921875 C-9.18433307 11.91435385 -10.44966252 10.89485692 -12 9 C-12.58006212 5.76822531 -12.29268598 4.45122422 -10.5 1.6875 C-6.79318812 -0.81459802 -4.43361723 -0.42224926 0 0 Z " fill="#48B3E0" transform="translate(35,19)"/>
<path d="M0 0 C3.5625 0.1875 3.5625 0.1875 5.5625 2.1875 C5.896228 5.32454316 6.09099028 7.35304166 4.375 10.0625 C1.88213619 11.60979478 0.44282665 11.69155716 -2.4375 11.1875 C-4.3125 9.5625 -4.3125 9.5625 -5.4375 7.1875 C-4.89471446 0.26698443 -4.89471446 0.26698443 0 0 Z " fill="#EEF8FC" transform="translate(80.4375,59.8125)"/>
<path d="M0 0 C3.5625 0.1875 3.5625 0.1875 5.5625 2.1875 C5.896228 5.32454316 6.09099028 7.35304166 4.375 10.0625 C1.88213619 11.60979478 0.44282665 11.69155716 -2.4375 11.1875 C-4.3125 9.5625 -4.3125 9.5625 -5.4375 7.1875 C-4.89471446 0.26698443 -4.89471446 0.26698443 0 0 Z " fill="#EEF8FC" transform="translate(48.4375,59.8125)"/>
<path d="M0 0 C0.66 0 1.32 0 2 0 C2 6.6 2 13.2 2 20 C5.63 20 9.26 20 13 20 C12.67 20.99 12.34 21.98 12 23 C10.02090602 23.02686553 8.04171029 23.04633375 6.0625 23.0625 C4.96035156 23.07410156 3.85820312 23.08570312 2.72265625 23.09765625 C0 23 0 23 -1 22 C-1.09899523 20.45044441 -1.13079524 18.89646327 -1.1328125 17.34375 C-1.13410156 16.40402344 -1.13539062 15.46429688 -1.13671875 14.49609375 C-1.13285156 13.50738281 -1.12898437 12.51867187 -1.125 11.5 C-1.12886719 10.51128906 -1.13273438 9.52257812 -1.13671875 8.50390625 C-1.13542969 7.56417969 -1.13414063 6.62445313 -1.1328125 5.65625 C-1.13168457 4.78806641 -1.13055664 3.91988281 -1.12939453 3.02539062 C-1 1 -1 1 0 0 Z " fill="#46B3E0" transform="translate(17,51)"/>
<path d="M0 0 C0.99 0.103125 1.98 0.20625 3 0.3125 C5 3.3125 5 3.3125 4.6875 6.9375 C4 10.3125 4 10.3125 3 11.3125 C0.0625 11.5 0.0625 11.5 -3 11.3125 C-5 9.3125 -5 9.3125 -5.25 5.8125 C-4.93382655 1.38607168 -4.44897929 0.46343534 0 0 Z " fill="#F3FAFD" transform="translate(79,27.6875)"/>
<path d="M0 0 C0.66 0 1.32 0 2 0 C2 1.32 2 2.64 2 4 C3.32 4 4.64 4 6 4 C6 4.99 6 5.98 6 7 C4.68 7 3.36 7 2 7 C2 10.63 2 14.26 2 18 C3.32 18 4.64 18 6 18 C5.67 18.99 5.34 19.98 5 21 C0.125 20.125 0.125 20.125 -1 19 C-1.07244053 16.98035801 -1.08377188 14.95832876 -1.0625 12.9375 C-1.05347656 11.83277344 -1.04445313 10.72804688 -1.03515625 9.58984375 C-1.02355469 8.73519531 -1.01195313 7.88054688 -1 7 C-1.99 7 -2.98 7 -4 7 C-4 6.01 -4 5.02 -4 4 C-3.01 4 -2.02 4 -1 4 C-0.67 2.68 -0.34 1.36 0 0 Z " fill="#50B7E2" transform="translate(107,21)"/>
<path d="M0 0 C0.8971875 0.309375 0.8971875 0.309375 1.8125 0.625 C1.4825 1.615 1.1525 2.605 0.8125 3.625 C-2.25 4.8125 -2.25 4.8125 -5.1875 5.625 C-5.5175 9.255 -5.8475 12.885 -6.1875 16.625 C-7.1775 16.625 -8.1675 16.625 -9.1875 16.625 C-9.1875 11.345 -9.1875 6.065 -9.1875 0.625 C-7.8675 0.955 -6.5475 1.285 -5.1875 1.625 C-2.1875 -0.375 -2.1875 -0.375 0 0 Z " fill="#46B3E0" transform="translate(69.1875,56.375)"/>
<path d="M0 0 C0.99 0.33 1.98 0.66 3 1 C3 3.31 3 5.62 3 8 C3.99 8.33 4.98 8.66 6 9 C5.484375 9.53625 4.96875 10.0725 4.4375 10.625 C2.69255197 12.98577772 2.69255197 12.98577772 3.25 16.125 C3.87261072 18.91768692 3.87261072 18.91768692 5 21 C4.01 21 3.02 21 2 21 C2 21.99 2 22.98 2 24 C1.34 24 0.68 24 0 24 C0 16.08 0 8.16 0 0 Z " fill="#3FB0DF" transform="translate(41,50)"/>
<path d="M0 0 C1.32 0.33 2.64 0.66 4 1 C4.33 0.67 4.66 0.34 5 0 C6.66617115 -0.04063832 8.33388095 -0.042721 10 0 C10 0.99 10 1.98 10 3 C8.02 3.66 6.04 4.32 4 5 C3.67 8.63 3.34 12.26 3 16 C2.01 16 1.02 16 0 16 C0 10.72 0 5.44 0 0 Z " fill="#41B1DF" transform="translate(93,57)"/>
<path d="M0 0 C0.66 0 1.32 0 2 0 C2 0.66 2 1.32 2 2 C2.99 1.34 3.98 0.68 5 0 C6.32 0 7.64 0 9 0 C9 0.99 9 1.98 9 3 C7.02 3.66 5.04 4.32 3 5 C2.67 8.96 2.34 12.92 2 17 C1.01 16.67 0.02 16.34 -1 16 C-1.02685095 13.52076199 -1.04676547 11.0418116 -1.0625 8.5625 C-1.07506836 7.50192383 -1.07506836 7.50192383 -1.08789062 6.41992188 C-1.09653588 4.61306441 -1.05220011 2.80612397 -1 1 C-0.67 0.67 -0.34 0.34 0 0 Z " fill="#49B4E1" transform="translate(92,25)"/>
<path d="M0 0 C0.66 0 1.32 0 2 0 C2 0.66 2 1.32 2 2 C2.66 2 3.32 2 4 2 C3.67 6.62 3.34 11.24 3 16 C1.68 16 0.36 16 -1 16 C-1.02685095 13.52076199 -1.04676547 11.0418116 -1.0625 8.5625 C-1.07506836 7.50192383 -1.07506836 7.50192383 -1.08789062 6.41992188 C-1.09653588 4.61306441 -1.05220011 2.80612397 -1 1 C-0.67 0.67 -0.34 0.34 0 0 Z " fill="#59BAE3" transform="translate(43,25)"/>
<path d="M0 0 C-0.845625 0.86625 -1.69125 1.7325 -2.5625 2.625 C-4.68107255 5.17211572 -4.99116286 5.77023445 -5.125 9.25 C-4.25283605 12.21445621 -4.25283605 12.21445621 -1.4375 13.375 C-0.633125 13.58125 0.17125 13.7875 1 14 C1 14.99 1 15.98 1 17 C-1.25 17.3125 -1.25 17.3125 -4 17 C-6.59821356 14.82311837 -7.81848756 13.15159557 -8.3515625 9.76953125 C-8.56809193 3.73623408 -8.56809193 3.73623408 -6.640625 1.23828125 C-4.39215306 -0.45877971 -2.74268986 -0.22238026 0 0 Z " fill="#42B1E0" transform="translate(81,57)"/>
<path d="M0 0 C0.99 0.66 1.98 1.32 3 2 C3 2.99 3 3.98 3 5 C-0.63 4.67 -4.26 4.34 -8 4 C-8.33 5.32 -8.66 6.64 -9 8 C-9.33 7.01 -9.66 6.02 -10 5 C-10.66 6.32 -11.32 7.64 -12 9 C-12.34982212 5.85160094 -12.24633224 4.37976221 -10.5 1.6875 C-6.79318812 -0.81459802 -4.43361723 -0.42224926 0 0 Z " fill="#80CBEA" transform="translate(35,19)"/>
<path d="M0 0 C0.99 0 1.98 0 3 0 C3 5.28 3 10.56 3 16 C2.01 16 1.02 16 0 16 C0 10.72 0 5.44 0 0 Z " fill="#43B1E0" transform="translate(33,57)"/>
<path d="M0 0 C0.33 0 0.66 0 1 0 C1 3.63 1 7.26 1 11 C2.32 11 3.64 11 5 11 C4.67 11.99 4.34 12.98 4 14 C2.35 13.67 0.7 13.34 -1 13 C-1.02686553 11.02090602 -1.04633375 9.04171029 -1.0625 7.0625 C-1.07410156 5.96035156 -1.08570312 4.85820313 -1.09765625 3.72265625 C-1 1 -1 1 0 0 Z " fill="#41B1DF" transform="translate(108,28)"/>
<path d="M0 0 C1.875 2.0625 1.875 2.0625 3 4 C-0.50935186 4 -3.56484998 3.62457273 -7 3 C-7.33 2.01 -7.66 1.02 -8 0 C-5.03475663 -1.48262169 -3.14877613 -0.83538959 0 0 Z " fill="#59BAE3" transform="translate(53,57)"/>
<path d="M0 0 C7.75 -0.125 7.75 -0.125 10 1 C10 1.99 10 2.98 10 4 C6.37 3.34 2.74 2.68 -1 2 C-0.67 1.34 -0.34 0.68 0 0 Z " fill="#3FB0DF" transform="translate(28,20)"/>
<path d="M0 0 C0.598125 0.20625 1.19625 0.4125 1.8125 0.625 C1.4825 1.615 1.1525 2.605 0.8125 3.625 C-1.1675 3.955 -3.1475 4.285 -5.1875 4.625 C-5.1875 3.635 -5.1875 2.645 -5.1875 1.625 C-2.1875 -0.375 -2.1875 -0.375 0 0 Z " fill="#6DC3E7" transform="translate(69.1875,56.375)"/>
<path d="M0 0 C-0.66 1.32 -1.32 2.64 -2 4 C-3.65 4 -5.3 4 -7 4 C-7.33 3.01 -7.66 2.02 -8 1 C-5.23735711 0.40267181 -2.83967231 0 0 0 Z " fill="#F1F9FC" transform="translate(117,73)"/>
<path d="M0 0 C0.99 0 1.98 0 3 0 C3 0.66 3 1.32 3 2 C5.97 2.495 5.97 2.495 9 3 C9 3.33 9 3.66 9 4 C6.36 4 3.72 4 1 4 C0.67 2.68 0.34 1.36 0 0 Z " fill="#59BBE3" transform="translate(107,76)"/>
<path d="M0 0 C1.2065625 0.0309375 1.2065625 0.0309375 2.4375 0.0625 C2.4375 1.0525 2.4375 2.0425 2.4375 3.0625 C0.4575 3.3925 -1.5225 3.7225 -3.5625 4.0625 C-3.5625 0.08689024 -3.5625 0.08689024 0 0 Z " fill="#62BEE5" transform="translate(100.5625,56.9375)"/>
<path d="M0 0 C5.75 0.75 5.75 0.75 8 3 C5.29120665 4.35439668 2.99066732 4.06501451 0 4 C0.66 3.34 1.32 2.68 2 2 C1.34 1.34 0.68 0.68 0 0 Z " fill="#69C1E6" transform="translate(78,56)"/>
<path d="M0 0 C1.20628008 2.33214148 2.1654738 4.49642139 3 7 C1.68 6.67 0.36 6.34 -1 6 C-1.042721 4.33388095 -1.04063832 2.66617115 -1 1 C-0.67 0.67 -0.34 0.34 0 0 Z " fill="#35ACDD" transform="translate(25,23)"/>
</svg>
