<?xml version="1.0" encoding="UTF-8"?>
<svg version="1.1" xmlns="http://www.w3.org/2000/svg" width="225" height="225">
<path d="M0 0 C74.25 0 148.5 0 225 0 C225 74.25 225 148.5 225 225 C150.75 225 76.5 225 0 225 C0 150.75 0 76.5 0 0 Z " fill="#6B755E" transform="translate(0,0)"/>
<path d="M0 0 C74.25 0 148.5 0 225 0 C225 36.63 225 73.26 225 111 C150.75 111 76.5 111 0 111 C0 74.37 0 37.74 0 0 Z " fill="#566660" transform="translate(0,114)"/>
<path d="M0 0 C74.25 0 148.5 0 225 0 C225 17.49 225 34.98 225 53 C150.75 53 76.5 53 0 53 C0 35.51 0 18.02 0 0 Z " fill="#4C634C" transform="translate(0,61)"/>
<path d="M0 0 C74.25 0 148.5 0 225 0 C225 16.17 225 32.34 225 49 C150.75 49 76.5 49 0 49 C0 32.83 0 16.66 0 0 Z " fill="#73787C" transform="translate(0,176)"/>
<path d="M0 0 C74.25 0 148.5 0 225 0 C225 9.24 225 18.48 225 28 C150.75 28 76.5 28 0 28 C0 18.76 0 9.52 0 0 Z " fill="#536553" transform="translate(0,0)"/>
<path d="M0 0 C74.25 0 148.5 0 225 0 C225 7.26 225 14.52 225 22 C150.75 22 76.5 22 0 22 C0 14.74 0 7.48 0 0 Z " fill="#556870" transform="translate(0,154)"/>
<path d="M0 0 C74.25 0 148.5 0 225 0 C225 6.27 225 12.54 225 19 C150.75 19 76.5 19 0 19 C0 12.73 0 6.46 0 0 Z " fill="#6B7860" transform="translate(0,114)"/>
<path d="M0 0 C74.25 0 148.5 0 225 0 C225 5.61 225 11.22 225 17 C150.75 17 76.5 17 0 17 C0 11.39 0 5.78 0 0 Z " fill="#868686" transform="translate(0,208)"/>
<path d="M0 0 C74.25 0 148.5 0 225 0 C225 3.96 225 7.92 225 12 C150.75 12 76.5 12 0 12 C0 8.04 0 4.08 0 0 Z " fill="#787B7D" transform="translate(0,196)"/>
<path d="M0 0 C74.25 0 148.5 0 225 0 C225 2.31 225 4.62 225 7 C150.75 7 76.5 7 0 7 C0 4.69 0 2.38 0 0 Z " fill="#5C6C76" transform="translate(0,176)"/>
<path d="M0 0 C74.25 0 148.5 0 225 0 C225 1.65 225 3.3 225 5 C150.75 5 76.5 5 0 5 C0 3.35 0 1.7 0 0 Z " fill="#585E62" transform="translate(0,183)"/>
<path d="M0 0 C74.25 0 148.5 0 225 0 C225 1.32 225 2.64 225 4 C150.75 4 76.5 4 0 4 C0 2.68 0 1.36 0 0 Z " fill="#5C6D52" transform="translate(0,61)"/>
<path d="M0 0 C74.25 0 148.5 0 225 0 C225 1.32 225 2.64 225 4 C150.75 4 76.5 4 0 4 C0 2.68 0 1.36 0 0 Z " fill="#636F59" transform="translate(0,28)"/>
<path d="M0 0 C74.25 0 148.5 0 225 0 C225 0.99 225 1.98 225 3 C150.75 3 76.5 3 0 3 C0 2.01 0 1.02 0 0 Z " fill="#8696A0" transform="translate(0,180)"/>
<path d="M0 0 C74.25 0 148.5 0 225 0 C225 0.99 225 1.98 225 3 C150.75 3 76.5 3 0 3 C0 2.01 0 1.02 0 0 Z " fill="#82956E" transform="translate(0,58)"/>
</svg>
